<svg id="Layer_1" enable-background="new 0 0 512.002 512.002" height="512" viewBox="0 0 512.002 512.002" width="512" xmlns="http://www.w3.org/2000/svg"><g><g clip-rule="evenodd" fill-rule="evenodd"><path d="m136.002 75h94.999v-40h-114.999c-5.5 0-10 4.5-10 10 .001 16.5 13.5 30 30 30z" fill="#ffc144"/><path d="m231.001 75h-94.999c-5.5 0-10 4.5-10 10 0 16.5 13.5 30 30 30h74.998v-40z" fill="#ffcd69"/><path d="m231.001 115h-74.998c-5.5 0-10 4.5-10 10 0 16.5 13.501 30 30 30h49.999c0-6.134 1.841-11.837 5-16.585v-23.415z" fill="#ffc144"/><path d="m231.001 75v40 23.412c5.374-8.083 14.565-13.411 25-13.411s19.625 5.327 25 13.414v-23.415-40-40c0-13.75-11.25-25-25-25s-25 11.25-25 25z" fill="#faf7f6"/><path d="m281.001 75h94.999c16.5 0 30-13.5 30-30 0-5.5-4.5-10-10-10h-114.999z" fill="#ffc144"/><path d="m376 75h-94.999v40h74.999c16.5 0 30-13.5 30-30-.001-5.5-4.5-10-10-10z" fill="#ffcd69"/><path d="m356 115h-74.999v23.411c3.159 4.751 5 10.455 5 16.589h49.999c16.499 0 30-13.5 30-30-.001-5.5-4.5-10-10-10z" fill="#ffc144"/><path d="m286.001 155.001c0-6.134-1.841-11.837-5-16.589-5.375-8.083-14.565-13.411-25-13.411s-19.626 5.328-25 13.411c-3.159 4.751-5 10.455-5 16.589 0 8.885 3.863 16.868 10 22.361 5.308 4.75 12.316 7.639 20 7.639s14.692-2.889 20-7.639c6.138-5.493 10-13.476 10-22.361z" fill="#ff5a58"/><path d="m276.001 177.362c-5.308 4.75-12.316 7.639-20 7.639-7.683 0-14.692-2.889-20-7.641v304.643c0 11 9 20 20 20s20-9 20-20z" fill="#faf7f6"/></g><g><path d="m416 45c0-11.028-8.972-20-20-20h-106.462c-4.314-14.441-17.712-25-33.537-25s-29.223 10.559-33.537 25h-106.462c-11.028 0-20 8.972-20 20 0 15.036 8.339 28.16 20.635 34.992-.414 1.601-.635 3.28-.635 5.008 0 15.036 8.339 28.161 20.635 34.993-.414 1.601-.635 3.279-.635 5.008 0 22.056 17.944 40 40 40h41.265c1.595 6.175 4.638 11.769 8.734 16.415v103.712c0 5.523 4.477 10 10 10s10-4.477 10-10v-91.393c3.197.826 6.548 1.266 10 1.266s6.803-.44 10-1.266v288.267c0 5.514-4.486 10-10 10s-10-4.486-10-10v-106.875c0-5.523-4.477-10-10-10s-10 4.477-10 10v106.875c0 16.542 13.458 30 30 30s30-13.458 30-30v-300.586c4.096-4.646 7.139-10.241 8.734-16.415h41.265c22.056 0 40-17.944 40-40 0-1.729-.221-3.407-.635-5.008 12.296-6.832 20.635-19.957 20.635-34.993 0-1.729-.221-3.407-.635-5.008 12.296-6.831 20.635-19.956 20.635-34.992zm-159.999-25c8.271 0 15 6.729 15 15v82.93c-4.636-1.883-9.697-2.929-15-2.929s-10.364 1.047-15 2.929v-82.93c0-8.271 6.729-15 15-15zm-139.999 25h104.999v20h-84.998c-11.028 0-20.001-8.972-20.001-20zm20 40h84.998v20h-64.999c-11.026 0-19.999-8.972-19.999-20zm20 40h64.999v10.664c-1.615 2.911-2.882 6.04-3.734 9.336h-41.265c-11.027 0-19.999-8.972-20-20zm79.999 30c0-11.028 8.972-20 20-20s20 8.972 20 20-8.973 20-20 20-20-8.972-20-20zm99.999-10h-41.264c-.852-3.296-2.119-6.426-3.734-9.337v-10.663h64.988.01c0 11.029-8.972 20-20 20zm20-40c-.021 0-.043 0-.064 0h-64.934v-20h84.988.01c0 11.028-8.972 20-20 20zm20-40h-84.998v-20h104.998c0 11.028-8.972 20-20 20z"/><path d="m236.001 340.131c5.523 0 10-4.477 10-10v-.007c0-5.523-4.477-9.996-10-9.996s-10 4.48-10 10.003 4.478 10 10 10z"/></g></g></svg>