<svg id="Layer_1" enable-background="new 0 0 512 512" height="512" viewBox="0 0 512 512" width="512" xmlns="http://www.w3.org/2000/svg"><g><g clip-rule="evenodd" fill-rule="evenodd"><path d="m176 130.533c17.781-5.448 37.309-9.008 57.5-10.531v-37.5c0-12.375 10.125-22.499 22.5-22.499s22.5 10.125 22.5 22.499v37.501c20.191 1.522 39.719 5.083 57.5 10.53v60c0 25.532-12.122 48.37-30.894 63.044v50.023h5.423 26.965c8.081 0 13.438-6.71 14.693-14.693l3.554-22.605 24.05-21.577c18.31-17.166 31.249-27.131 25.159-50.751l-39.855-154.587c-4.033-15.647-13.227-29.387-29.386-29.387h-79.709-79.709c-16.159 0-25.353 13.74-29.387 29.387l-39.854 154.586c-6.089 23.62 6.85 33.585 25.159 50.751l24.05 21.577 3.554 22.605c1.255 7.984 6.612 14.693 14.693 14.693h26.965 5.423v-50.024c-18.772-14.672-30.894-37.51-30.894-63.043z" fill="#c68a65"/><path d="m233.5 82.501v37.5c0 5.5 4.5 10 10 10h25c5.5 0 10-4.5 10-9.999v-37.501c0-12.374-10.125-22.499-22.5-22.499s-22.5 10.125-22.5 22.499z" fill="#d1a184"/><path d="m243.5 130.001c-5.5 0-10-4.5-10-10-20.191 1.522-39.719 5.083-57.5 10.531v60c0 25.532 12.122 48.37 30.895 63.044 13.579 10.614 30.637 16.956 49.105 16.956s35.527-6.342 49.105-16.956c18.773-14.674 30.895-37.512 30.895-63.044v-60c-17.781-5.448-37.309-9.008-57.5-10.53 0 5.499-4.5 9.999-10 9.999z" fill="#ddb9a3"/><path d="m256 270.532c-18.468 0-35.526-6.342-49.105-16.956v50.024h-5.423c15.673 11.935 34.828 18.399 54.528 18.399s38.856-6.464 54.528-18.399h-5.423v-50.024c-13.579 10.614-30.637 16.956-49.105 16.956z" fill="#d1a184"/><path d="m256 321.999c-19.7 0-38.856-6.464-54.528-18.399h-26.965c-8.081 0-13.438-6.71-14.693-14.693l-3.554-22.605c-49.682 28.683-60.26 38.005-60.26 75.698h40c11 0 20 9 20 20v60h77.5v-50c0-5.5 4.499-10 10-10h25c5.5 0 10 4.499 10 10v50h77.5v-60c0-11 9-20 20-20h40c0-37.693-10.577-47.015-60.26-75.699l-3.554 22.605c-1.255 7.984-6.612 14.693-14.693 14.693h-26.965c-15.672 11.936-34.828 18.4-54.528 18.4z" fill="#ddb9a3"/><path d="m156 422v-60c0-11-9-20-20-20h-40c-11 0-20 9-20 20v60z" fill="#d1a184"/><path d="m156 422h-80c-22 0-40 18-40 40v30c0 5.5 4.5 10 10 10h140c5.5 0 10-4.5 10-10v-30c0-22-18-40-40-40z" fill="#c68a65"/><path d="m233.5 372v50h45v-50c0-5.5-4.5-10-10-10h-25c-5.5 0-10 4.5-10 10z" fill="#c68a65"/><path d="m278.5 422h-45-77.5c22 0 40 18 40 40v30h120v-30c0-22 18-40 40-40z" fill="#d1a184"/><path d="m356 362v60h80v-60c0-11-9-20-20-20h-40c-11 0-20 9-20 20z" fill="#d1a184"/><path d="m436 422h-80c-22 0-40 18-40 40v30c0 5.5 4.5 10 10 10h140c5.5 0 10-4.5 10-10v-30c0-22-18-40-40-40z" fill="#c68a65"/></g><g><path d="m446 413.006v-51.006c0-13.11-8.457-24.276-20.2-28.347-.734-14.735-3.818-27.293-13.239-38.825-8.112-9.928-20.244-18.501-39.943-30.235l13.85-12.426c.054-.049.108-.098.161-.148 1.194-1.12 2.365-2.208 3.509-3.271 16.993-15.797 31.669-29.439 24.494-57.271l-39.853-154.586c-6.044-23.445-20.285-36.891-39.071-36.891h-159.416c-18.786 0-33.026 13.446-39.07 36.89l-8.69 33.708c-1.378 5.348 1.839 10.801 7.187 12.18 5.35 1.378 10.801-1.839 12.18-7.187l8.69-33.709c2.107-8.172 7.468-21.882 19.703-21.882h159.417c12.235 0 17.596 13.71 19.703 21.883l39.854 154.586c3.999 15.51-1.694 21.78-18.744 37.63-1.139 1.058-2.303 2.141-3.491 3.254l-23.969 21.504c-1.713 1.537-2.843 3.617-3.201 5.89l-3.554 22.606c-.364 2.32-1.789 6.246-4.814 6.246h-22.388v-35.254c18.92-16.51 30.895-40.788 30.895-67.813v-60c0-4.395-2.869-8.274-7.071-9.562-15.78-4.834-32.71-8.209-50.429-10.088v-28.381c0-17.92-14.58-32.499-32.5-32.499s-32.5 14.579-32.5 32.499v28.382c-17.719 1.879-34.649 5.253-50.429 10.088-4.202 1.288-7.071 5.167-7.071 9.562v60c0 27.025 11.975 51.303 30.895 67.814v35.253h-22.388c-3.025 0-4.45-3.926-4.814-6.246l-3.554-22.605c-.357-2.273-1.488-4.354-3.201-5.891l-23.969-21.504c-1.188-1.113-2.352-2.196-3.491-3.254-17.05-15.85-22.743-22.12-18.744-37.63l8.69-33.707c1.378-5.348-1.839-10.801-7.187-12.18-5.35-1.378-10.801 1.839-12.18 7.187l-8.69 33.707c-7.175 27.832 7.501 41.475 24.494 57.271 1.144 1.063 2.315 2.152 3.509 3.271.053.05.107.099.161.148l13.849 12.425c-19.746 11.761-31.887 20.339-40.017 30.329-9.365 11.507-12.433 24.036-13.164 38.732-11.741 4.071-20.199 15.237-20.199 28.347v51.006c-22.794 4.646-40 24.848-40 48.994v30c0 11.028 8.972 20 20 20h140c7.383 0 13.829-4.032 17.294-10h105.412c3.465 5.968 9.911 10 17.294 10h140c11.028 0 20-8.972 20-20v-30c0-24.146-17.205-44.348-40-48.994zm-80-1.006v-50c0-5.514 4.486-10 10-10h40c5.514 0 10 4.486 10 10v50zm-60 50v20h-100v-20c0-11.247-3.735-21.637-10.027-30h120.054c-6.292 8.363-10.027 18.753-10.027 30zm-37.5-50h-25v-40h25zm-25-329.499c0-6.892 5.607-12.499 12.5-12.499s12.5 5.607 12.5 12.499v37.5h-25zm-57.5 108.031v-52.477c12.823-3.471 26.432-5.939 40.609-7.391 3.548 5.6 9.784 9.337 16.89 9.337h25c7.106 0 13.342-3.737 16.891-9.337 14.177 1.452 27.786 3.921 40.609 7.391v52.477c0 38.598-31.402 70-70 70-15.904 0-30.578-5.341-42.345-14.31-.398-.366-.822-.705-1.276-1.003-16.061-12.838-26.378-32.575-26.378-54.687zm70 90c14.005 0 27.273-3.217 39.105-8.949v30.214c-11.906 6.697-25.251 10.202-39.105 10.202s-27.199-3.505-39.105-10.202v-30.214c11.832 5.732 25.1 8.949 39.105 8.949zm-107.341 1.807 1.276 8.12c2.142 13.625 12.246 23.14 24.572 23.14h23.721c16.98 12.032 36.911 18.399 57.771 18.399 20.861 0 40.791-6.367 57.772-18.399h23.721c12.326 0 22.43-9.516 24.572-23.14l1.276-8.12c33.219 19.831 40.956 28.501 42.378 49.66h-29.718c-13.036 0-24.151 8.361-28.279 20h-13.828c-5.523 0-10 4.477-10 10s4.477 10 10 10h12.107v40h-57.5v-40c0-11.028-8.972-20-20-20h-25c-11.028 0-20 8.972-20 20v40h-57.5v-40h12.108c5.523 0 10-4.477 10-10s-4.477-10-10-10h-13.828c-4.128-11.639-15.243-20-28.279-20h-29.721c1.417-21.196 9.142-29.825 42.379-49.66zm-52.659 69.661h40c5.514 0 10 4.486 10 10v50h-60v-50c0-5.514 4.486-10 10-10zm70.004 140v-15c0-5.523-4.477-10-10-10s-10 4.477-10 10v15h-20.001v-15c0-5.523-4.477-10-10-10s-10 4.477-10 10v15h-20.002v-15c0-5.523-4.477-10-10-10s-10 4.477-10 10v15h-20.001v-30c0-16.542 13.458-30 30-30h80c16.542 0 30 13.458 30 30v30zm299.996 0h-20.001v-15c0-5.523-4.477-10-10-10s-10 4.477-10 10v15h-20.001v-15c0-5.523-4.477-10-10-10s-10 4.477-10 10v15h-20.001v-15c0-5.523-4.477-10-10-10s-10 4.477-10 10v15h-19.997v-30c0-16.542 13.458-30 30-30h80c16.542 0 30 13.458 30 30z"/><path d="m126.978 126.68c5.523 0 10-4.477 10-10s-4.477-10-10-10h-.007c-5.523 0-9.996 4.477-9.996 10s4.48 10 10.003 10z"/><path d="m216.002 180.159c5.523 0 10-4.477 10-10s-4.477-10-10-10h-.008c-5.523 0-9.996 4.477-9.996 10s4.481 10 10.004 10z"/><path d="m296.005 180.159c5.523 0 10-4.477 10-10s-4.477-10-10-10h-.007c-5.523 0-9.997 4.477-9.997 10s4.481 10 10.004 10z"/><path d="m223.738 217.013c8.618 8.617 20.075 13.363 32.262 13.363s23.644-4.746 32.262-13.363c3.905-3.905 3.905-10.237 0-14.143s-10.237-3.905-14.143 0c-4.839 4.84-11.274 7.505-18.119 7.505s-13.28-2.666-18.12-7.505c-3.905-3.905-10.237-3.905-14.142 0s-3.905 10.237 0 14.143z"/></g></g></svg>