<svg id="Layer_1" enable-background="new 0 0 512 512" height="512" viewBox="0 0 512 512" width="512" xmlns="http://www.w3.org/2000/svg"><g><g clip-rule="evenodd" fill-rule="evenodd"><path d="m32.968 133h154.065l-3.828-61.5h-146.409z" fill="#ffcd69"/><path d="m36.796 71.5h146.409l-3.206-51.5c-.341-5.489-4.502-10-10-10h-119.998c-5.498 0-9.659 4.512-10 10z" fill="#ffda8f"/><path d="m187.033 133h-154.065l-3.828 61.5h134.64c-4.441-1.016-7.779-5.012-7.779-9.75v-30.001c0-5.5 4.5-10 10-10h21.764z" fill="#ffda8f"/><path d="m163.78 194.5h-134.64l-3.828 61.5h140.688v-61.25c-.763 0-1.506-.087-2.22-.25z" fill="#ffcd69"/><path d="m166 256h-140.688l-3.828 61.5h144.516z" fill="#ffda8f"/><path d="m166 317.5h-144.516l-3.828 61.5h148.344z" fill="#ffcd69"/><path d="m166 379h-148.344l-3.828 61.499h152.172z" fill="#ffda8f"/><path d="m166 440.499h-152.172l-3.828 61.501h156z" fill="#ffcd69"/><path d="m166 194.75h180c.762 0 1.506-.087 2.22-.25 4.441-1.016 7.779-5.012 7.779-9.75v-30.001c0-5.5-4.499-10-10-10h-21.764-136.471-21.764c-5.5 0-10 4.5-10 10v30.001c0 4.738 3.339 8.733 7.779 9.75.715.163 1.458.25 2.221.25z" fill="#ffcd69"/><path d="m346 194.75h-180v61.25 61.5 61.5 61.499 61.501h60v-250h60v250h60v-61.501-61.499-61.5-61.5z" fill="#ffc144"/><path d="m328.795 71.5h146.409l-3.205-51.5c-.341-5.488-4.502-10-10-10h-119.998c-5.498 0-9.659 4.51-10 10z" fill="#ffda8f"/><path d="m475.204 71.5h-146.409l-3.828 61.5h154.065z" fill="#ffcd69"/><path d="m479.032 133h-154.065l-.731 11.75h21.764c5.5 0 10 4.5 10 10v30.001c0 4.738-3.339 8.733-7.779 9.75h134.64z" fill="#ffda8f"/><path d="m482.86 194.5h-134.64c-.715.164-1.458.25-2.22.25v61.25h140.688z" fill="#ffcd69"/><path d="m486.688 256h-140.688v61.5h144.516z" fill="#ffda8f"/><path d="m490.516 317.5h-144.516v61.5h148.344z" fill="#ffcd69"/><path d="m494.344 379h-148.344v61.499h152.172z" fill="#ffda8f"/><path d="m498.172 440.499h-152.172v61.501h156z" fill="#ffcd69"/></g><g><path d="m511.98 501.379-30.001-481.999c-.675-10.867-9.451-19.38-19.98-19.38h-119.999c-10.527 0-19.304 8.512-19.98 19.379l-7.181 115.371h-117.678l-7.181-115.372c-.677-10.866-9.453-19.378-19.98-19.378h-119.999c-10.529 0-19.306 8.513-19.98 19.379l-30.001 482c-.172 2.754.803 5.458 2.693 7.469s4.528 3.152 7.287 3.152h216c5.522 0 10-4.477 10-10v-240h40v240c0 5.523 4.478 10 10 10h216c2.76 0 5.397-1.141 7.287-3.152 1.89-2.012 2.865-4.715 2.693-7.469zm-155.98-235.379h121.291l2.583 41.5h-123.874zm120.046-20h-120.046v-41.5h117.463zm-120.046 81.5h125.118l2.583 41.5h-127.701zm112.39-204.5h-132.781l2.583-41.5h127.615zm1.245 20 2.583 41.5h-106.218v-29.75c0-4.393-1.441-8.446-3.851-11.75zm-113.635 246h128.946l2.583 41.5h-131.529zm-13.833-369h119.667c.069.108.165.314.185.621l2.544 40.879h-125.126l2.544-40.878c.019-.307.115-.514.186-.622zm-165.776 103h-132.781l2.583-41.5h127.615zm-20.391 184.5h-123.874l2.583-41.5h121.291zm0 20v41.5h-127.702l2.583-41.5zm0-123v41.5h-120.046l2.583-41.5zm-128.947 184.5h128.947v41.5h-131.53zm118.947-234.25v29.75h-106.218l2.583-41.5h107.486c-2.41 3.303-3.851 7.357-3.851 11.75zm-95.833-134.75h119.667c.07.108.166.314.186.621l2.544 40.879h-125.126l2.544-40.88c.019-.306.115-.512.185-.62zm-26.942 430.5h132.775v41.5h-135.358zm262.775-208.5h-60c-5.522 0-10 4.477-10 10v240h-40v-287.25h34.997c5.522 0 10-4.477 10-10s-4.478-10-10-10h-42.798c-.708-.159-1.442-.25-2.198-.25l-.001-29.75h180v29.75c-.757 0-1.491.091-2.199.25h-42.805c-5.522 0-10 4.477-10 10s4.478 10 10 10h35.004v287.25h-40v-240c0-5.523-4.478-10-10-10zm70 250v-41.5h132.774l2.583 41.5z"/><path d="m256 184.75h-.007c-5.522 0-9.996 4.477-9.996 10s4.48 10 10.003 10 10-4.477 10-10-4.478-10-10-10z"/></g></g></svg>