<svg id="Capa_1" enable-background="new 0 0 512 512" height="512" viewBox="0 0 512 512" width="512" xmlns="http://www.w3.org/2000/svg"><g><g><path d="m335.397 0h30v67.104h-30z" fill="#814f2b"/></g><path d="m234.061 124.132c-24.959 39.144-39.859 91.233-39.859 139.34 0 43.584 20.032 103.968 52.278 157.587 15.302 25.442 32.073 47.138 48.503 62.739 19.707 18.714 38.351 28.202 55.413 28.202l27.926-239.847-27.926-220.049c-45.405 0-86.72 25.58-116.335 72.028z" fill="#cb5027"/><path d="m466.731 124.132c-29.615-46.448-70.931-72.028-116.335-72.028v459.896c17.062 0 35.707-9.488 55.413-28.202 16.43-15.602 33.202-37.297 48.503-62.739 32.246-53.619 52.278-114.003 52.278-157.587 0-48.107-14.9-100.197-39.859-139.34z" fill="#ae1b1d"/><path d="m259.356 140.261c-22.013 34.523-35.154 80.584-35.154 123.211 0 38.448 18.388 92.907 47.987 142.125 13.929 23.16 28.954 42.679 43.452 56.447 18.285 17.363 29.624 19.956 34.755 19.956l34.364-202.717-34.364-197.179c-24.616 0-60.392 10.089-91.04 58.157z" fill="#f5d845"/><path d="m441.436 140.261c-30.648-48.067-66.425-58.157-91.04-58.157v399.896c5.132 0 16.47-2.593 34.755-19.956 14.499-13.769 29.524-33.287 43.452-56.447 29.6-49.218 47.987-103.677 47.987-142.125 0-42.627-13.142-88.688-35.154-123.211z" fill="#db8d2c"/><g><path d="m350.396 119.143c-22.753 0-40.308 20.854-51.029 38.349-11.294 18.431-19.846 41.559-24.547 65.266l86.11 18.863z" fill="#fbf2e1"/><path d="m425.972 222.757c-4.702-23.707-13.253-46.834-24.547-65.266-10.721-17.495-28.276-38.349-51.029-38.349v118.353z" fill="#ecd5af"/><path d="m279.365 311.859c6.013 20.07 14.937 41.911 26.059 63.171 17.332 33.133 34.166 53.99 44.972 64.392l10.534-142.215z" fill="#d1baa5"/><path d="m350.396 439.422c10.806-10.402 27.64-31.259 44.972-64.392 11.121-21.26 20.046-43.102 26.059-63.171l-71.031-12.76z" fill="#ba9779"/><path d="m274.819 222.757c-2.649 13.357-4.081 26.898-4.081 39.887 0 13.647 3.072 30.675 8.626 49.214h71.031v-89.101z" fill="#ecd5af"/><path d="m425.972 222.757h-75.576v89.101h71.031c5.554-18.539 8.626-35.567 8.626-49.214-.001-12.989-1.432-26.529-4.081-39.887z" fill="#d1baa5"/></g><path d="m157.458 0h-15v53.119c4.889-.657 9.885-1.016 15-1.016z" fill="#b36e3c"/><path d="m157.458 52.103c5.114 0 10.111.359 15 1.017v-53.12h-15z" fill="#814f2b"/><path d="" fill="#db8d2c"/><path d="" fill="#db8d2c"/><path d="m107.108 262.175c0-78.268 12.98-171.15 35.35-200.615 4.611-6.074 9.621-9.457 15-9.457-5.114 0-10.11.359-15 1.016-85.364 11.473-136.048 119.768-136.048 209.056 0 94.403 92.667 249.824 151.047 249.825-19.459 0-50.349-155.422-50.349-249.825z" fill="#db8d2c"/><path d="m172.458 53.12c-4.89-.657-9.886-1.017-15-1.017 5.379 0 10.389 3.383 15 9.458 22.369 29.467 35.349 122.347 35.349 200.614 0 94.403-30.889 249.825-50.349 249.825 58.38 0 151.048-155.422 151.048-249.825-.001-89.288-50.684-197.581-136.048-209.055z" fill="#841f1c"/><g fill="#cb5027"><path d="m157.458 67.104v444.896c0-42.922 0-368.022 0-444.896z"/><path d="m142.458 61.56c-22.37 29.465-35.35 122.347-35.35 200.615 0 94.402 30.889 249.824 50.349 249.825v-444.896-15c-5.378-.001-10.388 3.382-14.999 9.456z"/><path d="m157.458 52.103v15c0-7.575 0-12.753 0-15z"/></g><path d="m172.458 61.562c-4.612-6.075-9.622-9.458-15-9.458v15 444.896c19.46 0 50.349-155.422 50.349-249.825 0-78.266-12.98-171.147-35.349-200.613z" fill="#ae1b1d"/><path d="m350.396 0h-15v53.119c4.889-.657 9.885-1.016 15-1.016z" fill="#b36e3c"/></g></svg>