<svg id="Capa_1" enable-background="new 0 0 512 512" height="512" viewBox="0 0 512 512" width="512" xmlns="http://www.w3.org/2000/svg"><g><path d="m118.68 212.45c25.53 0 46.301-20.771 46.301-46.301v-14.75h-30v14.75c0 8.988-7.312 16.301-16.301 16.301h-13.699v-50.579h-30v115.917h-13.7c-8.988 0-16.3-7.312-16.3-16.3v-14.75h-30v14.75c0 25.53 20.77 46.3 46.3 46.3h13.7v100.849h30v-68.207h13.699c25.53 0 46.301-20.771 46.301-46.301v-14.75h-30v14.75c0 8.988-7.312 16.301-16.301 16.301h-13.699v-67.98z" fill="#9ebc2c"/><path d="m467.019 237.718v14.749c0 8.988-7.312 16.301-16.3 16.301h-13.7v-48.293h-30v90.73h-13.699c-8.988 0-16.301-7.312-16.301-16.301v-14.75h-30v14.75c0 25.53 20.771 46.301 46.301 46.301h13.699v37.431h30v-79.868h13.7c25.53 0 46.3-20.771 46.3-46.301v-14.749z" fill="#5a781e"/><g><path d="m0 376.636h512v135.364h-512z" fill="#ebd5ae"/></g><g><path d="m256 376.636h256v135.364h-256z" fill="#d0b9a4"/></g><g><g><path d="m202.255 482h183.843v30h-183.843z" fill="#d0b9a4"/></g><g><path d="m256 482h130.099v30h-130.099z" fill="#ba9779"/></g><g><path d="m0 421.818h89.981v30h-89.981z" fill="#d0b9a4"/></g><g><path d="m347.029 421.818h164.971v30h-164.971z" fill="#ba9779"/></g><g><path d="m182.521 421.818h30v30h-30z" fill="#d0b9a4"/></g><g><path d="m67.758 482h30v30h-30z" fill="#d0b9a4"/></g></g><g><path d="m291.176 0v30.87c-6.554 1.583-12.72 4.166-18.317 7.598l-21.837-21.837-21.212 21.214 21.836 21.836c-3.432 5.597-6.016 11.763-7.598 18.316h-30.87v30h30.87c1.583 6.554 4.166 12.72 7.598 18.317l-21.837 21.837 21.213 21.213 21.837-21.837c5.597 3.432 11.763 6.016 18.317 7.598v30.87h15l10.373-92.998-10.373-92.997z" fill="#ecbd2c"/><path d="m399.174 107.998v-30h-30.87c-1.583-6.554-4.166-12.72-7.598-18.317l21.836-21.836-21.212-21.213-21.836 21.836c-5.597-3.432-11.763-6.016-18.317-7.598v-30.87h-15v185.997h15v-30.87c6.554-1.583 12.72-4.166 18.317-7.598l21.836 21.836 21.213-21.213-21.836-21.836c3.432-5.597 6.016-11.763 7.598-18.317h30.869z" fill="#e68f21"/></g></g></svg>