<svg id="Capa_1" enable-background="new 0 0 512 512" height="512" viewBox="0 0 512 512" width="512" xmlns="http://www.w3.org/2000/svg"><g><g><path d="m89.328 97.311v290.754h92.325l-28.59-382.115c-37.199 13.675-63.735 49.418-63.735 91.361z" fill="#464646"/><path d="m226.829 0h-40.19c-11.801 0-23.11 2.102-33.576 5.95v382.115h37.701c53.743 0 97.311-43.568 97.311-97.311v-68.701z" fill="#2d2d2d"/></g><g><g><path d="m226.829 0c-40.74 0-73.766 33.026-73.766 73.766v74.522c0 40.74 33.026 73.766 73.766 73.766h61.245l.051-222.054z" fill="#fbf2e0"/><g><path d="m89.697 388.065-30.612 123.935h93.978l28.59-123.935z" fill="#464646"/><path d="m216.428 388.065h-63.365v123.935h93.977z" fill="#2d2d2d"/></g><g><path d="m153.063 403.064h-130.094v-30h130.094l12.717 15z" fill="#ba9779"/></g><g><path d="m153.063 373.064h335.968v30h-335.968z" fill="#804e2b"/></g></g></g><path d="m325.105 117.244h147.993v-45.024c0-39.886-32.334-72.22-72.22-72.22h-147.993v45.024c0 39.886 32.334 72.22 72.22 72.22z" fill="#ecbd2c"/></g></svg>