<?xml version="1.0" encoding="UTF-8"?>
<svg width="569px" height="568px" viewBox="0 0 569 568" version="1.1" xmlns="http://www.w3.org/2000/svg" xmlns:xlink="http://www.w3.org/1999/xlink">
    <title>Group 132</title>
    <defs>
        <polygon id="path-1" points="0.026455115 0.051775138 95.8709605 0.051775138 95.8709605 95.934664 0.026455115 95.934664"></polygon>
        <path d="M59.4428015,0.0710966035 L58.6197552,0.0710966035 L46.2740612,0.0710966035 L41.3357836,28.0659863 L0.183470207,33.8304635 C22.5456373,56.2016739 55.02222,55.4449885 59.0304553,55.2605516 L59.0304553,55.2605516 C63.0395136,55.4449885 95.5160963,56.2016739 117.879086,33.8304635 L117.879086,33.8304635 L76.72595,28.0659863 L71.7884955,0.0710966035 L59.4428015,0.0710966035 Z" id="path-3"></path>
        <path d="M0.404938764,30.5369471 C0.404938764,36.2997774 2.87407757,56.8842552 7.81235517,72.5284583 L7.81235517,72.5284583 C10.6592722,81.5502232 18.98027,87.0125202 25.5160804,90.0195007 L25.5160804,90.0195007 C30.9868689,92.5373941 37.3111564,92.5373941 42.782768,90.0195007 L42.782768,90.0195007 C49.3177554,87.0125202 57.6395762,81.5502232 60.4873163,72.5284583 L60.4873163,72.5284583 C65.4255939,56.8842552 67.8947327,36.2997774 67.8947327,30.5369471 L67.8947327,30.5369471 C67.8947327,14.0685415 49.7877148,0.0710966035 34.1490127,0.0710966035 L34.1490127,0.0710966035 C18.5111336,0.0710966035 0.404938764,14.0685415 0.404938764,30.5369471" id="path-5"></path>
        <path d="M72.6733393,29.8779578 C24.6699888,43.7601296 0.229629909,56.3043103 0.229629909,56.3043103 L0.229629909,56.3043103 L3.05185556,69.4512046 C3.05185556,69.4512046 70.4494683,81.7203767 142.76149,67.6521212 L142.76149,67.6521212 C215.073512,53.5838657 223.150065,22.4741328 216.927836,14.9904401 L216.927836,14.9904401 C207.86445,4.09219418 195.075957,0.0403455764 180.384581,0.0403455764 L180.384581,0.0403455764 C147.173841,0.0411689555 104.243748,20.7466834 72.6733393,29.8779578 L72.6733393,29.8779578 Z" id="path-7"></path>
        <path d="M1.6971214,15.8928636 C-4.43045806,23.453954 4.03951108,54.4591177 76.5243728,67.6101289 L76.5243728,67.6101289 C149.009235,80.7594933 216.24553,67.6381238 216.24553,67.6381238 L216.24553,67.6381238 L218.900677,54.4566476 C218.900677,54.4566476 194.30394,42.2228808 146.128573,28.9500095 L146.128573,28.9500095 C114.771333,20.3102925 72.1449436,0.474266367 39.0782368,0.474266367 L39.0782368,0.474266367 C23.9531155,0.474266367 10.8288197,4.6232737 1.6971214,15.8928636" id="path-9"></path>
    </defs>
    <g id="Designs" stroke="none" stroke-width="1" fill="none" fill-rule="evenodd">
        <g id="Team-Page" transform="translate(-14506.000000, -2014.000000)">
            <g id="Group-132" transform="translate(14509.000000, 2016.000000)">
                <g id="Group-4">
                    <g id="Group-96" transform="translate(124.009390, 133.244131)">
                        <g id="Group-16" transform="translate(8.762075, 0.111980)">
                            <g id="Group-2" transform="translate(48.265616, 0.000000)">
                                <g id="Group-3" transform="translate(0.325135, 0.000000)">
                                    <mask id="mask-2" fill="white">
                                        <use xlink:href="#path-1"></use>
                                    </mask>
                                    <g id="Clip-2"></g>
                                    <path d="M42.9450727,0.317397239 C69.2652693,-2.44668643 92.8422527,16.6573557 95.605219,42.9873729 C98.3681853,69.3182134 79.2718659,92.9047314 52.9516693,95.6688151 C26.6322957,98.4328988 3.05531235,79.3288566 0.292346034,52.9980161 C-2.47144333,26.6679989 16.6248762,3.08148091 42.9450727,0.317397239" id="Fill-1" fill="#E1E6ED" mask="url(#mask-2)"></path>
                                </g>
                                <path d="M44.2210728,9.37580252 C65.5396172,7.13621134 84.6367597,22.6107983 86.8754456,43.9387874 C89.1141314,65.2667765 73.6457999,84.371642 52.3264324,86.6104098 C31.007065,88.8491776 11.9099224,73.375414 9.67205962,52.0474249 C7.43419682,30.7194358 22.9025284,11.6145703 44.2210728,9.37580252" id="Fill-4" fill="#F0F3FA"></path>
                                <line x1="18.0081191" y1="51.1719259" x2="48.2731765" y2="47.9928592" id="Stroke-6" stroke="#E1E6ED" stroke-width="5.04833471"></line>
                                <line x1="48.273588" y1="47.9930238" x2="30.9492871" y2="17.9857955" id="Stroke-8" stroke="#E1E6ED" stroke-width="2.01883967"></line>
                                <path d="M47.4633813,40.2693984 C51.727584,39.8223036 55.5465186,42.9165623 55.9942558,47.1824894 C56.441993,51.4475932 53.3481621,55.2688957 49.0847824,55.7168139 C44.8205797,56.1647321 41.000822,53.0696501 40.5530848,48.8037229 C40.1061707,44.5386191 43.1991785,40.7173167 47.4633813,40.2693984" id="Fill-10" fill="#FFFFFF"></path>
                            </g>
                            <path d="M325.286499,334.729675 C325.286499,342.687634 252.509456,349.138809 162.734861,349.138809 C72.9602664,349.138809 0.183223293,342.687634 0.183223293,334.729675 C0.183223293,326.771716 72.9602664,320.320541 162.734861,320.320541 C252.509456,320.320541 325.286499,326.771716 325.286499,334.729675" id="Fill-12" fill="#DDE2E9" opacity="0.673814174"></path>
                            <path d="M213.681754,227.924395 C212.226608,208.165767 210.592039,188.677206 209.237304,179.522054 C209.206029,179.315386 209.187922,179.111188 209.160761,178.90452 L237.69989,220.243091 L213.681754,227.924395 Z M87.7704902,220.243091 L116.307973,178.90452 C116.280813,179.111188 116.263529,179.315386 116.233076,179.522054 C114.876696,188.677206 113.242126,208.165767 111.787803,227.924395 L87.7704902,220.243091 Z M277.073601,226.382206 C272.236558,199.807645 221.644727,140.083841 221.644727,140.083841 L218.70069,143.744585 C220.37312,141.339495 221.582998,139.999857 221.582998,139.999857 L103.887382,139.999857 C103.887382,139.999857 105.095614,141.339495 106.76969,143.744585 L103.824008,140.083841 C103.824008,140.083841 53.2338227,199.807645 48.3959568,226.382206 C45.5268175,242.144152 80.597642,253.058866 109.613315,259.332191 C108.641297,274.150545 108.002614,284.91458 108.002614,284.91458 L162.323667,284.91458 L163.146713,284.91458 L217.467767,284.91458 C217.467767,284.91458 216.827437,274.150545 215.856243,259.332191 C244.871916,253.058866 279.94274,242.144152 277.073601,226.382206 L277.073601,226.382206 Z" id="Fill-14" fill="#9A71E6"></path>
                        </g>
                        <g id="Group-28" transform="translate(107.527627, 21.663646)">
                            <path d="M42.3450029,16.9617743 C42.3450029,16.9617743 42.1581714,3.17511452 65.2034669,0.704977194 C88.2487624,-1.76516014 103.063595,16.3491803 107.178827,54.2246194 C111.294058,92.1000584 128.578029,97.8637122 128.578029,97.8637122 C128.578029,97.8637122 103.886641,117.624811 66.8495594,117.624811 C29.8124774,117.624811 0.18281177,99.5104704 0.18281177,99.5104704 C0.18281177,99.5104704 16.6437371,89.6299211 15.8206908,72.3389598 C14.9976446,55.0479985 16.1943539,6.87043997 42.3450029,16.9617743" id="Fill-24" fill="#2E3A5B"></path>
                            <path d="M122.817117,118.448437 L81.6648038,112.684783 L76.7265262,84.6898934 L64.3808321,84.6898934 L63.5577859,84.6898934 L51.2120919,84.6898934 L46.2738143,112.684783 L5.1215009,118.448437 C27.483668,140.820471 59.9610737,140.062962 63.969309,139.878525 C67.9775443,140.062962 100.454127,140.820471 122.817117,118.448437" id="Fill-26" fill="#F4C5BE"></path>
                        </g>
                        <g id="Group-31" transform="translate(112.465905, 106.282032)">
                            <mask id="mask-4" fill="white">
                                <use xlink:href="#path-3"></use>
                            </mask>
                            <g id="Clip-30"></g>
                            <path d="M40.9240135,4.18840384 C40.9240135,4.18840384 45.8622911,28.066398 82.0763269,23.9495025 C109.112574,20.8766516 79.6071881,-1.57524993 79.6071881,-1.57524993 L40.9240135,4.18840384 Z" id="Fill-29" fill="#C96A54" opacity="0.332984561" mask="url(#mask-4)"></path>
                        </g>
                        <path d="M171.496936,32.2494199 C155.859057,32.2494199 137.752039,46.2468648 137.752039,62.714447 C137.752039,68.4781008 140.221178,89.0625785 145.159456,104.706782 C148.007196,113.727723 156.32737,119.19002 162.863181,122.197824 C168.333969,124.715717 174.65908,124.715717 180.129869,122.197824 C186.665679,119.19002 194.986677,113.727723 197.834417,104.706782 C202.772694,89.0625785 205.241833,68.4781008 205.241833,62.714447 C205.241833,46.2468648 187.134815,32.2494199 171.496936,32.2494199" id="Fill-32" fill="#F4C5BE"></path>
                        <g id="Group-36" transform="translate(137.347347, 32.177912)">
                            <mask id="mask-6" fill="white">
                                <use xlink:href="#path-5"></use>
                            </mask>
                            <g id="Clip-35"></g>
                            <path d="M15.6310478,6.65854117 C15.6310478,6.65854117 15.6310478,51.9443922 65.7940717,49.3630987 C107.785069,47.2025519 15.6310478,6.65854117 15.6310478,6.65854117" id="Fill-34" fill="#C96A54" opacity="0.333844866" mask="url(#mask-6)"></path>
                        </g>
                        <g id="Group-69" transform="translate(39.588613, 28.444858)">
                            <path d="M110.099161,10.1202088 C110.099161,10.1202088 126.274489,52.4435418 163.407044,49.802965 C184.994725,48.267363 154.542013,2.15813279 154.542013,2.15813279 L117.504931,0.511374574 L110.099161,10.1202088 Z" id="Fill-37" fill="#2E3A5B"></path>
                            <path d="M113.389782,10.3915945 C113.389782,10.3915945 115.41283,21.6965897 99.5864729,49.8026357 C83.7601162,77.9086816 96.1058102,18.6253856 96.1058102,18.6253856 L105.982365,10.3915945 L113.389782,10.3915945 Z" id="Fill-39" fill="#2E3A5B"></path>
                            <polygon id="Fill-41" fill="#7A4CB6" points="63.1842064 278.813596 199.809887 278.813596 199.809887 226.940712 63.1842064 226.940712"></polygon>
                            <polygon id="Fill-60" fill="#F0F3FA" points="59.4804982 263.432814 204.336641 263.432814 204.336641 167.920837 59.4804982 167.920837"></polygon>
                            <path d="M142.196401,215.676496 C142.196401,221.361106 137.589811,225.968735 131.908323,225.968735 C126.226011,225.968735 121.620245,221.361106 121.620245,215.676496 C121.620245,209.99271 126.226011,205.384258 131.908323,205.384258 C137.589811,205.384258 142.196401,209.99271 142.196401,215.676496" id="Fill-61" fill="#CAD5E5"></path>
                            <path d="M71.4144222,234.614216 C66.8152397,233.463955 62.8687328,233.153541 59.4802513,233.482893 L59.4802513,263.432485 L204.336394,263.432485 L204.336394,167.920508 L184.21209,167.920508 C174.268045,171.153918 162.652393,177.78459 149.603818,190.151744 C136.057299,202.989871 107.628458,243.671386 71.4144222,234.614216" id="Fill-62" fill="#BEC9DA" opacity="0.145856585" style="mix-blend-mode: multiply;"></path>
                            <path d="M157.66465,70.8179054 C161.170828,72.0093349 171.330511,70.8763653 173.537921,60.9233586 C175.745331,50.9711753 163.202929,50.5067895 160.087699,59.6701756 C156.588106,69.9648846 157.66465,70.8179054 157.66465,70.8179054" id="Fill-63" fill="#F4C5BE"></path>
                            <path d="M106.151172,70.8179054 C102.644995,72.0093349 92.485312,70.8763653 90.2779019,60.9233586 C88.0704918,50.9711753 100.612894,50.5067895 103.728947,59.6701756 C107.227717,69.9648846 106.151172,70.8179054 106.151172,70.8179054" id="Fill-64" fill="#F4C5BE"></path>
                            <path d="M65.1997644,286.117875 C65.4359787,285.904619 55.3923451,291.91858 44.5413031,285.529158 C44.1577636,285.303553 43.7602322,285.146287 43.3577626,285.02278 C40.7610516,287.100989 37.6441754,289.311762 34.203019,291.546413 C34.6943776,291.988568 35.074625,292.307215 35.1174234,292.272633 C34.5668054,292.164771 33.9305907,292.137599 33.2277091,292.173828 C23.3239934,298.503967 10.9651307,304.92797 0.529727028,308.947707 C-0.44311366,310.25194 -0.143524819,311.033326 2.01861773,310.913113 C12.7280958,310.31781 38.1017891,309.864128 68.7684931,298.688403 C65.4442092,295.137169 64.6384469,290.750205 65.1997644,286.117875" id="Fill-65" fill="#2E3A5B"></path>
                            <path d="M0.529562419,308.947378 C10.9657891,304.927641 23.3238288,298.503637 33.2283676,292.174322 C24.2629246,292.647765 4.0513774,304.225299 0.529562419,308.947378" id="Fill-66" fill="#9560D9"></path>
                            <path d="M31.6879542,289.165365 C31.7875428,289.273228 33.2196433,290.660622 34.2031836,291.546578 C37.643517,289.311927 40.7603932,287.101154 43.3579272,285.022945 C39.5003094,283.832339 34.8714971,286.994115 31.6879542,289.165365" id="Fill-67" fill="#9560D9"></path>
                            <path d="M277.649405,246.165956 C283.872458,253.648825 275.795082,284.760205 203.48306,298.827637 C131.171038,312.895069 63.7734253,300.62672 63.7734253,300.62672 L60.9511996,287.479826 C60.9511996,287.479826 85.3915585,274.935645 133.394086,261.053473 C178.932413,247.883525 248.099575,210.631383 277.649405,246.165956" id="Fill-68" fill="#232D47"></path>
                        </g>
                        <g id="Group-72" transform="translate(100.310265, 259.620209)">
                            <mask id="mask-8" fill="white">
                                <use xlink:href="#path-7"></use>
                            </mask>
                            <g id="Clip-71"></g>
                            <path d="M7.92461868,71.611175 C7.92461868,71.611175 185.877098,64.5259977 218.635163,7.84128628 C251.391581,-48.8426018 232.800612,84.0112644 232.800612,84.0112644 L92.9173145,107.038708 L7.92461868,71.611175 Z" id="Fill-70" fill="#17233D" mask="url(#mask-8)"></path>
                        </g>
                        <g id="Group-81" transform="translate(22.943916, 260.443588)">
                            <path d="M246.670752,58.8407297 C245.967871,58.8127348 245.331656,58.8489634 244.782684,58.9625898 C244.825483,58.9971717 245.203261,58.6735837 245.688858,58.2248421 C242.219718,56.0346537 239.074858,53.8634029 236.45181,51.8181292 C236.050986,51.9473997 235.655101,52.1087821 235.274031,52.3393282 C224.50447,58.865431 214.385939,52.9799172 214.624623,53.1907022 C215.2452,57.8147993 214.495405,62.2124671 211.216388,65.8048702 C242.022187,76.5911365 267.399173,76.7228772 278.115235,77.1823227 C280.279024,77.2753646 280.568736,76.4906843 279.579434,75.1979791 C269.093825,71.3116297 256.655127,65.0440679 246.670752,58.8407297" id="Fill-73" fill="#2E3A5B"></path>
                            <path d="M246.670752,58.8407297 C256.655127,65.0440679 269.093825,71.3116297 279.579434,75.1979791 C275.99836,70.5211857 255.641134,59.2005463 246.670752,58.8407297" id="Fill-75" fill="#9560D9"></path>
                            <path d="M248.172976,55.8134117 C244.962273,53.6816832 240.293954,50.5800141 236.451974,51.8175529 C239.075023,53.86365 242.219883,56.0349007 245.6882,58.2250891 C246.660217,57.3276059 248.074211,55.9212743 248.172976,55.8134117" id="Fill-77" fill="#9560D9"></path>
                            <path d="M1.6971214,15.8927812 C-4.43045806,23.4538716 4.04033413,54.4590354 76.5243728,67.6100465 C149.008411,80.7602343 216.24553,67.6380414 216.24553,67.6380414 L218.900677,54.4557419 C218.900677,54.4557419 194.30394,42.2227984 146.128573,28.9499272 C100.428106,16.3588138 30.7950991,-20.0139584 1.6971214,15.8927812" id="Fill-79" fill="#232D47"></path>
                        </g>
                        <g id="Group-84" transform="translate(22.943916, 260.443588)">
                            <mask id="mask-10" fill="white">
                                <use xlink:href="#path-9"></use>
                            </mask>
                            <g id="Clip-83"></g>
                            <path d="M-5.01342173,10.5609075 C-5.01342173,10.5609075 -4.37803001,10.9931815 -3.15827544,11.7885657 C10.2293951,20.5205012 93.9397849,73.0026857 179.136596,77.8729731 C272.09638,83.1878853 41.909269,96.4731072 41.909269,96.4731072 L-15.6373029,46.8743964" id="Fill-82" fill="#17233D" mask="url(#mask-10)"></path>
                        </g>
                        <g id="Group-95" transform="translate(137.903375, 79.110521)" fill="#2E3A5B">
                            <path d="M15.3386421,19.0639002 C20.2102529,19.0704872 25.317255,19.4871171 28.4366004,14.9099526 C30.9781672,11.1800452 30.1106765,5.88818768 30.1139687,1.61896699 C30.1139687,1.01295997 29.6012108,0.500818161 28.9954488,0.499994782 C21.6374152,0.489290854 14.2793815,0.479410304 6.9213479,0.468705389 C6.31640889,0.467882997 5.80365107,0.982494941 5.80282802,1.58767859 C5.80118193,4.6144202 5.46208687,7.84535982 5.90077053,10.8506936 C6.60859032,15.6872225 10.6275252,18.7641902 15.3386421,19.0639002 C16.7765039,19.1552953 16.7707426,16.9173509 15.3386421,16.8267792 C6.89254128,16.289936 8.0349295,7.62881112 8.03986778,1.58767859 C7.66702782,1.96066932 7.2950109,2.33366006 6.9213479,2.70582742 C14.2793815,2.71653135 21.6374152,2.72723527 28.9954488,2.73711582 C28.6234319,2.36412509 28.2505919,1.99195773 27.8769289,1.61896699 C27.8744598,4.69181783 28.4077938,8.29492482 27.6505912,11.3060222 C26.1468857,17.2821078 20.1485245,16.8333662 15.3386421,16.8267792 C13.8999572,16.824309 13.8974881,19.0622534 15.3386421,19.0639002" id="Fill-85"></path>
                            <path d="M46.6144002,19.0639002 C51.4860111,19.0704872 56.5930132,19.4871171 59.7123585,14.9099526 C62.2539254,11.1800452 61.3864346,5.88818768 61.3897268,1.61896699 C61.3897268,1.01295997 60.876969,0.500818161 60.2712069,0.499994782 C52.9131733,0.489290854 45.5551397,0.479410304 38.1971061,0.468705389 C37.5921671,0.467882997 37.0794092,0.982494941 37.0785862,1.58767859 C37.0769401,4.6144202 36.737845,7.84535982 37.1765287,10.8506936 C37.8843485,15.6872225 41.9032834,18.7641902 46.6144002,19.0639002 C48.0522621,19.1552953 48.0465007,16.9173509 46.6144002,16.8267792 C38.1682994,16.289936 39.3106877,7.62881112 39.3156259,1.58767859 C38.942786,1.96066932 38.5707691,2.33366006 38.1971061,2.70582742 C45.5551397,2.71653135 52.9131733,2.72723527 60.2712069,2.73711582 C59.89919,2.36412509 59.5263501,1.99195773 59.1526871,1.61896699 C59.1502179,4.69181783 59.6835519,8.29492482 58.9263493,11.3060222 C57.4226438,17.2821078 51.4242826,16.8333662 46.6144002,16.8267792 C45.1757154,16.824309 45.1732462,19.0622534 46.6144002,19.0639002" id="Fill-87"></path>
                            <path d="M1.49475694,2.42546683 L65.6923658,2.42546683 C67.1310507,2.42546683 67.1335198,0.188345789 65.6923658,0.188345789 L1.49475694,0.188345789 C0.0552490226,0.188345789 0.0527798838,2.42546683 1.49475694,2.42546683" id="Fill-89"></path>
                        </g>
                        <polygon id="Fill-28" fill="#2A3551" transform="translate(52.306638, 78.347806) rotate(133.000000) translate(-52.306638, -78.347806) " points="56.5233222 82.5721761 47.233205 81.5034239 48.0899528 74.1234354 57.3800702 75.1917743"></polygon>
                        <polygon id="Fill-28" fill="#2A3551" transform="translate(295.217199, 106.072877) rotate(133.000000) translate(-295.217199, -106.072877) " points="299.433883 110.297247 290.143766 109.228495 291.000514 101.848507 300.290631 102.916846"></polygon>
                        <polygon id="Fill-30" fill="#E0E0E0" transform="translate(6.388832, 155.136986) rotate(133.000000) translate(-6.388832, -155.136986) " points="10.6409269 156.327422 4.26209485 159.010608 2.13673627 153.946963 8.5151553 151.263364"></polygon>
                        <polygon id="Fill-30" fill="#E0E0E0" transform="translate(78.391636, 178.109188) rotate(133.000000) translate(-78.391636, -178.109188) " points="82.6437317 179.299624 76.2648996 181.982809 74.139541 176.919165 80.5179601 174.235566"></polygon>
                        <polygon id="Fill-30" fill="#E0E0E0" transform="translate(283.322696, 212.171418) rotate(133.000000) translate(-283.322696, -212.171418) " points="287.574791 213.361855 281.195959 216.04504 279.070601 210.981395 285.44902 208.297797"></polygon>
                        <polygon id="Fill-36" fill="#9A71E6" transform="translate(73.896647, 138.768912) rotate(133.000000) translate(-73.896647, -138.768912) " points="78.0426941 145.47926 66.5135485 141.565282 69.7505999 132.058564 81.2797454 135.972542"></polygon>
                        <polygon id="Fill-36" fill="#9A71E6" transform="translate(330.187105, 154.642857) rotate(181.000000) translate(-330.187105, -154.642857) " points="334.334579 161.359758 322.810167 157.436577 326.039632 147.925957 337.564044 151.849138"></polygon>
                    </g>
                    <g id="Group-33" transform="translate(79.758216, 418.201878)">
                        <path d="M26.4457616,45.1741561 C36.1867693,46.0576532 37.4017221,53.063383 30.1414101,52.9549538 C28.4506342,52.9295198 14.2434386,52.294339 12.1610442,52.5366314 C4.97090278,53.3732763 0.331627565,51.7227432 0.291353351,48.3380125 C0.252100951,44.9526125 6.81605387,45.3301067 12.9964078,45.2578206 C19.1767618,45.1855345 25.1238822,45.0543486 26.4457616,45.1741561" id="Fill-148" fill="#DDE2E9" opacity="0.673814174"></path>
                        <polygon id="Fill-185" fill="#EEEFF2" points="31.9781407 6.2656162 31.937375 6.72610556 31.9293555 6.77496562 31.8491606 7.65578539 31.7843364 8.3913636 30.662276 20.7194938 29.2742359 35.8761531 28.038566 49.4170837 7.76395764 49.4170837 6.65793625 35.8761531 5.41491524 20.7194938 4.26879639 6.72610556 4.22869894 6.2656162"></polygon>
                        <polygon id="Fill-186" fill="#FFFFFF" points="31.9376423 6.72644022 31.9289545 6.77463097 31.8487596 7.65612005 31.7846037 8.39102894 30.6625433 20.7191591 29.2745032 35.8764877 28.0388334 49.416749 25.1818899 49.416749 26.1743018 35.8764877 27.2883427 20.7191591 28.2486767 7.64808826 28.3215204 6.72644022"></polygon>
                        <polygon id="Fill-190" fill="#9A71E6" points="31.1381659 20.719293 29.6532236 35.8766216 6.24633591 35.8766216 4.97123693 20.719293"></polygon>
                        <polygon id="Fill-187" fill="#E2E6E9" style="mix-blend-mode: multiply;" points="31.9781407 6.2656162 31.937375 6.72610556 31.9293555 6.77496562 31.8491606 7.65578539 28.2490777 7.6477536 9.57168444 7.61562644 10.2900971 20.7194938 11.1127632 35.8761531 11.8559026 49.4170837 7.76395764 49.4170837 6.65793625 35.8761531 5.41491524 20.7194938 4.26879639 6.72610556 4.22869894 6.2656162"></polygon>
                        <polygon id="Fill-188" fill="#495B77" points="31.9781407 5.10937293 4.0268751 5.10937293 5.59268061 0.558024586 30.8159829 0.558024586"></polygon>
                        <polygon id="Fill-189" fill="#2F3A5B" points="2.81626619 6.72617249 33.2856518 6.72617249 33.2856518 5.1091052 2.81626619 5.1091052"></polygon>
                        <polygon id="Fill-191" fill="#232D47" points="11.0242146 0.558158449 9.47511641 5.10950679 9.47511641 6.72657408 2.81626619 6.72657408 2.81626619 5.10950679 4.02654095 5.10950679 5.59234646 0.558158449"></polygon>
                        <polygon id="Fill-192" fill="#7F8EA3" points="33.2853177 5.10937293 33.2853177 6.72644022 31.937375 6.72644022 31.9293555 6.77463097 28.3212531 6.72644022 28.3212531 5.10937293 26.9980372 0.558024586 30.8159829 0.558024586 31.9781407 5.10937293"></polygon>
                    </g>
                    <g id="Group-97" opacity="0.599283854" transform="translate(280.802779, 281.132591) scale(-1, 1) rotate(-135.000000) translate(-280.802779, -281.132591) translate(75.989399, 89.181887)">
                        <polygon id="Fill-28" fill="#7344C7" opacity="0.300000012" transform="translate(241.782815, 150.504578) rotate(133.000000) translate(-241.782815, -150.504578) " points="244.946524 153.674135 237.977482 152.87107 238.619106 147.33502 245.588148 148.137776"></polygon>
                        <polygon id="Fill-36" stroke="#8156D1" stroke-width="2.96999981" opacity="0.200000003" transform="translate(401.647857, 276.620269) rotate(133.000000) translate(-401.647857, -276.620269) " points="404.758933 281.654698 396.1099 278.716937 398.53678 271.585841 407.185813 274.523601"></polygon>
                        <polygon id="Fill-36" stroke="#7344C7" stroke-width="2.96999981" opacity="0.100000001" transform="translate(399.282805, 7.483962) rotate(226.000000) translate(-399.282805, -7.483962) " points="402.397665 12.5208216 393.746512 9.57645175 396.167944 2.44710248 404.819097 5.39147236"></polygon>
                        <polygon id="Fill-36" stroke="#774ACA" stroke-width="2.96999981" opacity="0.39125279" transform="translate(128.558870, 340.597822) rotate(97.000000) translate(-128.558870, -340.597822) " points="131.67246 345.63142 123.019619 342.692181 125.44528 335.564224 134.098122 338.503463"></polygon>
                        <ellipse id="Oval" stroke="#8156D1" stroke-width="2.96999981" opacity="0.39125279" cx="45.8307042" cy="28.6516157" rx="4.2743662" ry="4.29295111"></ellipse>
                        <ellipse id="Oval" stroke="#774ACA" stroke-width="2.96999981" opacity="0.200000003" cx="292.530235" cy="378.959618" rx="4.2743662" ry="4.29295111"></ellipse>
                        <ellipse id="Oval" stroke="#7344C7" stroke-width="2.96999981" opacity="0.200000003" cx="239.364507" cy="17.363454" rx="3.68070423" ry="3.69883734"></ellipse>
                        <polygon id="Triangle" stroke="#774ACA" stroke-width="2.96999981" opacity="0.342308408" transform="translate(3.678132, 131.658463) rotate(-89.000000) translate(-3.678132, -131.658463) " points="3.63019959 128.057487 8.1339841 135.259319 -0.777720381 135.259438"></polygon>
                    </g>
                </g>
                <g id="Group-95" transform="translate(335.000000, 420.000000)">
                    <path d="M111.816915,39.1223678 C127.403008,39.0179727 145.135582,53.3643814 172.504281,53.1037536 C184.859858,52.9863991 191.646247,46.1222403 195.12366,57.7151378 C198.011546,67.3425274 151.245708,56.9105755 147.988557,58.9549198 C141.50269,63.0252494 126.36,65.9335533 103.126622,64.5969358 C82.70555,63.4219508 52.230861,65.469175 44.174003,65.469175 C20.4212802,65.469175 8.90428504,63.632181 7.81376956,57.5891437 C5.6737679,45.7251789 34.3978737,47.7605236 58.1505965,47.7605236 C81.9033193,47.7605236 106.733241,39.1565662 111.816915,39.1223678" id="Fill-42" fill="#DDE2E9" opacity="0.673814174"></path>
                    <path d="M186.129102,57.5581132 C184.983161,57.561713 183.644671,57.582952 182.162937,57.6149905 C178.732312,57.6758277 174.527529,57.7687033 170.150711,57.6758277 C168.844252,57.647389 167.523397,57.604551 166.202541,57.5365142 C162.307637,57.3439232 158.412734,56.9583813 154.932082,56.236975 C153.975811,56.0404242 153.051213,55.8193945 152.169443,55.5659664 C146.339684,53.9197634 142.220198,51.0524976 142.220198,46.1322478 L150.166565,31.8819546 C150.166565,31.8819546 144.651364,47.1427205 154.300447,49.9707482 C154.950077,50.1597394 155.671329,50.295453 156.467441,50.3634898 C156.874495,50.3987682 157.302783,50.4167673 157.749067,50.4167673 C160.793872,50.4167673 163.453579,50.1741387 165.809884,49.8026361 C167.173208,49.5884461 168.437198,49.3278183 169.607973,49.0491913 C172.178062,48.4422597 174.313025,47.7352528 176.169421,47.1711592 C178.85756,46.3460778 180.956532,45.8212224 182.916221,46.3107994 C187.914237,47.560661 197.909549,57.540114 186.129102,57.5581132" id="Fill-44" fill="#F4B132"></path>
                    <path d="M23.8799778,49.1691737 C23.8799778,49.1691737 16.3834937,49.525917 16.9186741,57.5600211 L34.5238408,57.5600211" id="Fill-46" fill="#F49540"></path>
                    <path d="M147.753395,40.3299313 C144.89754,45.507569 135.312521,57.5724045 127.76241,57.5724045 C127.194839,57.5724045 126.370294,57.5724045 125.352839,57.5688047 C117.474135,57.5547653 63.5051355,57.4831287 63.5051355,57.4831287 L72.3584656,36.2383627 L79.1304587,19.9880031 C79.1376569,19.9311258 85.0851052,17.6067145 90.9429368,13.0111695 L90.9501349,13.0043299 C91.9283597,12.2400856 92.9029854,11.4081645 93.8491786,10.5157663 C100.453096,4.26681868 118.123765,-6.26628847 136.508489,5.33812856 C154.893212,16.9425456 150.60961,35.1526535 147.753395,40.3299313" id="Fill-48" fill="#F4B132"></path>
                    <path d="M122.98984,24.2628391 C122.98984,24.2628391 104.78255,48.5609822 78.1642548,46.3805642 C51.5463196,44.2005062 57.6150562,58.0648975 58.1505965,57.5598411 C58.6861368,57.0547847 105.986436,57.5598411 105.986436,57.5598411 L121.872331,57.5733247 L122.98984,24.2628391 Z" id="Fill-50" fill="#F49540"></path>
                    <path d="M147.753395,40.3299313 C144.89754,45.507569 135.312521,57.5724045 127.76241,57.5724045 C127.194839,57.5724045 126.370294,57.5724045 125.352839,57.5688047 C123.160651,57.5652049 120.079855,57.5580052 116.770878,57.5436059 C108.185318,57.518767 98.0755559,57.4831287 98.0755559,57.4831287 C98.0755559,57.4831287 95.0984126,47.6498288 106.521472,47.6498288 L117.945252,47.6498288 C117.945252,47.6498288 111.337376,34.0817036 125.977276,21.2274251 L136.508489,5.33812856 C141.035028,8.1945949 144.187085,11.4510025 146.325287,14.817925 L146.325287,14.8215248 C146.329246,14.8251247 146.329246,14.8251247 146.329246,14.8287245 C152.8691,25.1264027 149.905993,36.4273539 147.753395,40.3299313" id="Fill-52" fill="#F4B132"></path>
                    <path d="M90.9430808,13.0112775 C80.3765976,23.1196046 79.4912286,40.9189717 79.4912286,40.9189717 L72.3582496,36.2381108 L79.1306027,19.9881111 C79.1374409,19.9312337 85.0852491,17.6068225 90.9430808,13.0112775" id="Fill-54" fill="#F49540"></path>
                    <path d="M78.1414368,25.2443691 C80.0978863,33.5920186 81.176165,43.9789726 75.4532981,51.1631564 C68.7777598,59.5468041 55.4875073,60.0432209 45.8060332,59.5543638 C37.6563195,59.1396632 28.2422557,56.7655743 23.8798339,49.1706496 C14.2415485,32.385355 30.6626242,22.3875428 30.6626242,22.3875428 C30.6662233,22.3663038 30.6701822,22.341465 30.6734214,22.319866 C31.5587904,17.1962257 26.5111074,8.2801629 26.3826209,8.0515736 L26.3790218,8.04797376 C26.3790218,8.04797376 37.4454145,4.9524786 46.2523168,14.1183697 C46.2523168,14.1183697 54.223877,10.7831258 63.0304193,15.5464229 C63.0304193,15.5464229 74.6895774,6.81287155 84.2101734,9.07284581 C78.2306935,19.7420266 78.1414368,25.2443691 78.1414368,25.2443691" id="Fill-56" fill="#F4B132"></path>
                    <path d="M35.6535501,45.1917918 C35.6535501,45.1917918 34.5238048,47.0572245 35.6535501,50.3291114" id="Stroke-58" stroke="#BA5808" stroke-width="0.5"></path>
                    <path d="M58.1504885,43.2776174 C58.1504885,43.2776174 74.1738679,31.8823506 93.134801,35.7791682" id="Stroke-60" stroke="#BA5808" stroke-width="0.5"></path>
                    <path d="M63.5051715,45.2153347 C63.5051715,45.2153347 75.6430046,40.4513176 87.780118,47.7604156" id="Stroke-62" stroke="#BA5808" stroke-width="0.5"></path>
                    <path d="M25.707617,37.8546871 C25.707617,37.8546871 22.0952395,33.1039894 10.3144331,34.0845835" id="Stroke-64" stroke="#BA5808" stroke-width="0.5"></path>
                    <path d="M25.707617,42.6311236 C25.707617,42.6311236 10.8830848,39.545348 0.530745732,45.2154427" id="Stroke-66" stroke="#BA5808" stroke-width="0.5"></path>
                    <path d="M32.8642778,38.4653265 C32.227244,39.6597507 32.8642778,44.824789 35.6535501,45.1919718 C38.225439,45.530356 42.0861518,42.1468743 42.0861518,40.421115 C42.0861518,38.9333046 33.756485,36.7910449 32.8642778,38.4653265" id="Fill-68" fill="#ED7D18"></path>
                    <path d="M30.6735653,22.319866 C31.5589344,17.1962257 26.5112513,8.2801629 26.3824049,8.0515736 C26.5720754,8.13040991 32.6796819,10.7726863 36.1067078,19.3849233 C36.1067078,19.3849233 33.5114249,20.6704232 30.6735653,22.319866" id="Fill-70" fill="#ED7D18"></path>
                    <path d="M84.2103174,9.07288181 C78.2308375,19.7420626 78.1415808,25.2444051 78.1415808,25.2444051 C75.035951,19.6992246 67.699985,18.2243736 67.699985,18.2243736 C72.0728441,9.47642293 84.2103174,9.07288181 84.2103174,9.07288181" id="Fill-72" fill="#ED7D18"></path>
                    <path d="M156.467441,50.3633818 C156.028356,52.8947834 155.489216,54.8016142 154.932082,56.236867 C153.975811,56.0406762 153.051213,55.8192865 152.169443,55.5658584 C153.354613,53.6698271 153.989848,51.727358 154.300447,49.9706402 C154.950077,50.1599913 155.671329,50.295705 156.467441,50.3633818" id="Fill-74" fill="#ED7D18"></path>
                    <path d="M170.150531,57.6758997 C168.844072,57.647461 167.523217,57.604623 166.202361,57.5365862 C166.813122,54.2981777 166.448897,51.7163785 165.809704,49.8027081 C167.173388,49.5885181 168.437018,49.3278903 169.607793,49.0492633 C170.864585,52.1739171 170.718103,55.2262143 170.150531,57.6758997" id="Fill-76" fill="#ED7D18"></path>
                    <path d="M186.129102,57.5581132 C184.983161,57.561713 183.644671,57.582952 182.162937,57.6149905 C181.242297,52.5878257 178.157902,49.0171528 176.169421,47.1711592 C178.85756,46.3460778 180.956532,45.8212224 182.916221,46.3107994 C187.914237,47.560661 197.909549,57.540114 186.129102,57.5581132" id="Fill-78" fill="#FFFFFF"></path>
                    <path d="M147.753395,40.3299313 C144.89754,45.507569 135.312521,57.5724045 127.76241,57.5724045 C127.194839,57.5724045 126.370294,57.5724045 125.352839,57.5688047 C123.160651,57.5652049 111.140147,57.5302865 107.830811,57.5158872 C151.620586,49.9706402 146.575422,15.4500554 146.329246,14.8287245 C152.8691,25.1264027 149.905993,36.4273539 147.753395,40.3299313" id="Fill-80" fill="#F49540"></path>
                </g>
            </g>
        </g>
    </g>
</svg>