<?xml version="1.0" encoding="UTF-8"?>
<svg width="610px" height="515px" viewBox="0 0 610 515" version="1.1" xmlns="http://www.w3.org/2000/svg" xmlns:xlink="http://www.w3.org/1999/xlink">
    <title>Design</title>
    <defs>
        <rect id="path-1" x="0" y="73.7" width="348.15" height="110" rx="5.5"></rect>
        <filter x="-8.9%" y="-18.2%" width="117.8%" height="156.4%" filterUnits="objectBoundingBox" id="filter-2">
            <feOffset dx="0" dy="11" in="SourceAlpha" result="shadowOffsetOuter1"></feOffset>
            <feGaussianBlur stdDeviation="8.5" in="shadowOffsetOuter1" result="shadowBlurOuter1"></feGaussianBlur>
            <feColorMatrix values="0 0 0 0 0.482750607   0 0 0 0 0.316587692   0 0 0 0 0.790151998  0 0 0 1 0" type="matrix" in="shadowBlurOuter1"></feColorMatrix>
        </filter>
        <polygon id="path-3" points="0 0 42.8856492 0 42.8856492 43.8763262 0 43.8763262"></polygon>
        <rect id="path-5" x="0" y="0" width="348.15" height="110" rx="5.5"></rect>
        <filter x="-19.9%" y="-36.7%" width="139.8%" height="226.0%" filterUnits="objectBoundingBox" id="filter-6">
            <feMorphology radius="0.825" operator="dilate" in="SourceAlpha" result="shadowSpreadOuter1"></feMorphology>
            <feOffset dx="0" dy="29" in="shadowSpreadOuter1" result="shadowOffsetOuter1"></feOffset>
            <feGaussianBlur stdDeviation="18" in="shadowOffsetOuter1" result="shadowBlurOuter1"></feGaussianBlur>
            <feComposite in="shadowBlurOuter1" in2="SourceAlpha" operator="out" result="shadowBlurOuter1"></feComposite>
            <feColorMatrix values="0 0 0 0 0.488519387   0 0 0 0 0.540303432   0 0 0 0 0.621678359  0 0 0 0.130406476 0" type="matrix" in="shadowBlurOuter1"></feColorMatrix>
        </filter>
        <path d="M42.885665,21.4138571 C42.885665,33.2274905 33.2853591,42.8043 21.4428062,42.8043 C9.60030588,42.8043 0,33.2274905 0,21.4138571 C0,9.60022381 9.60030588,0.0233619048 21.4428062,0.0233619048 C33.2853591,0.0233619048 42.885665,9.60022381 42.885665,21.4138571" id="path-7"></path>
        <rect id="path-9" x="0" y="0" width="348.15" height="110" rx="5.5"></rect>
        <filter x="-19.9%" y="-36.7%" width="139.8%" height="226.0%" filterUnits="objectBoundingBox" id="filter-10">
            <feMorphology radius="0.825" operator="dilate" in="SourceAlpha" result="shadowSpreadOuter1"></feMorphology>
            <feOffset dx="0" dy="29" in="shadowSpreadOuter1" result="shadowOffsetOuter1"></feOffset>
            <feGaussianBlur stdDeviation="18" in="shadowOffsetOuter1" result="shadowBlurOuter1"></feGaussianBlur>
            <feComposite in="shadowBlurOuter1" in2="SourceAlpha" operator="out" result="shadowBlurOuter1"></feComposite>
            <feColorMatrix values="0 0 0 0 0.488519387   0 0 0 0 0.540303432   0 0 0 0 0.621678359  0 0 0 0.130406476 0" type="matrix" in="shadowBlurOuter1"></feColorMatrix>
        </filter>
        <path d="M42.885665,21.4138571 C42.885665,33.2274905 33.2853591,42.8043 21.4428062,42.8043 C9.60030588,42.8043 0,33.2274905 0,21.4138571 C0,9.60022381 9.60030588,0.0233619048 21.4428062,0.0233619048 C33.2853591,0.0233619048 42.885665,9.60022381 42.885665,21.4138571" id="path-11"></path>
    </defs>
    <g id="Designs" stroke="none" stroke-width="1" fill="none" fill-rule="evenodd">
        <g id="Team-Page" transform="translate(-6477.000000, -1948.000000)">
            <g id="Design" transform="translate(6477.000000, 1948.000000)">
                <path d="M192.195821,31.6371764 C17.6139242,-77.448999 -17.1906458,127.409562 10.06596,236.860414 C44.0373578,373.274994 -42.8283142,435.904342 39.003918,478.656688 C123.931,523.025904 190.590042,296.20995 397.713573,357.913543 C647.091437,432.205007 656.269077,118.20634 381.005935,114.824034 C311.717404,113.972649 266.738909,78.2148599 192.195821,31.6371764 Z" id="Combined-Shape" fill="#9169DB"></path>
                <g id="Message-1" transform="translate(128.150000, 122.650000)">
                    <g id="Rectangle-20">
                        <use fill="black" fill-opacity="1" filter="url(#filter-2)" xlink:href="#path-1"></use>
                        <use fill="#FFFFFF" fill-rule="evenodd" xlink:href="#path-1"></use>
                    </g>
                    <path d="M360.25,126.5 L387.75,126.5 L387.75,189.414844" id="Path-2" stroke="#FFFFFF" stroke-width="1.65" stroke-linecap="round" stroke-linejoin="bevel" stroke-dasharray="0.55,8.25"></path>
                    <path d="M26.4,0 L53.9,0 L53.9,62.9148438" id="Path-2" stroke="#FFFFFF" stroke-width="1.65" stroke-linecap="round" stroke-linejoin="bevel" stroke-dasharray="0.55,8.25" transform="translate(40.150000, 31.457422) scale(1, -1) rotate(-180.000000) translate(-40.150000, -31.457422) "></path>
                    <text id="Reply" font-family="Helvetica" font-size="8.8" font-weight="normal" line-spacing="16.72" fill="#192646">
                        <tspan x="301.95" y="159.7">Reply</tspan>
                    </text>
                    <text id="26-minutes-ago" font-family="Helvetica" font-size="8.8" font-weight="normal" line-spacing="16.72" fill="#192646">
                        <tspan x="91.85" y="159.7">26 minutes ago</tspan>
                    </text>
                    <path d="M291.5,158.4 C294.36,158.4 295.9,160.49 295.9,163.9 C295.075,162.58 294.415,161.7 291.5,161.7 L291.5,163.9 L287.1,160.05 L291.5,156.2 L291.5,158.4 Z" id="Shape" fill="#42B793" fill-rule="nonzero"></path>
                    <g id="User" transform="translate(22.000000, 106.700000)">
                        <g id="Group-3" transform="translate(0.000000, 0.025249)">
                            <mask id="mask-4" fill="white">
                                <use xlink:href="#path-3"></use>
                            </mask>
                            <g id="Clip-2"></g>
                            <path d="M42.885665,21.9382034 C42.885665,34.0543273 33.2853591,43.8763531 21.4428588,43.8763531 C9.60030588,43.8763531 0,34.0543273 0,21.9382034 C0,9.82207949 9.60030588,0 21.4428588,0 C33.2853591,0 42.885665,9.82207949 42.885665,21.9382034" id="Fill-1" fill="#F3F1F8" mask="url(#mask-4)"></path>
                        </g>
                        <path d="M25.4581269,24.1707477 C25.3475951,24.2742167 25.2393736,24.3897731 25.1370332,24.5124745 C25.1123539,24.5413771 25.0805859,24.6857823 25.0464549,24.9071714 C24.9900075,25.2633494 24.9253687,25.8192665 24.872387,26.4113386 C24.766581,27.5760892 24.7030449,28.8864805 24.8206654,29.1102871 L19.6256697,29.1102871 C19.6727179,28.4942549 19.5904361,27.3727507 19.4821621,26.4377699 C19.3915838,25.6544469 19.2834149,25.0034415 19.2175159,24.893902 C19.2139977,24.8879388 19.2104796,24.8819219 19.2069615,24.8758513 C18.9964522,24.5256902 18.8341463,24.3452374 18.8341463,24.3452374 L25.4581269,24.1707477 Z" id="Fill-7" fill="#E5B6AA"></path>
                        <path d="M15.7081174,19.2950461 C14.0610619,18.9412319 14.2326619,18.624271 13.6848862,15.9458981 C13.1371629,13.2675252 15.4977656,15.164133 15.4977656,15.164133 L15.7081174,19.2950461 Z" id="Fill-10" fill="#E5B6AA"></path>
                        <path d="M28.2512195,19.2950261 C29.898275,18.9412119 29.726675,18.624251 30.2744507,15.9458781 C30.822174,13.2675052 28.4615188,15.1641667 28.4615188,15.1641667 L28.2512195,19.2950261 Z" id="Fill-13" fill="#E5B6AA"></path>
                        <path d="M29.176202,15.4241889 C29.0950753,16.7345265 28.6022767,21.44897 27.1956083,23.6859077 C26.9921352,24.0117864 26.1171222,24.5567979 25.075025,25.0041425 C25.0185777,25.3402822 24.9538863,25.8648255 24.9009571,26.4234824 C24.8597374,26.4405661 24.8186752,26.4564141 24.7763003,26.4734441 C23.8977167,26.8243573 22.9379539,27.0877572 22.174628,27.0877572 C21.3937114,27.0877572 20.4058037,26.8129682 19.5106797,26.4484633 C19.4201539,25.7092998 19.3119325,25.0949867 19.246086,24.991679 C18.2145957,24.5477189 17.3537076,24.0083482 17.1513898,23.6859077 C15.7459291,21.44897 15.2531304,16.7345265 15.1719512,15.4241889 C15.4553958,11.0105896 18.4828125,7.53718224 22.174628,7.53718224 C25.8653932,7.53718224 28.8927575,11.0105896 29.176202,15.4241889" id="Fill-16" fill="#000000" opacity="0.218805804" style="mix-blend-mode: multiply;"></path>
                        <path d="M29.2185769,15.4752787 C29.2185769,15.631073 29.2138511,15.7889625 29.2056072,15.9479264 L29.2056072,15.9542656 C29.2032442,15.9953094 29.2008813,16.0426923 29.1973632,16.0963608 C29.1162365,17.3111267 28.6234379,21.6817481 27.2167695,23.7554779 C27.0132964,24.0575577 26.1382834,24.5628685 25.0961862,24.9776038 C24.1411493,25.3586552 23.0462278,25.6618094 22.1957892,25.6618094 C21.3372641,25.6618094 20.2282177,25.3533904 19.2672472,24.9660535 C18.2357568,24.5544342 17.3748688,24.0544419 17.172551,23.7554779 C15.7670903,21.6817481 15.2742916,17.3111267 15.1931649,16.0963608 C15.1895943,16.0426923 15.1872314,15.9953094 15.1848685,15.9542656 L15.1848685,15.9479264 C15.176677,15.7889625 15.1719512,15.631073 15.1719512,15.4752787 C15.1719512,11.090958 18.3169886,7.53718224 22.1957892,7.53718224 C26.0735396,7.53718224 29.2185769,11.090958 29.2185769,15.4752787" id="Fill-19" fill="#E5B6AA"></path>
                        <path d="M35.2969091,31.4582801 L34.9463578,38.8946114 L8.95840944,39.0606667 L8.37613514,31.4603216 C8.30939597,30.5920637 8.86672841,29.7942357 9.72446586,29.5334145 C11.1931476,29.087413 13.703664,28.4489249 17.0203539,28.128096 C17.5594656,28.0763616 18.1198436,28.0318796 18.7004376,27.9987868 C19.0999799,27.9749341 19.5106542,27.957367 19.9293624,27.9449571 C20.9924633,27.9139057 22.1152146,27.9211582 23.2915777,27.9770293 C23.8670783,28.0028696 24.4558113,28.0411736 25.0565688,28.0939287 C25.4652477,28.128096 25.8799652,28.1695158 26.3007213,28.2171137 C28.4632594,28.4613347 30.7725081,28.8773593 33.2011102,29.5241206 C34.0709772,29.7548573 35.3383913,30.584865 35.2969091,31.4582801" id="Fill-22" fill="#E5B6AA"></path>
                        <path d="M35.2969091,31.3862075 L34.970302,38.3138972 L8.9290568,38.6053938 L8.37613514,31.388249 C8.30939597,30.5199911 8.86672841,29.7221631 9.72446586,29.4613419 C11.1931476,29.0153404 13.703664,28.3768523 17.0203539,28.0560234 C17.5594656,28.004289 18.1198436,27.959807 18.7004376,27.9267142 C19.7999273,28.904619 21.9735973,30.8294309 21.9735973,30.8294309 L25.0565688,28.0218561 C25.4652477,28.0560234 25.8799652,28.0974432 26.3007213,28.1450411 C28.4632594,28.3892621 30.7725081,28.8052866 33.2011102,29.4520479 C34.0709772,29.6827847 35.3383913,30.5127923 35.2969091,31.3862075" id="Fill-25" fill="#9068DB"></path>
                        <path d="M17.587118,9.86747866 C17.587118,9.86747866 15.3197191,10.5110166 15.673736,17.10348 L14.7736762,16.2879236 C14.7736762,16.2879236 12.6904795,10.6338255 14.0806075,8.07374886 L17.587118,9.86747866 Z" id="Fill-28" fill="#1E283F"></path>
                        <path d="M13.9250518,5.68466247 C13.9250518,5.68466247 10.7894661,11.11764 14.009329,13.2908096 C15.1120218,14.0350766 20.8200322,15.7744933 26.1471935,9.91028781 C26.1471935,9.91028781 28.4145924,10.5538795 28.060628,17.1463428 L28.9606354,16.3307327 C28.9606354,16.3307327 31.0438321,10.6766347 29.653704,8.11655802 C24.8491141,-0.731430944 14.3093665,6.70387963 14.3093665,6.70387963 L13.9250518,5.68466247 Z" id="Fill-31" fill="#2F3A5B"></path>
                        <path d="M33.6436933,54.6682948 L10.905013,54.6682948 C9.22340651,54.6682948 7.84756098,53.2606663 7.84756098,51.5402135 L7.84756098,35.3473284 C7.84756098,33.6268757 9.22340651,32.2192472 10.905013,32.2192472 L33.6436933,32.2192472 C35.3252998,32.2192472 36.7011453,33.6268757 36.7011453,35.3473284 L36.7011453,51.5402135 C36.7011453,53.2606663 35.3252998,54.6682948 33.6436933,54.6682948" id="Fill-34" fill="#F7F7F7"></path>
                        <path d="M22.898663,39.1288889 C22.898663,39.981621 22.2230273,40.6728643 21.3895491,40.6728643 C20.5561234,40.6728643 19.8804878,39.981621 19.8804878,39.1288889 C19.8804878,38.2761567 20.5561234,37.5849135 21.3895491,37.5849135 C22.2230273,37.5849135 22.898663,38.2761567 22.898663,39.1288889" id="Fill-37" fill="#FFFFFF"></path>
                    </g>
                </g>
                <g id="Message-2" transform="translate(194.150000, 323.950000)">
                    <g id="Rectangle-20">
                        <use fill="black" fill-opacity="1" filter="url(#filter-6)" xlink:href="#path-5"></use>
                        <rect stroke-opacity="0.104959239" stroke="#C9D1DB" stroke-width="0.825" fill="#FFFFFF" fill-rule="evenodd" x="-0.4125" y="-0.4125" width="348.975" height="110.825" rx="5.5"></rect>
                    </g>
                    <text id="Reply" font-family="Helvetica" font-size="8.8" font-weight="normal" line-spacing="16.72" fill="#192646">
                        <tspan x="301.95" y="86">Reply</tspan>
                    </text>
                    <text id="26-minutes-ago" font-family="Helvetica" font-size="8.8" font-weight="normal" line-spacing="16.72" fill="#192646">
                        <tspan x="91.85" y="86">26 minutes ago</tspan>
                    </text>
                    <path d="M291.5,84.7 C294.36,84.7 295.9,86.79 295.9,90.2 C295.075,88.88 294.415,88 291.5,88 L291.5,90.2 L287.1,86.35 L291.5,82.5 L291.5,84.7 Z" id="Shape" fill="#D9D6E2" fill-rule="nonzero"></path>
                    <g id="User" transform="translate(22.000000, 33.550000)">
                        <mask id="mask-8" fill="white">
                            <use xlink:href="#path-7"></use>
                        </mask>
                        <use id="Fill-1" fill="#F3F1F8" xlink:href="#path-7"></use>
                        <path d="M21.6186383,3.1661431 C21.6186383,3.1661431 8.13575119,2.2971431 14.0611496,27.3297907 L30.4025315,27.3297907 C30.4025315,27.3297907 38.4499834,2.81403834 21.6186383,3.1661431" id="Fill-4" fill="#2F3A5B" mask="url(#mask-8)"></path>
                        <path d="M25.102399,22.5197034 C25.0065172,22.6071796 24.9126833,22.7049224 24.8239428,22.8086891 C24.5097804,23.1720034 24.2465518,23.6125796 24.0803078,23.9646843 C24.0354124,24.0593367 23.9936151,24.1549843 23.9569112,24.2495843 C23.4601218,25.5043177 24.3584746,26.6969272 24.3584746,26.6969272 L19.6806686,26.6969272 C19.7551791,25.739351 20.4171624,24.9405415 20.2213556,24.3147462 C20.180556,24.1834796 20.1367108,24.0603319 20.0918155,23.9443081 C19.9571294,23.5993796 19.8082134,23.3225986 19.6806686,23.1160081 C19.4980942,22.8198986 19.3573171,22.6672605 19.3573171,22.6672605 L25.102399,22.5197034 Z" id="Fill-7" fill="#F4C5BE" mask="url(#mask-8)"></path>
                        <path d="M27.7280488,18.0732781 C29.187699,18.080559 28.7888917,17.37614 29.731064,15.2615209 C30.6731312,13.1469542 28.6431263,14.6964352 28.6431263,14.6964352 L27.7280488,18.0732781 Z" id="Fill-10" fill="#F4C5BE" mask="url(#mask-8)"></path>
                        <path d="M16.378021,18.0732781 C14.9183708,18.080559 15.317178,17.37614 14.3750583,15.2615209 C13.4329386,13.1469542 15.462996,14.6964352 15.462996,14.6964352 L16.378021,18.0732781 Z" id="Fill-13" fill="#F4C5BE" mask="url(#mask-8)"></path>
                        <path d="M29.181663,14.5624426 L29.181663,14.5685712 C29.024608,17.6253664 27.3404811,21.2449426 24.9810336,22.9575379 C24.6668712,23.3208521 24.4036427,23.7614283 24.2373986,24.1135331 C24.1924507,24.2081855 24.1506534,24.3038331 24.1139495,24.3984331 C23.4988045,24.7006712 22.8490034,24.8685521 22.1768333,24.8685521 C21.5555972,24.8685521 20.9526868,24.7240855 20.3784464,24.4635426 C20.3375943,24.3323283 20.2937491,24.2091807 20.2489063,24.0931569 L20.2489063,24.0921617 C20.1141677,23.7482283 19.9652517,23.4714474 19.8377594,23.2648569 C19.7796318,23.2302855 19.7225018,23.1946141 19.6653718,23.1579998 C18.4086171,22.3490283 17.3263504,20.9966569 16.5368223,19.4489045 C15.7492897,17.9021474 15.2546007,16.1600617 15.1719512,14.5685712 L15.1719512,14.5624426 C15.3892342,10.5378569 18.442328,7.34775215 22.1768333,7.34775215 C25.9113387,7.34775215 28.9644325,10.5378569 29.181663,14.5624426" id="Fill-16" fill="#000000" opacity="0.218805804" style="mix-blend-mode: multiply;" mask="url(#mask-8)"></path>
                        <path d="M29.2061848,13.9750631 C29.2061848,14.1256583 29.2021415,14.2782964 29.1939501,14.4319821 L29.1939501,14.4380583 C29.0368427,17.4949059 27.3527157,21.1144297 24.9933207,22.8270774 C24.968799,22.8443631 24.9432795,22.8626964 24.9188102,22.8799821 C24.8464001,22.9318916 24.7739374,22.9807107 24.7005296,23.0275393 C23.9211883,23.5302393 23.0745303,23.8222631 22.189068,23.8222631 C21.3689271,23.8222631 20.5824971,23.5709393 19.8499941,23.134344 C19.7918664,23.0997726 19.7347889,23.0641535 19.6776589,23.0275393 C18.4209042,22.2185154 17.3386375,20.8661964 16.549057,19.3183916 C15.7615768,17.7716869 15.2668353,16.0296012 15.1841859,14.4380583 L15.1841859,14.4319821 C15.1760469,14.2782964 15.1719512,14.1256583 15.1719512,13.9750631 C15.1719512,9.73681545 18.3137855,6.30141069 22.189068,6.30141069 C26.064403,6.30141069 29.2061848,9.73681545 29.2061848,13.9750631" id="Fill-19" fill="#F4C5BE" mask="url(#mask-8)"></path>
                        <path d="M30.5760037,39.6222889 L13.6059294,39.6222889 C11.7320868,37.1556698 9.72660371,27.9413889 11.9973107,26.9848603 C12.5726013,26.7426508 13.4396854,26.5717317 14.412838,26.4526698 L14.4138882,26.4526698 C14.8056066,26.404846 15.2156508,26.3651412 15.6297907,26.3326127 C16.5581005,26.2582841 17.5128749,26.219627 18.359533,26.2002984 C19.2847447,26.178927 20.0793661,26.1809698 20.5670189,26.1850555 C20.7526388,26.187046 20.893416,26.1890889 20.9801086,26.1911317 L23.2018245,26.1911317 C23.2946607,26.1890889 23.4507705,26.187046 23.6588644,26.1850555 C24.1301343,26.1799746 24.8666281,26.178927 25.721425,26.1982555 C26.5487596,26.2165889 27.4882014,26.2522079 28.4072696,26.3214031 C29.2896863,26.3875079 30.1547226,26.4842031 30.8871206,26.6246365 C31.3971948,26.722327 31.841895,26.8403412 32.1846749,26.9848603 C34.4553819,27.9413889 32.4498988,37.1556698 30.5760037,39.6222889" id="Fill-22" fill="#F4C5BE" mask="url(#mask-8)"></path>
                        <path d="M15.1855599,43.3939128 C11.6338983,39.2644068 10.0074721,27.6706699 12.2781266,26.714089 C12.8534697,26.4719318 13.7205537,26.3009604 14.6937064,26.1818985 C14.8088257,26.2360435 19.675233,30.0165731 27.6305085,27.6305085 C28.2025072,27.4589461 30.5846588,26.5854005 31.167989,26.3538652 C31.6780107,26.451608 32.1227634,26.5696223 32.4654908,26.714089 C34.7362503,27.6706699 32.0615902,39.8950747 29.2962993,43.3939128 L15.1855599,43.3939128 Z" id="Fill-25" fill="#9068DB" mask="url(#mask-8)"></path>
                        <path d="M22.5455641,8.51315507 C22.5455641,8.51315507 28.5022054,9.56297412 29.0122271,14.4632122 C29.0122271,14.4632122 29.4573999,10.714936 27.8499889,8.30965507 C25.6057991,4.95156459 22.0355424,4.84984078 22.5455641,8.51315507" id="Fill-28" fill="#212B44" mask="url(#mask-8)"></path>
                        <path d="M26.7662059,7.94607933 C26.7662059,7.94607933 26.2927306,11.6645508 21.2943818,11.8681031 C19.0497719,11.9594555 15.7234204,12.8211222 15.4433364,15.6797603 C15.4433364,15.6797603 13.3011719,5.809146 21.0537847,5.30036981 C22.5219939,5.20398885 26.7662059,4.99509362 26.7662059,7.94607933" id="Fill-31" fill="#2A3551" mask="url(#mask-8)"></path>
                        <polygon id="Fill-34" fill="#1E283F" mask="url(#mask-8)" points="25.7819433 13.4324513 25.7819433 21.3283561 13.602439 21.3283561 13.602439 13.4324513 18.0105847 13.4324513 19.4293827 11.533118 22.9165174 11.533118 24.207193 13.4324513"></polygon>
                        <path d="M24.2959194,17.1341621 C24.2959194,18.7828526 22.9561477,20.1193526 21.3034213,20.1193526 C19.6507473,20.1193526 18.3109756,18.7828526 18.3109756,17.1341621 C18.3109756,15.4854717 19.6507473,14.1489717 21.3034213,14.1489717 C22.9561477,14.1489717 24.2959194,15.4854717 24.2959194,17.1341621" id="Fill-37" fill="#2F3A5B" mask="url(#mask-8)"></path>
                        <path d="M23.3510385,17.4482179 C23.3510385,18.692475 22.3398692,19.7011226 21.0925662,19.7011226 C19.8453156,19.7011226 18.8341463,18.692475 18.8341463,17.4482179 C18.8341463,16.2039607 19.8453156,15.1953131 21.0925662,15.1953131 C22.3398692,15.1953131 23.3510385,16.2039607 23.3510385,17.4482179" id="Fill-40" fill="#1E283F" mask="url(#mask-8)"></path>
                        <path d="M23.4346024,17.2287417 C23.4346024,18.3517893 22.5219928,19.2621703 21.3957234,19.2621703 C20.5261189,19.2621703 19.7841642,18.7195036 19.491163,17.9547417 C19.4045228,17.7295036 19.3573171,17.4843607 19.3573171,17.2287417 C19.3573171,16.1056941 20.2698741,15.1953131 21.3957234,15.1953131 C21.8231482,15.1953131 22.2200651,15.3262655 22.5477223,15.5509798 C23.0833685,15.9171226 23.4346024,16.532075 23.4346024,17.2287417" id="Fill-43" fill="#2F3A5B" mask="url(#mask-8)"></path>
                        <path d="M22.6816733,16.2769798 C22.6816733,17.4000274 21.7690637,18.3104084 20.6433194,18.3104084 C20.2158947,18.3104084 19.8188728,18.1789322 19.4912155,17.9547417 C19.4045753,17.7295036 19.3573171,17.4843607 19.3573171,17.2287417 C19.3573171,16.1056941 20.2699266,15.1953131 21.3957759,15.1953131 C21.8231482,15.1953131 22.2201176,15.3262655 22.5477748,15.5509798 C22.6344675,15.7767417 22.6816733,16.0213607 22.6816733,16.2769798" id="Fill-46" fill="#FFFFFF" mask="url(#mask-8)"></path>
                        <path d="M21.3507448,16.4518172 C21.3507448,16.8568267 21.0216173,17.1851505 20.6156163,17.1851505 C20.2096679,17.1851505 19.8804878,16.8568267 19.8804878,16.4518172 C19.8804878,16.0468077 20.2096679,15.7184839 20.6156163,15.7184839 C21.0216173,15.7184839 21.3507448,16.0468077 21.3507448,16.4518172" id="Fill-49" fill="#FFFFFF" mask="url(#mask-8)"></path>
                        <path d="M22.7367986,18.1085334 C22.7367986,18.3649863 22.528428,18.5729299 22.2712653,18.5729299 C22.0141027,18.5729299 21.8057321,18.3649863 21.8057321,18.1085334 C21.8057321,17.8520806 22.0141027,17.644137 22.2712653,17.644137 C22.528428,17.644137 22.7367986,17.8520806 22.7367986,18.1085334" id="Fill-52" fill="#FFFFFF" mask="url(#mask-8)"></path>
                        <path d="M14.1675957,16.9502878 C14.1727941,16.5586878 14.3718039,16.1947973 14.7027168,15.970345 C15.5901219,15.3685402 17.0008335,14.6363069 17.3780595,15.8530116 C17.7344393,17.0025116 17.615401,18.8940926 17.3140508,20.0903688 C17.1842481,20.6057973 16.7246353,20.9793259 16.1755993,21.0148926 L15.190002,21.0786926 C14.6103006,21.1162497 14.1182371,20.6661926 14.1256934,20.1052973 L14.1675957,16.9502878 Z" id="Fill-55" fill="#121826" mask="url(#mask-8)"></path>
                        <path d="M13.9343412,15.7184839 L13.602439,15.8654931 C13.7106106,15.8098396 13.8219483,15.7599615 13.9343412,15.7184839" id="Fill-58" fill="#FCD1C3" mask="url(#mask-8)"></path>
                        <path d="M29.9991627,26.3226808 L25.3757294,26.8690141 L22.3559265,21.814776 C20.4887,22.1578712 18.9149999,21.141157 18.0827819,20.2375855 C17.6080989,19.7226808 17.7881529,19.3664903 18.0533242,19.1480617 C18.2780635,18.9626332 18.5642386,18.8767284 18.5642386,18.8767284 C19.0977318,19.6959665 20.0229436,20.2375855 21.0752276,20.2375855 C22.727744,20.2375855 24.0677257,18.9008236 24.0677257,17.2523951 C24.0677257,16.5698712 23.8382606,15.940776 23.4523181,15.4384427 C23.4623474,15.4342522 23.6923376,15.2739665 24.0036645,15.2158236 C24.4095605,15.1403951 24.9535556,15.2393951 25.3232202,16.0900617 C26.020017,17.6944903 25.6981883,19.1470141 24.9809129,20.1689665 L27.0986081,22.7660141 L29.9991627,26.3226808 Z" id="Fill-61" fill="#F4C5BE" mask="url(#mask-8)"></path>
                        <path d="M24.902453,17.2318846 C24.902453,19.1982655 23.304126,20.7927417 21.3328789,20.7927417 C20.0595313,20.7927417 18.942661,20.1280274 18.3109756,19.1275512 C18.5357149,18.9421226 18.8218899,18.8562179 18.8218899,18.8562179 C19.3553832,19.675456 20.2805949,20.217075 21.3328789,20.217075 C22.9853428,20.217075 24.3253771,18.8803131 24.3253771,17.2318846 C24.3253771,16.5493607 24.095912,15.9202655 23.7099695,15.4179322 C23.7199462,15.4137417 23.9499364,15.253456 24.2613159,15.1953131 C24.6656366,15.7725512 24.902453,16.474456 24.902453,17.2318846" id="Fill-64" fill="#D6A8A3" mask="url(#mask-8)"></path>
                        <path d="M16.8408006,19.7853445 C16.7142535,20.3546207 16.2705509,20.7692683 15.7423085,20.8105445 L13.8698312,20.8872826 L13.9953281,23.0225921 L14.2069401,26.6297016 C14.2263685,28.0776159 10.9589323,26.9802873 10.9867621,25.8114588 L11.3084334,23.0225921 L11.6596148,16.8730159 C11.6788331,16.5363111 11.8857193,16.2388397 12.1951034,16.1030159 L14.7173293,14.995473 L15.0476121,14.8326207 C15.0491874,14.8314683 15.0507626,14.8308921 15.0523379,14.8308921 L15.0523379,14.8303159 C15.7942926,14.5250397 16.5903318,14.6006254 16.8586537,15.6042969 C17.197863,16.8719683 17.134852,18.4635635 16.8408006,19.7853445" id="Fill-67" fill="#FCD1C3" mask="url(#mask-8)"></path>
                        <path d="M14.1355098,15.7184839 L14.1355098,15.7195839 C14.1322098,15.7195839 14.1289098,15.7206839 14.1256098,15.7228839 L14.1355098,15.7184839 Z" id="Fill-70" fill="#FCD1C3" mask="url(#mask-8)"></path>
                        <path d="M34.5163574,33.6295884 C34.5064332,33.6458265 34.4954063,33.6620646 34.4838543,33.6777789 L32.8224113,36.0113503 C32.3378041,36.6923027 31.3495813,36.7609217 30.7745533,36.1533027 L24.5890244,25.8023027 L27.2669492,22.9042373 L30.5389831,26.5398305 L31.629661,27.2669492 L32.4356812,27.4464884 C32.4356812,27.4464884 36.0385986,31.2347312 34.54529,33.584017 C34.5363634,33.5992074 34.5263867,33.6143979 34.5163574,33.6295884 Z" id="Fill-73" fill="#9068DB" mask="url(#mask-8)"></path>
                        <polygon id="Fill-76" fill="#000000" mask="url(#mask-8)" points="24.9486832 26.2579659 24.9465861 26.2579659 24.5890244 25.6587278"></polygon>
                        <path d="M32.1832478,36.3333271 C32.0314963,36.8099937 31.8702931,37.263089 31.7033139,37.681089 C30.1926248,37.2866604 26.7417215,31.1905652 25.0451499,28.0388033 C24.4459676,26.9272794 24.0658537,26.1818985 24.0658537,26.1818985 L25.160145,26.186089 L26.1876971,27.9052318 L30.9875612,35.9378509 C31.3100201,36.2788509 31.7625967,36.4066604 32.1832478,36.3333271" id="Fill-79" fill="#000000" opacity="0.218805804" style="mix-blend-mode: multiply;" mask="url(#mask-8)"></path>
                        <path d="M13.0836683,26.7633692 L13.0825683,26.7633692 C13.0814683,26.7446692 13.0803683,26.7259692 13.0792683,26.7050692 L13.0836683,26.7633692 Z" id="Fill-82" fill="#FCD1C3" mask="url(#mask-8)"></path>
                        <path d="M13.7823972,37.0860925 L11.4641169,37.5386639 C10.4102576,37.6119972 9.91352077,36.6010448 9.94135064,35.5481877 L11.4264678,23.5660448 L14.1876105,23.5660448 L14.9008427,34.8860925 C14.9202711,36.1903782 15.0872503,36.9949496 13.7823972,37.0860925" id="Fill-85" fill="#9068DB" mask="url(#mask-8)"></path>
                        <path d="M12.9777463,38.0414699 C12.833346,37.7266604 12.6920963,37.3825175 12.5560976,37.0158509 L13.8866802,36.7560413 C15.1915333,36.6648985 15.0245541,35.8603271 15.0051257,34.5560413 L14.4779335,26.188708 C14.4952616,26.186089 14.5125896,26.1839937 14.5299176,26.1818985 L14.5309678,26.1818985 C14.5540719,26.1934223 14.8554745,26.3338033 15.3879176,26.5286604 C15.6553994,30.1111509 16.5480555,36.746089 15.550381,37.4108033 C15.1392867,37.6846509 13.9225965,37.8984699 12.9777463,38.0414699" id="Fill-88" fill="#000000" opacity="0.218805804" style="mix-blend-mode: multiply;" mask="url(#mask-8)"></path>
                        <path d="M23.3079285,23.752981 C23.1950337,23.7917429 23.0815614,23.8263143 22.9671439,23.8561714 L22.1490509,22.4408381 C20.5658466,22.850981 19.358713,21.9662667 18.8341463,21.4733619 L19.2458183,21.4733619 C20.0754108,21.9646952 21.1308979,22.284219 22.3018526,22.0689333 L23.3079285,23.752981 Z" id="Fill-91" fill="#D6A8A3" mask="url(#mask-8)"></path>
                    </g>
                </g>
                <g id="Message-2" transform="translate(194.150000, 68.750000)">
                    <g id="Rectangle-20">
                        <use fill="black" fill-opacity="1" filter="url(#filter-10)" xlink:href="#path-9"></use>
                        <rect stroke-opacity="0.104959239" stroke="#C9D1DB" stroke-width="0.825" fill="#FFFFFF" fill-rule="evenodd" x="-0.4125" y="-0.4125" width="348.975" height="110.825" rx="5.5"></rect>
                    </g>
                    <text id="Reply" font-family="Helvetica" font-size="8.8" font-weight="normal" line-spacing="16.72" fill="#192646">
                        <tspan x="301.95" y="86">Reply</tspan>
                    </text>
                    <text id="26-minutes-ago" font-family="Helvetica" font-size="8.8" font-weight="normal" line-spacing="16.72" fill="#192646">
                        <tspan x="91.85" y="86">26 minutes ago</tspan>
                    </text>
                    <path d="M291.5,84.7 C294.36,84.7 295.9,86.79 295.9,90.2 C295.075,88.88 294.415,88 291.5,88 L291.5,90.2 L287.1,86.35 L291.5,82.5 L291.5,84.7 Z" id="Shape" fill="#D9D6E2" fill-rule="nonzero"></path>
                    <g id="User" transform="translate(22.000000, 33.550000)">
                        <mask id="mask-12" fill="white">
                            <use xlink:href="#path-11"></use>
                        </mask>
                        <use id="Fill-1" fill="#F3F1F8" xlink:href="#path-11"></use>
                        <path d="M21.6186383,3.1661431 C21.6186383,3.1661431 8.13575119,2.2971431 14.0611496,27.3297907 L30.4025315,27.3297907 C30.4025315,27.3297907 38.4499834,2.81403834 21.6186383,3.1661431" id="Fill-4" fill="#2F3A5B" mask="url(#mask-12)"></path>
                        <path d="M25.102399,22.5197034 C25.0065172,22.6071796 24.9126833,22.7049224 24.8239428,22.8086891 C24.5097804,23.1720034 24.2465518,23.6125796 24.0803078,23.9646843 C24.0354124,24.0593367 23.9936151,24.1549843 23.9569112,24.2495843 C23.4601218,25.5043177 24.3584746,26.6969272 24.3584746,26.6969272 L19.6806686,26.6969272 C19.7551791,25.739351 20.4171624,24.9405415 20.2213556,24.3147462 C20.180556,24.1834796 20.1367108,24.0603319 20.0918155,23.9443081 C19.9571294,23.5993796 19.8082134,23.3225986 19.6806686,23.1160081 C19.4980942,22.8198986 19.3573171,22.6672605 19.3573171,22.6672605 L25.102399,22.5197034 Z" id="Fill-7" fill="#F4C5BE" mask="url(#mask-12)"></path>
                        <path d="M27.7280488,18.0732781 C29.187699,18.080559 28.7888917,17.37614 29.731064,15.2615209 C30.6731312,13.1469542 28.6431263,14.6964352 28.6431263,14.6964352 L27.7280488,18.0732781 Z" id="Fill-10" fill="#F4C5BE" mask="url(#mask-12)"></path>
                        <path d="M16.378021,18.0732781 C14.9183708,18.080559 15.317178,17.37614 14.3750583,15.2615209 C13.4329386,13.1469542 15.462996,14.6964352 15.462996,14.6964352 L16.378021,18.0732781 Z" id="Fill-13" fill="#F4C5BE" mask="url(#mask-12)"></path>
                        <path d="M29.181663,14.5624426 L29.181663,14.5685712 C29.024608,17.6253664 27.3404811,21.2449426 24.9810336,22.9575379 C24.6668712,23.3208521 24.4036427,23.7614283 24.2373986,24.1135331 C24.1924507,24.2081855 24.1506534,24.3038331 24.1139495,24.3984331 C23.4988045,24.7006712 22.8490034,24.8685521 22.1768333,24.8685521 C21.5555972,24.8685521 20.9526868,24.7240855 20.3784464,24.4635426 C20.3375943,24.3323283 20.2937491,24.2091807 20.2489063,24.0931569 L20.2489063,24.0921617 C20.1141677,23.7482283 19.9652517,23.4714474 19.8377594,23.2648569 C19.7796318,23.2302855 19.7225018,23.1946141 19.6653718,23.1579998 C18.4086171,22.3490283 17.3263504,20.9966569 16.5368223,19.4489045 C15.7492897,17.9021474 15.2546007,16.1600617 15.1719512,14.5685712 L15.1719512,14.5624426 C15.3892342,10.5378569 18.442328,7.34775215 22.1768333,7.34775215 C25.9113387,7.34775215 28.9644325,10.5378569 29.181663,14.5624426" id="Fill-16" fill="#000000" opacity="0.218805804" style="mix-blend-mode: multiply;" mask="url(#mask-12)"></path>
                        <path d="M29.2061848,13.9750631 C29.2061848,14.1256583 29.2021415,14.2782964 29.1939501,14.4319821 L29.1939501,14.4380583 C29.0368427,17.4949059 27.3527157,21.1144297 24.9933207,22.8270774 C24.968799,22.8443631 24.9432795,22.8626964 24.9188102,22.8799821 C24.8464001,22.9318916 24.7739374,22.9807107 24.7005296,23.0275393 C23.9211883,23.5302393 23.0745303,23.8222631 22.189068,23.8222631 C21.3689271,23.8222631 20.5824971,23.5709393 19.8499941,23.134344 C19.7918664,23.0997726 19.7347889,23.0641535 19.6776589,23.0275393 C18.4209042,22.2185154 17.3386375,20.8661964 16.549057,19.3183916 C15.7615768,17.7716869 15.2668353,16.0296012 15.1841859,14.4380583 L15.1841859,14.4319821 C15.1760469,14.2782964 15.1719512,14.1256583 15.1719512,13.9750631 C15.1719512,9.73681545 18.3137855,6.30141069 22.189068,6.30141069 C26.064403,6.30141069 29.2061848,9.73681545 29.2061848,13.9750631" id="Fill-19" fill="#F4C5BE" mask="url(#mask-12)"></path>
                        <path d="M30.5760037,39.6222889 L13.6059294,39.6222889 C11.7320868,37.1556698 9.72660371,27.9413889 11.9973107,26.9848603 C12.5726013,26.7426508 13.4396854,26.5717317 14.412838,26.4526698 L14.4138882,26.4526698 C14.8056066,26.404846 15.2156508,26.3651412 15.6297907,26.3326127 C16.5581005,26.2582841 17.5128749,26.219627 18.359533,26.2002984 C19.2847447,26.178927 20.0793661,26.1809698 20.5670189,26.1850555 C20.7526388,26.187046 20.893416,26.1890889 20.9801086,26.1911317 L23.2018245,26.1911317 C23.2946607,26.1890889 23.4507705,26.187046 23.6588644,26.1850555 C24.1301343,26.1799746 24.8666281,26.178927 25.721425,26.1982555 C26.5487596,26.2165889 27.4882014,26.2522079 28.4072696,26.3214031 C29.2896863,26.3875079 30.1547226,26.4842031 30.8871206,26.6246365 C31.3971948,26.722327 31.841895,26.8403412 32.1846749,26.9848603 C34.4553819,27.9413889 32.4498988,37.1556698 30.5760037,39.6222889" id="Fill-22" fill="#F4C5BE" mask="url(#mask-12)"></path>
                        <path d="M15.1855599,43.3939128 C11.6338983,39.2644068 10.0074721,27.6706699 12.2781266,26.714089 C12.8534697,26.4719318 13.7205537,26.3009604 14.6937064,26.1818985 C14.8088257,26.2360435 19.675233,30.0165731 27.6305085,27.6305085 C28.2025072,27.4589461 30.5846588,26.5854005 31.167989,26.3538652 C31.6780107,26.451608 32.1227634,26.5696223 32.4654908,26.714089 C34.7362503,27.6706699 32.0615902,39.8950747 29.2962993,43.3939128 L15.1855599,43.3939128 Z" id="Fill-25" fill="#9068DB" mask="url(#mask-12)"></path>
                        <path d="M22.5455641,8.51315507 C22.5455641,8.51315507 28.5022054,9.56297412 29.0122271,14.4632122 C29.0122271,14.4632122 29.4573999,10.714936 27.8499889,8.30965507 C25.6057991,4.95156459 22.0355424,4.84984078 22.5455641,8.51315507" id="Fill-28" fill="#212B44" mask="url(#mask-12)"></path>
                        <path d="M26.7662059,7.94607933 C26.7662059,7.94607933 26.2927306,11.6645508 21.2943818,11.8681031 C19.0497719,11.9594555 15.7234204,12.8211222 15.4433364,15.6797603 C15.4433364,15.6797603 13.3011719,5.809146 21.0537847,5.30036981 C22.5219939,5.20398885 26.7662059,4.99509362 26.7662059,7.94607933" id="Fill-31" fill="#2A3551" mask="url(#mask-12)"></path>
                        <polygon id="Fill-34" fill="#1E283F" mask="url(#mask-12)" points="25.7819433 13.4324513 25.7819433 21.3283561 13.602439 21.3283561 13.602439 13.4324513 18.0105847 13.4324513 19.4293827 11.533118 22.9165174 11.533118 24.207193 13.4324513"></polygon>
                        <path d="M24.2959194,17.1341621 C24.2959194,18.7828526 22.9561477,20.1193526 21.3034213,20.1193526 C19.6507473,20.1193526 18.3109756,18.7828526 18.3109756,17.1341621 C18.3109756,15.4854717 19.6507473,14.1489717 21.3034213,14.1489717 C22.9561477,14.1489717 24.2959194,15.4854717 24.2959194,17.1341621" id="Fill-37" fill="#2F3A5B" mask="url(#mask-12)"></path>
                        <path d="M23.3510385,17.4482179 C23.3510385,18.692475 22.3398692,19.7011226 21.0925662,19.7011226 C19.8453156,19.7011226 18.8341463,18.692475 18.8341463,17.4482179 C18.8341463,16.2039607 19.8453156,15.1953131 21.0925662,15.1953131 C22.3398692,15.1953131 23.3510385,16.2039607 23.3510385,17.4482179" id="Fill-40" fill="#1E283F" mask="url(#mask-12)"></path>
                        <path d="M23.4346024,17.2287417 C23.4346024,18.3517893 22.5219928,19.2621703 21.3957234,19.2621703 C20.5261189,19.2621703 19.7841642,18.7195036 19.491163,17.9547417 C19.4045228,17.7295036 19.3573171,17.4843607 19.3573171,17.2287417 C19.3573171,16.1056941 20.2698741,15.1953131 21.3957234,15.1953131 C21.8231482,15.1953131 22.2200651,15.3262655 22.5477223,15.5509798 C23.0833685,15.9171226 23.4346024,16.532075 23.4346024,17.2287417" id="Fill-43" fill="#2F3A5B" mask="url(#mask-12)"></path>
                        <path d="M22.6816733,16.2769798 C22.6816733,17.4000274 21.7690637,18.3104084 20.6433194,18.3104084 C20.2158947,18.3104084 19.8188728,18.1789322 19.4912155,17.9547417 C19.4045753,17.7295036 19.3573171,17.4843607 19.3573171,17.2287417 C19.3573171,16.1056941 20.2699266,15.1953131 21.3957759,15.1953131 C21.8231482,15.1953131 22.2201176,15.3262655 22.5477748,15.5509798 C22.6344675,15.7767417 22.6816733,16.0213607 22.6816733,16.2769798" id="Fill-46" fill="#FFFFFF" mask="url(#mask-12)"></path>
                        <path d="M21.3507448,16.4518172 C21.3507448,16.8568267 21.0216173,17.1851505 20.6156163,17.1851505 C20.2096679,17.1851505 19.8804878,16.8568267 19.8804878,16.4518172 C19.8804878,16.0468077 20.2096679,15.7184839 20.6156163,15.7184839 C21.0216173,15.7184839 21.3507448,16.0468077 21.3507448,16.4518172" id="Fill-49" fill="#FFFFFF" mask="url(#mask-12)"></path>
                        <path d="M22.7367986,18.1085334 C22.7367986,18.3649863 22.528428,18.5729299 22.2712653,18.5729299 C22.0141027,18.5729299 21.8057321,18.3649863 21.8057321,18.1085334 C21.8057321,17.8520806 22.0141027,17.644137 22.2712653,17.644137 C22.528428,17.644137 22.7367986,17.8520806 22.7367986,18.1085334" id="Fill-52" fill="#FFFFFF" mask="url(#mask-12)"></path>
                        <path d="M14.1675957,16.9502878 C14.1727941,16.5586878 14.3718039,16.1947973 14.7027168,15.970345 C15.5901219,15.3685402 17.0008335,14.6363069 17.3780595,15.8530116 C17.7344393,17.0025116 17.615401,18.8940926 17.3140508,20.0903688 C17.1842481,20.6057973 16.7246353,20.9793259 16.1755993,21.0148926 L15.190002,21.0786926 C14.6103006,21.1162497 14.1182371,20.6661926 14.1256934,20.1052973 L14.1675957,16.9502878 Z" id="Fill-55" fill="#121826" mask="url(#mask-12)"></path>
                        <path d="M13.9343412,15.7184839 L13.602439,15.8654931 C13.7106106,15.8098396 13.8219483,15.7599615 13.9343412,15.7184839" id="Fill-58" fill="#FCD1C3" mask="url(#mask-12)"></path>
                        <path d="M29.9991627,26.3226808 L25.3757294,26.8690141 L22.3559265,21.814776 C20.4887,22.1578712 18.9149999,21.141157 18.0827819,20.2375855 C17.6080989,19.7226808 17.7881529,19.3664903 18.0533242,19.1480617 C18.2780635,18.9626332 18.5642386,18.8767284 18.5642386,18.8767284 C19.0977318,19.6959665 20.0229436,20.2375855 21.0752276,20.2375855 C22.727744,20.2375855 24.0677257,18.9008236 24.0677257,17.2523951 C24.0677257,16.5698712 23.8382606,15.940776 23.4523181,15.4384427 C23.4623474,15.4342522 23.6923376,15.2739665 24.0036645,15.2158236 C24.4095605,15.1403951 24.9535556,15.2393951 25.3232202,16.0900617 C26.020017,17.6944903 25.6981883,19.1470141 24.9809129,20.1689665 L27.0986081,22.7660141 L29.9991627,26.3226808 Z" id="Fill-61" fill="#F4C5BE" mask="url(#mask-12)"></path>
                        <path d="M24.902453,17.2318846 C24.902453,19.1982655 23.304126,20.7927417 21.3328789,20.7927417 C20.0595313,20.7927417 18.942661,20.1280274 18.3109756,19.1275512 C18.5357149,18.9421226 18.8218899,18.8562179 18.8218899,18.8562179 C19.3553832,19.675456 20.2805949,20.217075 21.3328789,20.217075 C22.9853428,20.217075 24.3253771,18.8803131 24.3253771,17.2318846 C24.3253771,16.5493607 24.095912,15.9202655 23.7099695,15.4179322 C23.7199462,15.4137417 23.9499364,15.253456 24.2613159,15.1953131 C24.6656366,15.7725512 24.902453,16.474456 24.902453,17.2318846" id="Fill-64" fill="#D6A8A3" mask="url(#mask-12)"></path>
                        <path d="M16.8408006,19.7853445 C16.7142535,20.3546207 16.2705509,20.7692683 15.7423085,20.8105445 L13.8698312,20.8872826 L13.9953281,23.0225921 L14.2069401,26.6297016 C14.2263685,28.0776159 10.9589323,26.9802873 10.9867621,25.8114588 L11.3084334,23.0225921 L11.6596148,16.8730159 C11.6788331,16.5363111 11.8857193,16.2388397 12.1951034,16.1030159 L14.7173293,14.995473 L15.0476121,14.8326207 C15.0491874,14.8314683 15.0507626,14.8308921 15.0523379,14.8308921 L15.0523379,14.8303159 C15.7942926,14.5250397 16.5903318,14.6006254 16.8586537,15.6042969 C17.197863,16.8719683 17.134852,18.4635635 16.8408006,19.7853445" id="Fill-67" fill="#FCD1C3" mask="url(#mask-12)"></path>
                        <path d="M14.1355098,15.7184839 L14.1355098,15.7195839 C14.1322098,15.7195839 14.1289098,15.7206839 14.1256098,15.7228839 L14.1355098,15.7184839 Z" id="Fill-70" fill="#FCD1C3" mask="url(#mask-12)"></path>
                        <path d="M34.5163574,33.6295884 C34.5064332,33.6458265 34.4954063,33.6620646 34.4838543,33.6777789 L32.8224113,36.0113503 C32.3378041,36.6923027 31.3495813,36.7609217 30.7745533,36.1533027 L24.5890244,25.8023027 L27.2669492,22.9042373 L30.5389831,26.5398305 L31.629661,27.2669492 L32.4356812,27.4464884 C32.4356812,27.4464884 36.0385986,31.2347312 34.54529,33.584017 C34.5363634,33.5992074 34.5263867,33.6143979 34.5163574,33.6295884 Z" id="Fill-73" fill="#9068DB" mask="url(#mask-12)"></path>
                        <polygon id="Fill-76" fill="#000000" mask="url(#mask-12)" points="24.9486832 26.2579659 24.9465861 26.2579659 24.5890244 25.6587278"></polygon>
                        <path d="M32.1832478,36.3333271 C32.0314963,36.8099937 31.8702931,37.263089 31.7033139,37.681089 C30.1926248,37.2866604 26.7417215,31.1905652 25.0451499,28.0388033 C24.4459676,26.9272794 24.0658537,26.1818985 24.0658537,26.1818985 L25.160145,26.186089 L26.1876971,27.9052318 L30.9875612,35.9378509 C31.3100201,36.2788509 31.7625967,36.4066604 32.1832478,36.3333271" id="Fill-79" fill="#000000" opacity="0.218805804" style="mix-blend-mode: multiply;" mask="url(#mask-12)"></path>
                        <path d="M13.0836683,26.7633692 L13.0825683,26.7633692 C13.0814683,26.7446692 13.0803683,26.7259692 13.0792683,26.7050692 L13.0836683,26.7633692 Z" id="Fill-82" fill="#FCD1C3" mask="url(#mask-12)"></path>
                        <path d="M13.7823972,37.0860925 L11.4641169,37.5386639 C10.4102576,37.6119972 9.91352077,36.6010448 9.94135064,35.5481877 L11.4264678,23.5660448 L14.1876105,23.5660448 L14.9008427,34.8860925 C14.9202711,36.1903782 15.0872503,36.9949496 13.7823972,37.0860925" id="Fill-85" fill="#9068DB" mask="url(#mask-12)"></path>
                        <path d="M12.9777463,38.0414699 C12.833346,37.7266604 12.6920963,37.3825175 12.5560976,37.0158509 L13.8866802,36.7560413 C15.1915333,36.6648985 15.0245541,35.8603271 15.0051257,34.5560413 L14.4779335,26.188708 C14.4952616,26.186089 14.5125896,26.1839937 14.5299176,26.1818985 L14.5309678,26.1818985 C14.5540719,26.1934223 14.8554745,26.3338033 15.3879176,26.5286604 C15.6553994,30.1111509 16.5480555,36.746089 15.550381,37.4108033 C15.1392867,37.6846509 13.9225965,37.8984699 12.9777463,38.0414699" id="Fill-88" fill="#000000" opacity="0.218805804" style="mix-blend-mode: multiply;" mask="url(#mask-12)"></path>
                        <path d="M23.3079285,23.752981 C23.1950337,23.7917429 23.0815614,23.8263143 22.9671439,23.8561714 L22.1490509,22.4408381 C20.5658466,22.850981 19.358713,21.9662667 18.8341463,21.4733619 L19.2458183,21.4733619 C20.0754108,21.9646952 21.1308979,22.284219 22.3018526,22.0689333 L23.3079285,23.752981 Z" id="Fill-91" fill="#D6A8A3" mask="url(#mask-12)"></path>
                    </g>
                </g>
                <g id="Dots" transform="translate(115.500000, 0.000000)">
                    <polygon id="Fill-28" fill="#8E67D7" transform="translate(461.172364, 48.712425) rotate(133.000000) translate(-461.172364, -48.712425) " points="465.243127 52.7940646 456.279035 51.756894 457.101601 44.6307862 466.065693 45.6675577"></polygon>
                    <polygon id="Fill-30" fill="#E5E7EB" transform="translate(396.583270, 44.601226) rotate(133.000000) translate(-396.583270, -44.601226) " points="400.686529 45.753128 394.533435 48.3406669 392.480011 43.4497235 398.632706 40.8617854"></polygon>
                    <polygon id="Fill-30" fill="#FFC84A" transform="translate(487.751708, 49.809888) rotate(209.000000) translate(-487.751708, -49.809888) " points="491.854967 50.9617898 485.701873 53.5493288 483.648449 48.6583853 489.801145 46.0704473"></polygon>
                    <polygon id="Fill-30" fill="#E5E7EB" transform="translate(438.224396, 5.057982) rotate(72.000000) translate(-438.224396, -5.057982) " points="442.327655 6.20988383 436.174561 8.79742279 434.121137 3.90647932 440.273833 1.3185413"></polygon>
                    <polygon id="Fill-36" fill="#FFC84A" transform="translate(427.047979, 78.929556) rotate(133.000000) translate(-427.047979, -78.929556) " points="431.051956 85.4117716 419.925988 81.6258398 423.044002 72.4473395 434.169971 76.2332713"></polygon>
                    <polygon id="Fill-28" fill="#8E67D7" transform="translate(48.122364, 362.212425) rotate(133.000000) translate(-48.122364, -362.212425) " points="52.1931274 366.294065 43.2290353 365.256894 44.051601 358.130786 53.015693 359.167558"></polygon>
                    <polygon id="Fill-30" fill="#E5E7EB" transform="translate(5.533270, 383.401226) rotate(133.000000) translate(-5.533270, -383.401226) " points="9.63652891 384.553128 3.48343451 387.140667 1.43001071 382.249723 7.58270638 379.661785"></polygon>
                    <polygon id="Fill-36" fill="#FFC84A" transform="translate(76.147979, 392.979556) rotate(133.000000) translate(-76.147979, -392.979556) " points="80.1519563 399.461772 69.0259878 395.67584 72.1440022 386.497339 83.2699707 390.283271"></polygon>
                </g>
            </g>
            <g id="Feature" transform="translate(6368.000000, 2041.000000)">
                <g id="Design" transform="translate(0.000000, 409.000000)">
                    <g id="Dots" transform="translate(173.250000, 0.000000)"></g>
                </g>
                <g id="Content" transform="translate(327.500000, 0.000000)" font-family="LucidaGrande, Lucida Grande" font-weight="normal">
                    <text id="А-вы-сможете-объясни" font-size="10" line-spacing="15.45" fill="#8C919C">
                        <tspan x="68.5" y="31">А вы сможете объяснить как управлять сайтом?  </tspan>
                    </text>
                    <text id="Конечно!" font-size="10" line-spacing="21.45" fill="#8C919C">
                        <tspan x="0.5" y="157">Конечно! </tspan>
                    </text>
                    <text id="Заказчик" fill-rule="nonzero" font-size="11" fill="#686666">
                        <tspan x="68.5" y="11">Заказчик</tspan>
                    </text>
                    <text id="Спасибо!" font-size="10" line-spacing="15.45" fill="#8C919C">
                        <tspan x="68.5" y="291">Спасибо! </tspan>
                    </text>
                    <text id="Заказчик" fill-rule="nonzero" font-size="11" fill="#686666">
                        <tspan x="68.5" y="271">Заказчик</tspan>
                    </text>
                    <text id="Oriole" fill-rule="nonzero" font-size="11" fill="#686666">
                        <tspan x="0.5" y="137">Oriole</tspan>
                    </text>
                </g>
            </g>
        </g>
    </g>
</svg>