<svg id="Capa_1" enable-background="new 0 0 512 512" height="512" viewBox="0 0 512 512" width="512" xmlns="http://www.w3.org/2000/svg"><g><path d="m512 256c0 141.385-114.615 256-256 256s-256-114.615-256-256 114.615-256 256-256 256 114.615 256 256z" fill="#ffb52d"/><path d="m475 242.5c0 105.486-85.514 191-191 191s-191-85.514-191-191 85.514-191 191-191 191 85.514 191 191z" fill="#ffc14f"/><path d="m317 27.5v390c0 11.046-8.954 20-20 20h-210c-11.046 0-20-8.954-20-20v-390c0-11.046 8.954-20 20-20h210c11.046 0 20 8.954 20 20z" fill="#e9f3fe"/><path d="m136 438h-49c-11.046 0-20-8.954-20-20v-390c0-11.046 8.954-20 20-20h49c-11.046 0-20 8.954-20 20v390c0 11.046 8.954 20 20 20z" fill="#c8e2fd"/><path d="m282 135v160c0 5.523-4.477 10-10 10h-160c-5.523 0-10-4.477-10-10v-160c0-5.523 4.477-10 10-10h160c5.523 0 10 4.477 10 10z" fill="#464646"/><path d="m282 340v50c0 5.523-4.477 10-10 10h-160c-5.523 0-10-4.477-10-10v-50c0-5.523 4.477-10 10-10h160c5.523 0 10 4.477 10 10z" fill="#f44545"/><path d="m282 40v50c0 5.523-4.477 10-10 10h-160c-5.523 0-10-4.477-10-10v-50c0-5.523 4.477-10 10-10h160c5.523 0 10 4.477 10 10z" fill="#86befb"/><path d="m241.031 229.422-43.941 36.887c-2.943 2.471-7.236 2.471-10.179 0l-43.941-36.887c-15.775-13.243-18.24-36.596-5.577-52.84 12.041-15.446 33.8-19.31 50.422-8.953 2.562 1.596 5.81 1.596 8.372 0 16.622-10.357 38.381-6.493 50.422 8.953 12.662 16.244 10.197 39.597-5.578 52.84z" fill="#838383"/><path d="m246.608 176.582c12.663 16.245 10.198 39.598-5.577 52.84l-14.205 11.925c-1.918.156-3.852.257-5.811.257-39.103 0-70.802-31.699-70.802-70.802 0-1.644.076-3.27.187-4.886 11.585-5.81 25.76-5.548 37.415 1.713 2.562 1.596 5.81 1.596 8.372 0 16.621-10.357 38.38-6.494 50.421 8.953z" fill="#9b9b9b"/><path d="m317 70h-250v-42.5c0-11.046 8.954-20 20-20h210c11.046 0 20 8.954 20 20zm0 307.5h-250v42.5c0 11.046 8.954 20 20 20h210c11.046 0 20-8.954 20-20z" fill="#5e93bb"/><path d="m116 27.5v42.5h-49v-42.5c0-11.046 8.954-20 20-20h49c-11.046 0-20 8.954-20 20zm0 392.5v-42.5h-49v42.5c0 11.046 8.954 20 20 20h49c-11.046 0-20-8.954-20-20zm40-412.5v22.5c0 11.046 8.954 20 20 20h32c11.046 0 20-8.954 20-20v-22.5z" fill="#3f7196"/><path d="m208 415h-32c-5.523 0-10-4.477-10-10 0-5.523 4.477-10 10-10h32c5.523 0 10 4.477 10 10 0 5.523-4.477 10-10 10zm-86-10c0-5.523-4.477-10-10-10h-2c-5.523 0-10 4.477-10 10 0 5.523 4.477 10 10 10h2c5.523 0 10-4.477 10-10zm0-361c0-5.523-4.477-10-10-10h-2c-5.523 0-10 4.477-10 10 0 5.523 4.477 10 10 10h2c5.523 0 10-4.477 10-10zm162 0c0-5.523-4.477-10-10-10h-2c-5.523 0-10 4.477-10 10 0 5.523 4.477 10 10 10h2c5.523 0 10-4.477 10-10z" fill="#355f7e"/><path d="m297 0h-210c-15.163 0-27.5 12.336-27.5 27.5v390c0 15.164 12.337 27.5 27.5 27.5h210c15.163 0 27.5-12.336 27.5-27.5v-390c0-15.164-12.337-27.5-27.5-27.5zm12.5 417.5c0 6.893-5.607 12.5-12.5 12.5h-210c-6.893 0-12.5-5.607-12.5-12.5v-390c0-6.893 5.607-12.5 12.5-12.5h210c6.893 0 12.5 5.607 12.5 12.5zm-109.5-377.5h-16c-2.761 0-5-2.239-5-5 0-2.761 2.239-5 5-5h16c2.761 0 5 2.239 5 5 0 2.761-2.239 5-5 5z" fill="#2b4d66"/><path d="m466 393c0 65.722-53.278 119-119 119s-119-53.278-119-119 53.278-119 119-119 119 53.278 119 119z" fill="#6dc54a"/><path d="m447.208 457.208c-21.16 32.957-58.134 54.792-100.208 54.792-65.722 0-119-53.278-119-119 0-42.074 21.835-79.048 54.792-100.208-11.894 18.523-18.792 40.56-18.792 64.208 0 65.722 53.278 119 119 119 23.648 0 45.685-6.898 64.208-18.792z" fill="#5ca33b"/><path d="m350 182.5c0-4.142 3.358-7.5 7.5-7.5h75c4.142 0 7.5 3.358 7.5 7.5s-3.358 7.5-7.5 7.5h-75c-4.142 0-7.5-3.358-7.5-7.5zm36.079 67.5c4.142 0 7.5-3.358 7.5-7.5s-3.358-7.5-7.5-7.5h-28.579c-4.142 0-7.5 3.358-7.5 7.5s3.358 7.5 7.5 7.5zm46.421-45h-75c-4.142 0-7.5 3.358-7.5 7.5s3.358 7.5 7.5 7.5h75c4.142 0 7.5-3.358 7.5-7.5s-3.358-7.5-7.5-7.5zm-11.605 180.5c-4.143 0-7.5 3.358-7.5 7.5 0 36.61-29.784 66.395-66.395 66.395-21.995 0-42.185-10.725-54.51-28.471l19.133 2.296c4.102.488 7.846-2.44 8.34-6.553.494-4.112-2.44-7.847-6.553-8.34l-35.744-4.29c-1.975-.236-3.963.321-5.527 1.549-1.563 1.229-2.576 3.029-2.813 5.004l-4.289 35.744c-.494 4.113 2.44 7.847 6.553 8.34.304.036.604.054.903.054 3.742 0 6.979-2.798 7.437-6.607l1.952-16.265c15.224 20.34 39.144 32.539 65.119 32.539 44.881 0 81.395-36.514 81.395-81.395-.001-4.142-3.359-7.5-7.501-7.5zm-147.79 15c4.143 0 7.5-3.358 7.5-7.5 0-36.61 29.784-66.395 66.395-66.395 20.532 0 39.867 9.614 52.355 25.572l-19.978-2.397c-4.107-.491-7.847 2.44-8.34 6.553-.494 4.112 2.44 7.847 6.553 8.34l35.744 4.29c.298.036.597.053.894.053 1.672 0 3.306-.559 4.634-1.603 1.563-1.229 2.576-3.029 2.813-5.004l4.289-35.744c.494-4.113-2.44-7.847-6.553-8.34-4.106-.494-7.847 2.44-8.34 6.553l-1.877 15.639c-15.327-18.099-38.085-28.913-62.194-28.913-44.881 0-81.395 36.514-81.395 81.395 0 4.143 3.358 7.501 7.5 7.501z" fill="#fff"/></g></svg>