<svg id="Capa_1" enable-background="new 0 0 512 512" height="512" viewBox="0 0 512 512" width="512" xmlns="http://www.w3.org/2000/svg"><g><g id="Filled_36_"><g fill="#d8fc7e"><path d="m339 379.5c-30.376 0-55-24.624-55-55v-221c0-30.376 24.624-55 55-55 30.376 0 55 24.624 55 55v221c0 30.376-24.624 55-55 55z"/><path d="m229 390.5c-30.376 0-55-24.624-55-55v-191c0-30.376 24.624-55 55-55 30.376 0 55 24.624 55 55v191c0 30.376-24.624 55-55 55z"/><path d="m119 359.5c-30.376 0-55-24.624-55-55v-191c0-30.376 24.624-55 55-55 30.376 0 55 24.624 55 55v191c0 30.376-24.624 55-55 55z"/><path d="m449 389.5c-30.376 0-55-24.624-55-55v-200c0-30.376 24.624-55 55-55 30.376 0 55 24.624 55 55v200c0 30.376-24.624 55-55 55z"/></g><path d="m449 359.5c-30.376 0-55-24.624-55-55v30c0 30.376 24.624 55 55 55 30.376 0 55-24.624 55-55v-30c0 30.376-24.624 55-55 55z" fill="#c3f839"/><path d="m339 349.5c-30.376 0-55-24.624-55-55v30c0 30.376 24.624 55 55 55 30.376 0 55-24.624 55-55v-30c0 30.376-24.624 55-55 55z" fill="#c3f839"/><path d="m268 413.5h-200c-33.137 0-60-26.863-60-60v-100c0-33.137 26.863-60 60-60h200c33.137 0 60 26.863 60 60v100c0 33.137-26.863 60-60 60z" fill="#f05475"/><path d="m268 383.5h-200c-33.137 0-60-26.863-60-60v30c0 33.137 26.863 60 60 60h200c33.137 0 60-26.863 60-60v-30c0 33.137-26.863 60-60 60z" fill="#e21743"/><circle cx="99" cy="413.5" fill="#57758d" r="50"/><circle cx="99" cy="413.5" fill="#fff" r="17"/><path d="m148 275.5c0-16.569-13.431-30-30-30h-109.453c-.349 2.619-.547 5.286-.547 8v52h110c16.569 0 30-13.431 30-30z" fill="#e4e8ed"/><path d="m118 275.5h-110v30h110c16.569 0 30-13.431 30-30 0-5.466-1.469-10.586-4.023-15-5.188 8.964-14.875 15-25.977 15z" fill="#c8d1da"/><path d="m189 283.5h80v130h-80z" fill="#e4e8ed"/><path d="m189 383.5h80v30h-80z" fill="#c8d1da"/></g><g fill="#fff"><path d="m33 347h15v15h-15z"/><path d="m324 107h15v15h-15z"/><path d="m169 216h15v15h-15z"/></g><g id="Outline_36_"><path d="m456.5 456v-59.466c30.937-3.719 55-30.111 55-62.034v-154.285h-15v154.285c0 23.639-17.36 43.295-40 46.902v-32.795l27.803-27.803-10.606-10.607-17.197 17.196v-48.786l27.803-27.803-10.606-10.607-17.197 17.196v-105.893h-15v49.893l-17.197-17.197-10.606 10.607 27.803 27.803v69.786l-17.197-17.197-10.606 10.607 27.803 27.803v67.795c-22.64-3.607-40-23.263-40-46.902v-10-190c0-26.191 21.309-47.5 47.5-47.5s47.5 21.309 47.5 47.5v30.715h15v-30.713c0-34.463-28.038-62.5-62.5-62.5-19.344 0-36.661 8.835-48.134 22.679-4.301-30.299-30.398-53.679-61.866-53.679-34.462 0-62.5 28.037-62.5 62.5v.448c-11.472-13.418-28.504-21.948-47.5-21.948-19.344 0-36.661 8.835-48.134 22.679-4.301-30.299-30.398-53.679-61.866-53.679-34.462 0-62.5 28.037-62.5 62.5v53.284h15v-14.784h35.5v-15h-35.5v-15h18.5v-15h-18.044c3.18-23.126 23.058-41 47.044-41 26.191 0 47.5 21.309 47.5 47.5v31 22.284h15v-22.284c0-26.191 21.309-47.5 47.5-47.5s47.5 21.309 47.5 47.5v22.284h15v-22.284-41c0-26.191 21.309-47.5 47.5-47.5s47.5 21.309 47.5 47.5v3.5h-32.5v15h32.5v12.5 2.5h-22.5v15h22.5v172.5c0 21.288-14.321 40.112-34.825 45.776l3.994 14.459c15.033-4.153 27.534-13.683 35.664-26.15 8.524 20.332 27.499 35.224 50.167 37.949v59.466h-76v-35h22.5v-15h-77.639c15.319-12.384 25.139-31.313 25.139-52.5v-33.604h-15v33.604c0 26.054-19.081 47.726-44 51.802v-129.302h-95v130h-25.505c-3.689-28.173-27.833-50-56.995-50-26.969 0-49.65 18.667-55.828 43.757-16.848-9.02-27.672-26.645-27.672-46.257v-40.5h102.5c20.678 0 37.5-16.822 37.5-37.5s-16.822-37.5-37.5-37.5h-100.163c6.628-21.406 26.607-37 50.163-37h30.681v-15h-30.681c-37.22 0-67.5 30.28-67.5 67.5v100c0 27.281 16.285 51.583 41.053 62.103.578 15.976 7.692 30.314 18.758 40.397h-60.311v15h300v-15h-162.311c9.804-8.933 16.5-21.208 18.306-35h112.005 82.5v35h-35.5v15h197v-15zm-441-202.5c0-.168.011-.333.013-.5h102.487c12.407 0 22.5 10.094 22.5 22.5s-10.093 22.5-22.5 22.5h-102.5zm83.5 202.5c-23.435 0-42.5-19.065-42.5-42.5s19.065-42.5 42.5-42.5 42.5 19.065 42.5 42.5-19.065 42.5-42.5 42.5zm162.5-50h-65v-115h65z"/><path d="m335.5 304.896v-51.396c0-37.22-30.28-67.5-67.5-67.5h-154.319v15h154.319c14.269 0 27.22 5.73 36.692 15h-75.692v15h86.424c3.251 6.824 5.076 14.452 5.076 22.5v51.396z"/><path d="m99 389c-13.509 0-24.5 10.99-24.5 24.5s10.991 24.5 24.5 24.5 24.5-10.99 24.5-24.5-10.991-24.5-24.5-24.5zm0 34c-5.238 0-9.5-4.262-9.5-9.5s4.262-9.5 9.5-9.5 9.5 4.262 9.5 9.5-4.262 9.5-9.5 9.5z"/><path d="m211.5 341h15v15h-15z"/><path d="m199 216h15v15h-15z"/></g></g></svg>