<svg id="Capa_1" enable-background="new 0 0 511.5 511.5" height="512" viewBox="0 0 511.5 511.5" width="512" xmlns="http://www.w3.org/2000/svg"><g><g id="Filled_30_"><path d="m391.5 239.75s9-25.976 23-42c16.593-18.991 57-26 57-26s-23 29-31 45c-5.775 11.551-13 29-13 29z" fill="#afd2d7"/><path d="m95.5 170.75c0 24.853 20.147 45 45 45h14v120c0 16.569 13.431 30 30 30 16.569 0 30-13.431 30-30v-165c0-24.853-20.147-45-45-45h-29c-24.853 0-45 20.147-45 45z" fill="#afd2d7"/><path d="m184.5 335.75c-16.569 0-30-13.431-30-30v30c0 16.569 13.431 30 30 30 16.568 0 30-13.431 30-30v-30c0 16.569-13.431 30-30 30z" fill="#87bcc4"/><path d="m511.5 293.75h-487c-9.389 0-17 7.611-17 17 0 9.389 7.611 17 17 17h47.038l-29.894 28.333c-4.843 5.066-5.921 12.654-2.681 18.868 5.159 9.894 18.491 11.835 26.255 3.821l52.282-51.022h394z" fill="#d4b981"/><path d="m391.5 239.75 36 6s7.13-17.219 12.886-28.769c-9.118-6.541-20.128-10.6-32.045-11.159-10.425 15.411-16.841 33.928-16.841 33.928z" fill="#87bcc4"/><path d="m405.5 385.75c-16.569 0-30-13.431-30-30v-90c0-16.569 13.431-30 30-30 16.569 0 30 13.431 30 30v90c0 16.569-13.431 30-30 30z" fill="#afd2d7"/><path d="m405.5 355.75c-16.569 0-30-13.431-30-30v30c0 16.569 13.431 30 30 30 16.568 0 30-13.431 30-30v-30c0 16.569-13.431 30-30 30z" fill="#87bcc4"/><g fill="#afd2d7"><path d="m345.5 385.75c-16.569 0-30-13.431-30-30v-90c0-16.569 13.431-30 30-30 16.569 0 30 13.431 30 30v90c0 16.569-13.431 30-30 30z"/><path d="m285.5 385.75c-16.569 0-30-13.431-30-30v-90c0-16.569 13.431-30 30-30 16.569 0 30 13.431 30 30v90c0 16.569-13.431 30-30 30z"/><path d="m225.5 385.75c-16.569 0-30-13.431-30-30v-90c0-16.569 13.431-30 30-30 16.569 0 30 13.431 30 30v90c0 16.569-13.431 30-30 30z"/></g><path d="m345.5 355.75c-16.569 0-30-13.431-30-30v30c0 16.569 13.431 30 30 30 16.568 0 30-13.431 30-30v-30c0 16.569-13.431 30-30 30z" fill="#87bcc4"/><path d="m285.5 355.75c-16.569 0-30-13.431-30-30v30c0 16.569 13.431 30 30 30 16.568 0 30-13.431 30-30v-30c0 16.569-13.431 30-30 30z" fill="#87bcc4"/><path d="m225.5 355.75c-16.569 0-30-13.431-30-30v30c0 16.569 13.431 30 30 30 16.568 0 30-13.431 30-30v-30c0 16.569-13.431 30-30 30z" fill="#87bcc4"/></g><g fill="#fff"><path d="m398 314.75h15v15h-15z"/><path d="m278 265.75h15v15h-15z"/><path d="m278 295.75h15v15h-15z"/><path d="m398 344.75h15v15h-15z"/></g><g id="Outline_30_"><path d="m443 301.25h32.5v-15h-32.5v-20.5c0-7.967-2.505-15.355-6.757-21.436 2.487-5.848 7.091-16.462 10.965-24.21 7.558-15.116 29.943-43.41 30.168-43.694l12.221-15.411-19.379 3.361c-1.757.305-43.234 7.701-61.366 28.455-11.884 13.603-20.193 33.329-23.203 41.141-3.928 2.461-7.373 5.624-10.149 9.319-6.847-9.117-17.746-15.026-30-15.026s-23.153 5.909-30 15.026c-6.847-9.117-17.746-15.026-30-15.026s-23.153 5.909-30 15.026c-6.847-9.117-17.746-15.026-30-15.026-1.181 0-2.347.062-3.5.169v-35.794h-15v40.526c-11.335 6.458-19 18.646-19 32.599v20.5h-26v-78h-21.5c-10.017 0-19.434-3.9-26.516-10.982-7.083-7.083-10.984-16.5-10.984-26.517 0-20.678 16.822-37.5 37.5-37.5h29c20.678 0 37.5 16.822 37.5 37.5v6.875h15v-6.875c0-28.948-23.551-52.5-52.5-52.5h-29c-28.949 0-52.5 23.552-52.5 52.5 0 9.866 2.714 19.311 7.769 27.5h-21.162l-17.803-17.804-10.606 10.607 14.697 14.696-14.697 14.696 10.606 10.607 17.803-17.804h35.067c8.907 6.489 19.595 10 30.827 10h6.5v63h-91.501v15h132.5v19h-73.553l-28.672 27.981 10.477 10.734 24.302-23.716h26.446v.5c0 20.678 16.822 37.5 37.5 37.5 2.515 0 5.023-.256 7.464-.749 6.164 12.289 18.877 20.749 33.536 20.749 12.254 0 23.153-5.909 30-15.026 6.847 9.117 17.746 15.026 30 15.026s23.153-5.909 30-15.026c6.847 9.117 17.746 15.026 30 15.026s23.153-5.909 30-15.026c6.847 9.117 17.746 15.026 30 15.026 20.678 0 37.5-16.822 37.5-37.5v-20.5h68.5v-15h-68.5zm-258.5 57c-12.407 0-22.5-10.094-22.5-22.5v-.5h26v20.5c0 .745.028 1.484.071 2.219-1.173.186-2.369.281-3.571.281zm63.5-2.5c0 12.406-10.093 22.5-22.5 22.5s-22.5-10.094-22.5-22.5v-90c0-12.406 10.093-22.5 22.5-22.5s22.5 10.094 22.5 22.5zm60 0c0 12.406-10.093 22.5-22.5 22.5s-22.5-10.094-22.5-22.5v-90c0-12.406 10.093-22.5 22.5-22.5s22.5 10.094 22.5 22.5zm60 0c0 12.406-10.093 22.5-22.5 22.5s-22.5-10.094-22.5-22.5v-90c0-12.406 10.093-22.5 22.5-22.5s22.5 10.094 22.5 22.5zm60 0c0 12.406-10.093 22.5-22.5 22.5s-22.5-10.094-22.5-22.5v-90c0-12.406 10.093-22.5 22.5-22.5s22.5 10.094 22.5 22.5zm-3.431-122.272c-5.591-3.316-12.109-5.228-19.069-5.228-.372 0-.74.017-1.109.028 3.783-8.086 9.223-18.114 15.757-25.594 7.463-8.542 20.916-14.48 32.352-18.256-6.82 9.378-14.569 20.69-18.708 28.967-3.125 6.25-6.613 14.065-9.223 20.083z"/><path d="m135.5 153.25h15v15h-15z"/><path d="m490.5 286.25h21v15h-21z"/><path d="m59.98 373.405-.148.148c-1.685 1.738-3.934 2.696-6.333 2.696-2.611 0-6.053-1.252-7.885-4.766-.657-1.261-1.004-2.676-1.004-4.093 0-2.241.833-4.369 2.348-6.011l43.396-41.131h-65.854c-5.238 0-9.5-4.262-9.5-9.5s4.262-9.5 9.5-9.5h16v-15h-16c-13.509 0-24.5 10.99-24.5 24.5s10.991 24.5 24.5 24.5h28.222l-16.237 15.39-.262.261c-4.265 4.46-6.614 10.317-6.614 16.491 0 3.821.935 7.634 2.703 11.026 4.126 7.915 12.244 12.832 21.187 12.832 6.458 0 12.501-2.548 17.027-7.178l14.991-14.63-10.477-10.732z"/></g></g></svg>