<svg id="Capa_1" enable-background="new 0 0 512 512" height="512" viewBox="0 0 512 512" width="512" xmlns="http://www.w3.org/2000/svg"><g><g id="Filled_26_"><path d="m470 193c0 30.376-24.624 55-55 55-22.738 0-42.251-13.8-50.627-33.48-5.346 2.24-11.214 3.48-17.373 3.48-15.618 0-29.373-7.959-37.443-20.039-.518.014-1.035.039-1.557.039-30.376 0-55-24.624-55-55 0-13.045 4.551-25.022 12.139-34.451-5.632-5.453-9.139-13.09-9.139-21.549 0-9.227 4.169-17.478 10.723-22.981-1.117-4.152-1.723-8.514-1.723-13.019 0-18.865 10.451-35.284 25.876-43.798-.569-2.308-.876-4.719-.876-7.202h222v193z" fill="#afd2d7"/><path d="m415 218c-22.738 0-42.251-13.8-50.627-33.48-5.346 2.24-11.214 3.48-17.373 3.48-15.618 0-29.373-7.959-37.443-20.039-.518.014-1.035.039-1.557.039-25.174 0-46.382-16.919-52.913-40.002-1.352 4.769-2.087 9.798-2.087 15.002 0 30.376 24.624 55 55 55 .522 0 1.039-.025 1.557-.039 8.07 12.08 21.825 20.039 37.443 20.039 6.159 0 12.027-1.24 17.373-3.48 8.376 19.68 27.889 33.48 50.627 33.48 30.376 0 55-24.624 55-55h42v-30h-42c0 30.376-24.624 55-55 55z" fill="#87bcc4"/><path d="m512 82v341h-64v-228l-60.95-50.96c.85-17.59 13.05-32.18 29.44-36.63l58.51 48.59-1.96-57.81c9.96-9.99 23.73-16.19 38.96-16.19z" fill="#d4b981"/><path d="m453.624 351.9c-1.901.491-3.775 1.066-5.624 1.71v69.39h64v-101c-23.941 0-45.671 11.631-58.376 29.9z" fill="#ad935c"/><path d="m198 183h-170c-11.046 0-20-8.954-20-20v-30c0-11.046 8.954-20 20-20h170c11.046 0 20 8.954 20 20v30c0 11.046-8.954 20-20 20z" fill="#d4b981"/><path d="m66 290h94v87h-94z" fill="#d4b981"/><path d="m28 274v10c0 16.569 13.431 30 30 30h8v-40z" fill="#ffe4c2"/><path d="m113 124c-46.944 0-85 38.056-85 85v65h38v16h94v-16h38v-65c0-46.944-38.056-85-85-85z" fill="#f05475"/><path d="m160 260h-94v-16h-38v30h38v16h94v-16h38v-30h-38z" fill="#e21743"/><path d="m113 137c-19.33 0-35-15.67-35-35v-25h70v25c0 19.33-15.67 35-35 35z" fill="#ffe4c2"/><path d="m148 77h-70v-5c0-19.33 15.67-35 35-35 19.33 0 35 15.67 35 35z" fill="#d4b981"/><path d="m160 314h8c16.569 0 30-13.431 30-30v-10h-38z" fill="#ffe4c2"/><path d="m473.253 379.615c-.417-.012-.833-.029-1.253-.029-9.207 0-17.68 2.867-24.44 7.674-4.537-2.536-9.863-3.996-15.56-3.996-13.077 0-24.194 7.697-28.301 18.43-.565-.017-1.129-.039-1.699-.039-9.533 0-18.442 2.455-26.023 6.713-6.295-9.274-16.924-15.368-28.977-15.368-2.432 0-4.806.249-7.098.721-4.899-9.906-15.102-16.721-26.902-16.721-3.326 0-6.522.549-9.513 1.549-6.67-12.802-20.053-21.549-35.487-21.549-14.552 0-27.287 7.773-34.286 19.392-3.942-1.538-8.227-2.392-12.714-2.392-5.625 0-10.936 1.335-15.646 3.693-5.757-15.023-20.306-25.693-37.354-25.693-.522 0-1.04.02-1.557.039-6.168-17.496-22.837-30.039-42.443-30.039-16.867 0-31.558 9.286-39.263 23.019-.246-.006-.49-.019-.737-.019-16.569 0-30 13.431-30 30 0 .343.014.683.026 1.023-13.164 3.019-23.85 12.525-28.504 24.983-7.472-4.445-16.196-7.006-25.522-7.006v118h512v-160c-18.65 0-34.318 11.736-38.747 27.615z" fill="#d8fc7e"/><path d="m0 482h512v30h-512z" fill="#c3f839"/></g><g fill="#fff"><path d="m105.5 192h15v15h-15z"/><path d="m397 440.5h15v15h-15z"/><path d="m337 33.5h15v15h-15z"/><path d="m27 470.5h15v15h-15z"/><path d="m167 450.5h15v15h-15z"/></g><g id="Outline_26_"><path d="m467.919 372.245c-4.284.337-8.445 1.222-12.419 2.596v-24.352h-15v26.197c-2.774-.602-5.623-.921-8.5-.921-13.907 0-26.567 7.242-33.028 18.464-7.427.36-14.479 2.048-20.903 4.795-7.974-8.554-19.174-13.524-31.069-13.524-1.062 0-2.126.04-3.187.119-6.946-10.06-18.321-16.119-30.813-16.119-1.995 0-3.979.158-5.938.474-8.811-12.759-23.299-20.474-39.062-20.474-14.559 0-28.376 6.817-37.315 18.113-3.16-.74-6.399-1.113-9.685-1.113-4.089 0-8.073.566-11.912 1.689-7.819-13.423-21.962-22.386-37.591-23.559-1.157-2.458-2.5-4.796-3.998-7.011v-16.119h.5c20.678 0 37.5-16.822 37.5-37.5v-39.203h-15v21.703h-23v-59.5h-15v75.5h-79v-75.5h-15v59.5h-23v-21.703h-15v39.203c0 20.678 16.822 37.5 37.5 37.5h.5v26.038c-6.302 5.856-10.599 13.843-11.713 22.808-10.419 3.767-19.139 11.035-24.729 20.552-6.955-2.892-14.453-4.398-22.057-4.398v15c7.646 0 15.144 2.059 21.682 5.953l7.717 4.597 3.146-8.413c3.841-10.271 12.5-17.861 23.162-20.307l6.184-1.419-.374-6.333c-.011-.192-.017-.386-.017-.578 0-12.406 10.093-22.5 22.5-22.5.142 0 .278.007.447.014l4.588.18 2.246-4.005c6.638-11.836 19.176-19.189 32.719-19.189 15.883 0 30.095 10.059 35.365 25.03l1.838 5.222 5.532-.218c.422-.017.843-.034 1.265-.034 13.372 0 25.567 8.388 30.346 20.872l2.961 7.733 7.404-3.71c3.834-1.921 7.969-2.896 12.29-2.896 3.439 0 6.797.631 9.979 1.875l5.891 2.303 3.264-5.418c5.945-9.868 16.362-15.76 27.866-15.76 12.158 0 23.209 6.712 28.839 17.516l2.958 5.678 6.071-2.031c2.306-.771 4.706-1.162 7.131-1.162 8.616 0 16.348 4.808 20.178 12.547l2.565 5.182 5.664-1.162c1.833-.376 3.715-.566 5.593-.566 6.566 0 12.803 2.344 17.7 6.466-10.583 8.409-17.857 20.32-19.726 33.783-15.781 2.81-28.088 14.903-30.165 29.954-18.101 6.52-30.309 22.81-30.309 41.296h15c0-11.496 7.44-21.746 18.665-26.5h47.835v-15h-35.867c2.055-7.59 8.948-13.509 17.592-15h34.275v-15h-21.756c3.706-17.819 21.014-31.345 41.756-31.345.373 0 .743.013 1.112.024l5.689.168 1.903-4.973c3.115-8.141 11.673-13.61 21.296-13.61 4.224 0 8.339 1.052 11.901 3.042l4.14 2.313 3.865-2.748c5.784-4.112 12.732-6.286 20.094-6.286.235 0 .469.009.703.016l6.2.175 1.575-5.646c3.635-13.029 16.597-22.13 31.523-22.13v-15c-19.591 0-36.944 11.162-44.082 27.745zm-300.419-90.745h23v2.5c0 12.406-10.093 22.5-22.5 22.5h-.5zm-109 25h-.5c-12.407 0-22.5-10.094-22.5-22.5v-2.5h23zm94 16.431c-8.31-5.376-18.15-8.431-28.5-8.431-17.514 0-33.822 8.775-43.53 23.165-2.397.225-4.725.683-6.97 1.339v-41.504h79z"/><path d="m22.457 189.939c-1.293 6.203-1.957 12.578-1.957 19.061v20.797h15v-20.797c0-32.83 21.142-62.343 51.869-73.126 5.233 3.97 11.411 6.748 18.131 7.95v33.176h15v-33.176c6.72-1.202 12.898-3.981 18.131-7.95 30.727 10.783 51.869 40.296 51.869 73.126v20.797h15v-20.797c0-6.483-.664-12.858-1.957-19.061 12.516-2.572 21.957-13.674 21.957-26.939v-30c0-15.163-12.336-27.5-27.5-27.5h-42.656c.095-1.156.156-2.32.156-3.5v-17.5h22.5v-15h-22.58c-1.299-22.275-19.826-40-42.42-40s-41.121 17.725-42.42 40h-22.58v15h22.5v17.5c0 1.18.061 2.344.156 3.5h-42.656c-15.164 0-27.5 12.337-27.5 27.5v30c0 13.265 9.441 24.367 21.957 26.939zm128.799-69.439h46.744c6.893 0 12.5 5.607 12.5 12.5v30c0 6.476-4.951 11.816-11.267 12.438-3.086-7.911-7.278-15.414-12.542-22.338-9.689-12.745-22.689-22.842-37.321-29.134.681-1.123 1.31-2.279 1.886-3.466zm-38.256-76c14.32 0 26.113 11.005 27.381 25h-54.762c1.268-13.995 13.061-25 27.381-25zm-27.5 40h55v17.5c0 15.163-12.336 27.5-27.5 27.5s-27.5-12.337-27.5-27.5zm-70 48.5c0-6.893 5.607-12.5 12.5-12.5h46.744c.576 1.187 1.205 2.343 1.886 3.466-14.632 6.292-27.632 16.388-37.321 29.134-5.263 6.924-9.456 14.427-12.542 22.338-6.316-.622-11.267-5.962-11.267-12.438z"/><path d="m472.55 88.55c-6.864-6.397-15.949-10.05-25.55-10.05-14.993 0-28.269 8.758-34.242 22.187-19.498 6.145-33.258 24.575-33.258 45.313 0 .506.009 1.018.027 1.534-6.342 6.089-10.027 14.584-10.027 23.466 0 9.508 4.146 18.511 11.375 24.697l9.754-11.395c-3.895-3.334-6.128-8.183-6.128-13.303 0-5.343 2.486-10.424 6.674-13.734l49.326 41.24v34.574c-7.604 4.863-16.346 7.421-25.5 7.421-19.084 0-36.25-11.352-43.729-28.919l-2.922-6.863-6.879 2.886c-4.582 1.922-9.45 2.896-14.469 2.896-12.55 0-24.215-6.245-31.204-16.706l-2.333-3.494-4.198.166c-.422.017-.843.034-1.265.034-26.191 0-47.5-21.309-47.5-47.5 0-10.94 3.625-21.227 10.483-29.748l4.291-5.331-4.917-4.76c-4.421-4.28-6.856-10.02-6.856-16.161 0-6.662 2.932-12.945 8.043-17.236l3.657-3.07-1.234-4.612c-.976-3.635-1.469-7.363-1.469-11.082 0-15.473 8.432-29.739 22.005-37.234l5.034-2.779-1.377-5.582c-.439-1.781-.662-3.599-.662-5.405h-15c0 1.152.054 2.307.162 3.458-15.643 10.653-25.162 28.416-25.162 47.542 0 3.525.327 7.054.974 10.536-6.387 6.894-9.974 15.945-9.974 25.464 0 8.015 2.485 15.616 7.096 21.96-6.545 10.084-10.096 21.958-10.096 34.04 0 33.707 26.821 61.269 60.243 62.46 9.927 12.619 25.064 20.04 41.257 20.04 4.626 0 9.165-.594 13.562-1.77 11 19.502 31.683 31.77 54.438 31.77 8.926 0 17.553-1.859 25.5-5.422v85.412h15v-28.99h18.5v-15h-18.5v-15h28.5v-15h-28.5v-70.006l-60.577-50.646c1.825-11.196 9.482-20.772 19.984-25.007l68.154 56.602-2.41-71.108c8.665-7.658 19.636-11.835 31.349-11.835v-15c-14.382 0-28.367 5.045-39.45 14.05zm-45.793 17.634c3.712-7.697 11.484-12.684 20.243-12.684 7.522 0 14.517 3.74 18.712 10.005l.005.007 1.222 36.044z"/><path d="m467 420.5h15v15h-15z"/><path d="m305 130.5h15v15h-15z"/><path d="m467 20.5h15v15h-15z"/><path d="m237 420.5h15v15h-15z"/><path d="m107 390.5h15v15h-15z"/></g></g></svg>