<svg id="Capa_1" enable-background="new 0 0 512 512" height="512" viewBox="0 0 512 512" width="512" xmlns="http://www.w3.org/2000/svg"><g><g id="Filled_12_"><g fill="#d4b981"><path d="m76 444h50v60h-50z"/><path d="m386 444h50v60h-50z"/><path d="m284 444h50v60h-50z"/><path d="m178 444h50v60h-50z"/></g><path d="m76 474h50v30h-50z" fill="#ad935c"/><path d="m386 474h50v30h-50z" fill="#ad935c"/><path d="m284 474h50v30h-50z" fill="#ad935c"/><path d="m178 474h50v30h-50z" fill="#ad935c"/><path d="m471 364h20l-30-80h15l-65-150-51 117.692-51-117.692-53 122.308-53-122.308-51 117.692-51-117.692-65 150h15l-30 80h20l-30 80h490z" fill="#d8fc7e"/><path d="m87 88c-15.464 0-28-12.536-28-28s12.536-28 28-28c1.883 0 3.721.189 5.499.543 6.046-14.416 20.29-24.543 36.901-24.543 13.021 0 24.584 6.225 31.888 15.857 2.8-.94 5.795-1.457 8.912-1.457 14.663 0 26.685 11.273 27.892 25.623.301-.014.604-.023.908-.023 11.046 0 20 8.954 20 20s-8.954 20-20 20z" fill="#cbdcfb"/><path d="m212.198 53c-3.523 3.103-8.134 5-13.198 5h-112c-9.944 0-18.67-5.188-23.638-13-2.758 4.337-4.362 9.48-4.362 15 0 15.464 12.536 28 28 28h112c11.046 0 20-8.954 20-20 0-5.982-2.64-11.335-6.802-15z" fill="#94b7f7"/><path d="m399 79c13.807 0 25-11.193 25-25s-11.193-25-25-25c-5.408 0-10.41 1.723-14.5 4.641-4.09-2.918-9.092-4.641-14.5-4.641-4.126 0-8.014 1.006-11.444 2.776-5.428-7.724-14.399-12.776-24.556-12.776-16.569 0-30 13.431-30 30s13.431 30 30 30z" fill="#cbdcfb"/><g fill="#c3f839"><path d="m22.25 414-11.25 30h490l-11.25-30z"/><path d="m491 364-11.25-30h-447.5l-11.25 30z"/><path d="m476 284-13-30h-206l-1 2.308-1-2.308h-206l-13 30z"/></g></g><g fill="#fff"><path d="m398 246.5h15v15h-15z"/><path d="m206 326.5h15v15h-15z"/><path d="m424 406.5h15v15h-15z"/></g><g><path d="m443.5 496.5v-45h68.322l-30-80h20l-30-80h15.601l-43.508-100.402-13.764 5.964 21.424 49.438h-23.575v15h30.076l6.5 15h-85.652l-10.75-24.809 42.826-98.828 13.188 30.436 13.764-5.964-26.952-62.198-51 117.691-16.493-38.06-13.764 5.964 32.833 75.768h-89.652l-8.75-20.192 44.826-103.445 14.779 34.105 13.764-5.964-28.543-65.867-53 122.308-53-122.308-51 117.692-51-117.692-26.952 62.197 13.764 5.964 13.188-30.435 42.826 98.83-10.75 24.807h-85.652l34.423-79.438-13.764-5.964-43.507 100.402h15.601l-30 80h20l-30 80h68.323v45h-68.5v15h512v-15zm41.053-75 5.625 15h-85.98l-24.375-65h85.98l13.125 35h-24.928v15zm-28.751-130 24.375 65h-85.98l-24.375-65zm-252.802-138.637 53.576 123.637h-107.152zm-44.803 138.637h89.605l13.125 35h-24.927v15h30.553l5.625 15h-138.356zm-102 0h85.98l-24.375 65h-85.98zm-34.375 145 24.375-65h85.98l-24.375 65zm96.678 60h-35v-45h35zm52 0h-37v-45h37zm50 0h-35v-45h35zm56 0h-41v-45h41zm-152.678-60 24.375-65h109.605l24.375 65zm202.678 60h-35v-45h35zm52 0h-37v-45h37zm-80.303-60-24.375-65h45.618v-15h-31.243l-24.375-65h89.98l24.375 65h-43.737v15h29.362l24.375 65zm130.303 60h-35v-45h35z"/><path d="m87 95.5h28.873v-15h-28.873c-11.304 0-20.5-9.196-20.5-20.5s9.196-20.5 20.5-20.5c1.349 0 2.706.134 4.035.398l6.011 1.197 2.37-5.652c5.08-12.115 16.85-19.943 29.984-19.943 10.256 0 19.701 4.698 25.912 12.889l3.255 4.293 5.107-1.714c2.109-.708 4.305-1.067 6.525-1.067 10.565 0 19.534 8.237 20.418 18.752l.605 7.19 7.208-.327c.188-.008.377-.015.568-.015 6.893 0 12.5 5.607 12.5 12.5s-5.607 12.5-12.5 12.5h-68.127v15h68.129c15.164 0 27.5-12.336 27.5-27.5 0-13.304-9.497-24.432-22.067-26.961-4.159-15.079-18.125-26.14-34.233-26.14-2.088 0-4.163.183-6.207.546-8.953-9.555-21.306-14.946-34.593-14.946-17.271 0-32.928 9.263-41.3 24.017-.367-.011-.734-.017-1.1-.017-19.575 0-35.5 15.925-35.5 35.5s15.925 35.5 35.5 35.5z"/><path d="m334 86.5h65c17.921 0 32.5-14.58 32.5-32.5s-14.579-32.5-32.5-32.5c-5.09 0-10.021 1.168-14.5 3.411-4.479-2.243-9.41-3.411-14.5-3.411-3.1 0-6.193.45-9.162 1.322-7.005-7.174-16.671-11.322-26.838-11.322-20.678 0-37.5 16.822-37.5 37.5s16.822 37.5 37.5 37.5zm0-60c7.314 0 14.2 3.584 18.42 9.588l3.762 5.353 5.813-3c2.495-1.287 5.188-1.94 8.005-1.94 3.66 0 7.168 1.123 10.144 3.246l4.356 3.109 4.356-3.109c2.976-2.124 6.484-3.247 10.144-3.247 9.649 0 17.5 7.851 17.5 17.5s-7.851 17.5-17.5 17.5h-65c-12.406 0-22.5-10.093-22.5-22.5s10.094-22.5 22.5-22.5z"/></g></g></svg>