<?xml version="1.0" encoding="UTF-8"?>
<svg width="11px" height="10px" viewBox="0 0 11 10" version="1.1" xmlns="http://www.w3.org/2000/svg" xmlns:xlink="http://www.w3.org/1999/xlink">
    <title>Combined Shape</title>
    <g id="Designs" stroke="none" stroke-width="1" fill="none" fill-rule="evenodd">
        <g id="Team-Page" transform="translate(-5500.000000, -10171.000000)" fill="#9C69DC" fill-rule="nonzero">
            <path d="M5510.285,10174.1389 L5510.285,10179.6821 C5510.285,10180.0829 5510.02788,10180.35 5509.64219,10180.35 L5509.64219,10180.35 L5500.64281,10180.35 C5500.25713,10180.35 5500,10180.0829 5500,10179.6821 L5500,10179.6821 L5500,10174.1389 L5504.82109,10176.9439 C5505.00108,10177.0374 5505.28392,10177.0374 5505.46391,10176.9439 L5505.46391,10176.9439 L5510.285,10174.1389 Z M5509.64219,10171 C5510.02788,10171 5510.285,10171.2671 5510.285,10171.6679 L5510.285,10171.6679 L5510.285,10172.6696 L5505.1425,10175.6082 L5500,10172.6029 L5500,10171.6679 C5500,10171.2671 5500.25713,10171 5500.64281,10171 L5500.64281,10171 Z" id="Combined-Shape"></path>
        </g>
    </g>
</svg>