<?xml version="1.0" encoding="UTF-8"?>
<svg width="13px" height="13px" viewBox="0 0 13 13" version="1.1" xmlns="http://www.w3.org/2000/svg" xmlns:xlink="http://www.w3.org/1999/xlink">
    <title>Shape</title>
    <g id="Designs" stroke="none" stroke-width="1" fill="none" fill-rule="evenodd">
        <g id="Team-Page" transform="translate(-5204.000000, -9799.000000)" fill="#9C69DC" fill-rule="nonzero">
            <path d="M5206.44451,9804.26041 C5207.41691,9806.17145 5208.98355,9807.73134 5210.89459,9808.71049 L5212.3802,9807.22488 C5212.56252,9807.04256 5212.83263,9806.98178 5213.06898,9807.06282 C5213.82529,9807.31267 5214.64238,9807.44773 5215.47972,9807.44773 C5215.85113,9807.44773 5216.155,9807.7516 5216.155,9808.123 L5216.155,9810.47972 C5216.155,9810.85113 5215.85113,9811.155 5215.47972,9811.155 C5209.13886,9811.155 5204,9806.01614 5204,9799.67528 C5204,9799.30388 5204.30388,9799 5204.67528,9799 L5207.03875,9799 C5207.41015,9799 5207.71403,9799.30388 5207.71403,9799.67528 C5207.71403,9800.51938 5207.84908,9801.32971 5208.09894,9802.08602 C5208.17322,9802.32237 5208.11919,9802.58573 5207.93012,9802.7748 L5206.44451,9804.26041 Z" id="Shape"></path>
        </g>
    </g>
</svg>