<svg id="Capa_1" enable-background="new 0 0 512 512" height="512" viewBox="0 0 512 512" width="512" xmlns="http://www.w3.org/2000/svg"><g><g><path d="m373.02 279.71c-4.38 37.72-8.76 75.45-13.14 113.17l-102.63 10-105.86-10c-4.25-37.72-8.49-75.45-12.74-113.17l118.6-10z" fill="#e592d0"/><g><path d="m273.5 134.449v-111.898c0-8.312-6.738-15.051-15.051-15.051h-104.479c-8.103 0-15.098 6.226-15.455 14.321-.379 8.593 6.476 15.679 14.985 15.679h88c1.105 0 2 .895 2 2v114.949c0 .028 29.949.051 29.949.051.028 0 .051-20.023.051-20.051z" fill="#faf063"/></g><g><path d="m138.5 22.61c.07 8.23 6.75 14.89 15 14.89h88c1.1 0 2 .9 2 2v114.95c0 .03 29.95.05 29.95.05.02 0-14.95-15.03-14.95-15.05v-106.931c0-5.526-4.482-10.005-10.008-10z" fill="#f8e837"/></g><path d="m383.5 189.5c-3.49 30.07-6.98 60.14-10.48 90.21h-234.37c-3.38-30.07-6.77-60.14-10.15-90.21l127.135-10z" fill="#b2e5fb"/><path d="m359.88 392.88c-3.98 34.26-7.96 68.51-11.94 102.77-.59 5.05-4.86 8.85-9.94 8.85h-165.11c-5.09 0-9.37-3.82-9.94-8.88-3.85-34.25-7.71-68.49-11.56-102.74z" fill="#b2e5fb"/><path d="m171.6 394.79-20.21-1.91c-4.25-37.72-8.49-75.45-12.74-113.17l19.81-1.67c.06.56.13 1.11.19 1.67 4.25 37.72 8.49 75.45 12.74 113.17.07.64.14 1.27.21 1.91z" fill="#e172c1"/><path d="m192.89 504.5h-20c-5.09 0-9.37-3.82-9.94-8.88-3.85-34.25-7.71-68.49-11.56-102.74h20c.07.64.14 1.27.21 1.91 3.78 33.61 7.57 67.22 11.35 100.83.57 5.06 4.85 8.88 9.94 8.88z" fill="#91dafa"/><path d="m383.5 189.5-127.86-10-127.14 10c.75 6.67 1.5 13.33 2.25 20 2.633 23.403 5.269 46.807 7.9 70.21h20c-.06-.56-.13-1.11-.19-1.67-2.362-20.991-4.723-41.987-7.085-62.981-.333-2.964 1.986-5.559 4.969-5.559h224.836c.77-6.67 1.55-13.33 2.32-20z" fill="#91dafa"/><path d="m383.979 189.5h-255.958c-6.612 0-12.021-5.41-12.021-12.021v-30.957c0-6.612 5.41-12.021 12.021-12.021h255.957c6.612 0 12.021 5.41 12.021 12.021v30.957c.001 6.611-5.409 12.021-12.02 12.021z" fill="#407194"/><path d="m148.02 189.5h-20c-6.61 0-12.02-5.41-12.02-12.02v-30.96c0-6.61 5.41-12.02 12.02-12.02h20c-6.61 0-12.02 5.41-12.02 12.02v30.96c0 6.61 5.41 12.02 12.02 12.02z" fill="#365f7e"/></g><path d="m383.979 127h-28.396c-4.143 0-7.5 3.357-7.5 7.5s3.357 7.5 7.5 7.5h28.396c2.451 0 4.521 2.07 4.521 4.521v30.957c0 2.451-2.07 4.521-4.521 4.521h-.479-255-.479c-2.451 0-4.521-2.07-4.521-4.521v-30.957c0-2.451 2.07-4.521 4.521-4.521h113.529 29.898 49.5c4.143 0 7.5-3.357 7.5-7.5s-3.357-7.5-7.5-7.5h-41.948v-104.449c0-12.435-10.116-22.551-22.551-22.551h-104.478c-12.336 0-22.417 9.439-22.949 21.49-.847 12.468 10.026 23.739 22.478 23.51h82.5v82h-105.979c-10.765 0-19.521 8.757-19.521 19.521v30.957c0 8.549 5.531 15.813 13.196 18.449l27.781 239.159c.478 4.115 4.198 7.074 8.315 6.585 4.114-.479 7.063-4.201 6.585-8.315l-3.83-32.975h191.673l-10.623 94.397c-.143 1.266-1.21 2.221-2.484 2.221h-165.115c-1.27 0-2.337-.951-2.483-2.212l-3-25.827c-.479-4.114-4.209-7.059-8.315-6.585-4.114.479-7.063 4.201-6.585 8.315l3 25.828c1.026 8.825 8.499 15.48 17.384 15.48h165.115c8.917 0 16.394-6.682 17.391-15.543l11.569-102.806c0-.001 0-.003 0-.004l12.736-113.171c0-.002 0-.003 0-.005l9.515-84.551c7.654-2.642 13.175-9.901 13.175-18.442v-30.957c0-10.762-8.757-19.519-19.521-19.519zm-142.53-97h-89.949c-4.165.09-7.771-3.686-7.492-7.849.174-3.943 3.746-7.151 7.963-7.151h104.479c4.163 0 7.551 3.388 7.551 7.551v104.449h-15v-89.449c-.001-4.143-3.409-7.551-7.552-7.551zm-82.644 355.382-11.404-98.176h138.549c4.143 0 7.5-3.357 7.5-7.5s-3.357-7.5-7.5-7.5h-140.292l-8.736-75.206h238.187l-8.463 75.206h-45.696c-4.143 0-7.5 3.357-7.5 7.5s3.357 7.5 7.5 7.5h44.008l-11.048 98.176z"/></g></svg>