<?xml version="1.0" encoding="UTF-8"?>
<svg width="464px" height="662px" viewBox="0 0 464 662" version="1.1" xmlns="http://www.w3.org/2000/svg" xmlns:xlink="http://www.w3.org/1999/xlink">
    <title>Group 165</title>
    <defs>
        <path d="M97.591044,0.929438406 L158.467148,23.9615217 L79.1010311,118.707873 C131.859041,157.518822 143.861057,214.689478 143.861057,214.689478 C136.984427,235.153913 113.708482,239.142703 113.708482,239.142703 C110.677391,238.123319 -2.58008549,118.259344 0.773665803,90.707192" id="path-1"></path>
        <path d="M97.591044,0.929438406 L158.467148,23.9615217 L79.1010311,118.707873 C131.859041,157.518822 143.861057,214.689478 143.861057,214.689478 C136.984427,235.153913 113.708482,239.142703 113.708482,239.142703 C110.677391,238.123319 -2.58008549,118.259344 0.773665803,90.707192 C4.12861658,63.1562391 86.4394611,11.5214384 97.591044,0.929438406 Z" id="path-3"></path>
        <path d="M2.88715285,3.61941304 C2.52251036,4.23584058 2.43614767,4.99498188 2.50571762,5.71214855 L2.50571762,5.71214855 C2.56089378,6.2794058 2.94592746,6.83107246 2.92433679,7.39473188 L2.92433679,7.39473188 C2.90274611,7.91761594 2.09309585,9.33755797 2.09429534,10.4792681 L2.09429534,10.4792681 C2.09789378,11.2480036 2.65805181,12.6367645 2.90634456,13.3083587 L2.90634456,13.3083587 C3.23620207,14.198221 2.77200259,14.8386341 2.54769948,15.7165036 L2.54769948,15.7165036 C2.07390415,17.5969674 2.24183161,19.6633188 3.05148187,21.327913 L3.05148187,21.327913 C3.30937047,21.9683261 0.87442228,24.6127283 1.13470984,25.9019493 L1.13470984,25.9019493 C1.53293782,27.8807536 5.11698964,30.1485833 6.65952332,31.4174167 L6.65952332,31.4174167 C7.29284974,31.9379022 7.95496373,32.4583877 8.73942487,32.6970435 L8.73942487,32.6970435 C9.34156477,32.8793333 9.98208808,32.886529 10.6106166,32.8853297 L10.6106166,32.8853297 C11.345899,32.8841304 12.1063705,32.8877283 12.8836347,32.8913261 L12.8836347,32.8913261 C18.5271969,32.9177101 25.0943601,32.9440942 30.1417798,30.983279 L30.1417798,30.983279 C30.6179741,30.7985906 31.7095026,30.4352101 31.6917301,29.824779 L31.6917301,29.824779 C31.6063472,27.1012246 24.3039016,26.3684674 24.3039016,26.3684674 L24.3039016,26.3684674 C24.3039016,26.3684674 28.7827668,24.6690942 29.3897047,21.3542971 L29.3897047,21.3542971 C29.8167202,19.0169094 26.7328523,16.5691884 26.7328523,16.5691884 L26.7328523,16.5691884 C26.7328523,16.5691884 30.4464482,14.1238659 29.9762513,11.8668297 L29.9762513,11.8668297 C29.4868627,9.51625 26.7100622,8.02914855 26.7100622,8.02914855 L26.7100622,8.02914855 C26.7100622,8.02914855 29.1450104,6.22663768 28.3329611,4.61840942 L28.3329611,4.61840942 C27.8195829,3.60502174 18.7275104,0.274634058 11.3842824,0.274634058 L11.3842824,0.274634058 C7.64069948,0.275833333 4.35172021,1.14051087 2.88715285,3.61941304" id="path-5"></path>
        <path d="M2.88715285,3.61941304 C2.52251036,4.23584058 2.43614767,4.99498188 2.50571762,5.71214855 L2.50571762,5.71214855 C2.56089378,6.2794058 2.94592746,6.83107246 2.92433679,7.39473188 L2.92433679,7.39473188 C2.90274611,7.91761594 2.09309585,9.33755797 2.09429534,10.4792681 L2.09429534,10.4792681 C2.09789378,11.2480036 2.65805181,12.6367645 2.90634456,13.3083587 L2.90634456,13.3083587 C3.23620207,14.198221 2.77200259,14.8386341 2.54769948,15.7165036 L2.54769948,15.7165036 C2.07390415,17.5969674 2.24183161,19.6633188 3.05148187,21.327913 L3.05148187,21.327913 C3.30937047,21.9683261 0.87442228,24.6127283 1.13470984,25.9019493 L1.13470984,25.9019493 C1.53293782,27.8807536 5.11698964,30.1485833 6.65952332,31.4174167 L6.65952332,31.4174167 C7.29284974,31.9379022 7.95496373,32.4583877 8.73942487,32.6970435 L8.73942487,32.6970435 C9.34156477,32.8793333 9.98208808,32.886529 10.6106166,32.8853297 L10.6106166,32.8853297 C11.345899,32.8841304 12.1063705,32.8877283 12.8836347,32.8913261 L12.8836347,32.8913261 C18.5271969,32.9177101 25.0943601,32.9440942 30.1417798,30.983279 L30.1417798,30.983279 C30.6179741,30.7985906 31.7095026,30.4352101 31.6917301,29.824779 L31.6917301,29.824779 C31.6063472,27.1012246 24.3039016,26.3684674 24.3039016,26.3684674 L24.3039016,26.3684674 C24.3039016,26.3684674 28.7827668,24.6690942 29.3897047,21.3542971 L29.3897047,21.3542971 C29.8167202,19.0169094 26.7328523,16.5691884 26.7328523,16.5691884 L26.7328523,16.5691884 C26.7328523,16.5691884 30.4464482,14.1238659 29.9762513,11.8668297 L29.9762513,11.8668297 C29.4868627,9.51625 26.7100622,8.02914855 26.7100622,8.02914855 L26.7100622,8.02914855 C26.7100622,8.02914855 29.1450104,6.22663768 28.3329611,4.61840942 L28.3329611,4.61840942 C27.8195829,3.60502174 18.7275104,0.274634058 11.3842824,0.274634058 L11.3842824,0.274634058 C7.64069948,0.275833333 4.35172021,1.14051087 2.88715285,3.61941304" id="path-7"></path>
        <path d="M1.88715285,3.61941304 C1.52251036,4.23584058 1.43614767,4.99498188 1.50571762,5.71214855 L1.50571762,5.71214855 C1.56089378,6.2794058 1.94592746,6.83107246 1.92433679,7.39473188 L1.92433679,7.39473188 C1.90274611,7.91761594 1.09309585,9.33755797 1.09429534,10.4792681 L1.09429534,10.4792681 C1.09789378,11.2480036 1.65805181,12.6367645 1.90634456,13.3083587 L1.90634456,13.3083587 C2.23620207,14.198221 1.77200259,14.8386341 1.54769948,15.7165036 L1.54769948,15.7165036 C1.07390415,17.5969674 1.24183161,19.6633188 2.05148187,21.327913 L2.05148187,21.327913 C2.30937047,21.9683261 -0.12557772,24.6127283 0.134709845,25.9019493 L0.134709845,25.9019493 C0.532937824,27.8807536 4.11698964,30.1485833 5.65952332,31.4174167 L5.65952332,31.4174167 C6.29284974,31.9379022 6.95496373,32.4583877 7.73942487,32.6970435 L7.73942487,32.6970435 C8.34156477,32.8793333 8.98208808,32.886529 9.61061658,32.8853297 L9.61061658,32.8853297 C10.345899,32.8841304 11.1063705,32.8877283 11.8836347,32.8913261 L11.8836347,32.8913261 C17.5271969,32.9177101 24.0943601,32.9440942 29.1417798,30.983279 L29.1417798,30.983279 C29.6179741,30.7985906 30.7095026,30.4352101 30.6917301,29.824779 L30.6917301,29.824779 C30.6063472,27.1012246 23.3039016,26.3684674 23.3039016,26.3684674 L23.3039016,26.3684674 C23.3039016,26.3684674 27.7827668,24.6690942 28.3897047,21.3542971 L28.3897047,21.3542971 C28.8167202,19.0169094 25.7328523,16.5691884 25.7328523,16.5691884 L25.7328523,16.5691884 C25.7328523,16.5691884 29.4464482,14.1238659 28.9762513,11.8668297 L28.9762513,11.8668297 C28.4868627,9.51625 25.7100622,8.02914855 25.7100622,8.02914855 L25.7100622,8.02914855 C25.7100622,8.02914855 28.1450104,6.22663768 27.3329611,4.61840942 L27.3329611,4.61840942 C26.8195829,3.60502174 17.7275104,0.274634058 10.3842824,0.274634058 L10.3842824,0.274634058 C6.64069948,0.275833333 3.35172021,1.14051087 1.88715285,3.61941304" id="path-9"></path>
        <linearGradient x1="37.1547737%" y1="81.3660252%" x2="44.8309987%" y2="9.30991745%" id="linearGradient-11">
            <stop stop-color="#2D3A5B" offset="0%"></stop>
            <stop stop-color="#758CC6" offset="100%"></stop>
        </linearGradient>
        <path d="M103.452912,1.76173551 C103.452912,1.76173551 193.007427,-5.5394529 178.413332,25.9583152 C150.791663,85.5646993 71.896943,119.874768 72.0768653,123.868355 C74.1363756,169.198565 49.4306477,278.802739 49.4306477,278.802739 C25.4386114,278.335022 10.6801865,280.589659 10.6801865,280.589659 C5.57519171,269.738616 -7.48356736,155.183833 9.96649482,100.414127 C17.7379378,76.0244638 81.0813756,17.1412428 103.452912,1.76173551 Z" id="path-12"></path>
        <linearGradient x1="61.058506%" y1="17.1162903%" x2="27.4064859%" y2="57.4578695%" id="linearGradient-14">
            <stop stop-color="#2D3A5B" offset="0%"></stop>
            <stop stop-color="#38466A" offset="100%"></stop>
        </linearGradient>
        <path d="M212.688526,55.0575326 C212.359868,55.594808 212.024013,56.1224891 211.692956,56.6561667 C184.079684,105.054123 125.293078,138.687801 110.246777,148.543446 C136.892067,181.509127 143.861057,214.689478 143.861057,214.689478 C136.984427,235.153913 113.708482,239.142703 113.708482,239.142703 C113.085951,238.93283 107.799834,233.695594 99.8268782,225.271884 C93.1517617,266.738029 84.2156218,306.386072 84.2156218,306.386072 C60.2235855,305.918355 45.4663601,308.172993 45.4663601,308.172993 C41.109842,298.914587 30.9682228,214.166594 38.9231865,155.466862 C17.1369974,128.093402 -0.581748705,101.849659 0.773665803,90.707192 C4.12861658,63.1562391 86.4394611,11.5214384 97.591044,0.929438406 L158.467148,23.9615217 L154.540044,28.6482899 C176.243469,28.3172899 212.190741,30.1054094 214.660474,45.3709855 C215.491715,48.1161268 214.973539,51.3193913 212.688526,55.0575326 Z" id="path-15"></path>
        <polygon id="path-17" points="0 0.66883587 18.3947741 0.66883587 18.3947741 80.0032996 0 80.0032996"></polygon>
        <polygon id="path-19" points="1.15678031 0.253646739 143.593573 0.253646739 143.593573 88.9412591 1.15678031 88.9412591"></polygon>
    </defs>
    <g id="Designs" stroke="none" stroke-width="1" fill="none" fill-rule="evenodd">
        <g id="Team-Page" transform="translate(-15264.000000, -3216.000000)">
            <g id="Group-165" transform="translate(15264.000000, 3216.000000)">
                <g id="Group-53" transform="translate(62.173575, 80.508750)">
                    <path d="M215.181537,226.35447 L224.880547,189.459963 C224.880547,189.459963 255.468534,201.596629 278.973581,188.549713 L281.785167,229.719637 C281.785167,229.719637 250.371936,248.96201 215.181537,226.35447" id="Fill-1" fill="#E1E6ED"></path>
                    <path d="M226.2873,135.028092 C226.2873,135.028092 174.187805,98.4681826 150.344504,52.1869471 C150.344504,52.1869471 103.967738,80.3123529 90.4711676,82.1580377 C90.4711676,82.1580377 103.285232,119.395538 156.74374,157.672809 C156.74374,157.672809 213.13738,135.320715 226.2873,135.028092" id="Fill-3" fill="#E1E6ED"></path>
                    <path d="M158.391228,282.120774 L216.135485,246.483108 C216.135485,246.483108 240.652894,299.6206 286.934902,311.628945 L240.067547,368.113615 C240.067547,368.113615 175.997223,354.389108 158.391228,282.120774" id="Fill-5" fill="#E1E6ED"></path>
                    <path d="M188.48251,476.360089 C189.722774,468.38131 184.093606,462.767502 176.089463,464.974169 C163.348567,468.485647 154.22051,481.77002 139.517261,477.012495 C138.324976,476.627528 137.813997,478.501995 139.000285,478.885763 C145.162023,480.880158 151.127046,479.763633 156.997311,477.278734 C160.816461,475.660912 164.345337,473.553785 167.85622,471.362709 C169.856956,470.114263 171.806114,468.857422 173.96878,467.900401 C180.196489,465.146864 187.912756,467.451872 186.608919,475.843201 C186.417002,477.066462 188.290593,477.592944 188.48251,476.360089" id="Fill-7" fill="#2E3A5B"></path>
                    <polygon id="Fill-9" fill="#FFB2B4" points="143.428172 435.738114 170.619226 460.531933 187.755024 450.362078 160.643136 398.849603"></polygon>
                    <polygon id="Fill-11" fill="#E1E6ED" points="161.838539 452.525691 170.618747 460.532053 191.525716 457.527868 179.683231 435.025864"></polygon>
                    <polygon id="Fill-13" fill="#EC9193" points="143.428172 435.738114 150.950123 442.597969 178.172364 432.155879 160.643136 398.849603"></polygon>
                    <path d="M199.306035,443.908178 C191.289897,445.407272 185.732698,442.139246 182.554071,440.501036 C182.554071,440.501036 182.527682,440.539413 182.489299,440.59458 C185.604353,449.639514 177.145607,457.539141 177.145607,457.539141 L174.96375,456.374645 C173.777462,455.740228 172.296102,456.161174 171.626791,457.32687 C170.655211,459.015449 170.10105,460.177547 170.30976,460.33825 C173.478791,462.776377 175.768602,471.601844 176.507483,476.40854 C177.434682,482.426504 180.257063,496.446033 177.798125,501.211953 C175.340387,505.979072 165.514232,524.247634 176.658618,528.383935 C187.804203,532.521435 219.176651,453.75183 218.436571,448.943935 C217.69769,444.137239 207.322172,442.409083 199.306035,443.908178" id="Fill-15" fill="#9560D9"></path>
                    <path d="M176.258111,529.206638 C187.6268,533.428087 219.630175,453.074239 218.874502,448.170402 C218.611815,446.45304 217.137652,445.123043 214.988181,444.182812 C211.953491,453.875355 193.973258,509.522931 175.33331,528.80488 C175.627183,528.948793 175.931852,529.085511 176.258111,529.206638" id="Fill-17" fill="#2E3A5B"></path>
                    <path d="M202.096149,459.3618 C200.907463,462.898463 197.073919,464.802912 193.536647,463.61443 C189.998175,462.425949 188.093398,458.594264 189.282085,455.056401 C190.471971,451.519738 194.303116,449.615289 197.841587,450.803771 C201.380059,451.992253 203.284836,455.823938 202.096149,459.3618" id="Fill-19" fill="#E1E6ED"></path>
                    <path d="M125.378489,201.208424 C114.226906,211.800424 31.9160614,263.435225 28.5611106,290.986178 C25.2073593,318.53833 138.464836,438.402304 141.497126,439.421688 C141.497126,439.421688 164.771872,435.432899 171.648502,414.968464 C171.648502,414.968464 159.646486,357.797808 106.888476,318.986859 L186.254592,224.240507 L125.378489,201.208424 Z" id="Fill-21" fill="#F4B132"></path>
                    <g id="Group-25" transform="translate(27.787565, 200.278986)">
                        <mask id="mask-2" fill="white">
                            <use xlink:href="#path-1"></use>
                        </mask>
                        <g id="Clip-24"></g>
                        <path d="M52.4640174,74.3452384 C25.9686624,88.7509341 -9.97381166,124.982242 30.2484137,144.754695 C71.1111624,164.841358 122.519756,85.5272819 117.072909,48.1146877 C116.758644,47.7704957 73.6648593,62.8190029 52.4640174,74.3452384" id="Fill-23" fill="#9560D9" mask="url(#mask-2)"></path>
                    </g>
                    <g id="Group-28" transform="translate(27.787565, 200.278986)">
                        <mask id="mask-4" fill="white">
                            <use xlink:href="#path-3"></use>
                        </mask>
                        <g id="Clip-27"></g>
                        <polygon id="Fill-26" fill="#9560D9" mask="url(#mask-4)" points="70.3461329 113.79828 142.878801 217.613551 155.226268 150.749153"></polygon>
                    </g>
                    <path d="M236.623475,0.72088442 C236.623475,0.72088442 226.175988,34.015167 238.783742,49.2159822 C251.391496,64.4155982 218.975498,83.3569533 218.975498,83.3569533 L177.004428,80.2220475 L178.660913,75.2966236 L184.900617,56.7270438 L195.049433,54.4508192 L196.615957,21.8641091 L236.623475,0.72088442 Z" id="Fill-29" fill="#F4C5BE"></path>
                    <path d="M176.897674,58.8400471 C162.146446,70.2295652 120.49204,110.797453 105.554892,139.590855 C105.554892,139.590855 48.6958531,123.020467 26.7069516,118.163402 C4.71805,113.306337 10.4791614,136.327627 10.4791614,136.327627 C10.4791614,136.327627 92.553708,183.300844 109.490392,185.616645 C126.428275,187.933645 199.169654,119.588141 199.169654,119.588141 L182.322931,60.634163 C181.65362,58.2883804 178.82884,57.3493478 176.897674,58.8400471" id="Fill-31" fill="#9560D9"></path>
                    <path d="M25.2686528,130.422995 C29.0194326,120.907944 34.5562409,110.95156 41.531228,103.9346 C48.8228782,96.597433 52.6624197,101.154679 48.9680155,111.430071 C46.9804741,116.957531 39.5712746,132.325045 34.1316244,134.27027 C30.9374041,135.410781 28.4364845,132.561303 25.2686528,130.422995" id="Fill-33" fill="#EC9193"></path>
                    <path d="M85.3997583,23.7390562 C85.3997583,23.7390562 68.3431262,84.9872482 79.270406,135.837723 C79.270406,135.837723 25.6295769,143.505889 14.0377842,150.634382 C14.0377842,150.634382 0.324108031,113.760263 17.3423567,50.3257917 C17.3423567,50.3257917 75.0602246,31.8497554 85.3997583,23.7390562" id="Fill-35" fill="#F0F3FA"></path>
                    <path d="M68.2683984,70.1664833 C67.7850073,74.6385812 67.6014865,82.8440232 67.6206782,84.2064 C67.6410694,85.5675775 19.3763181,101.123378 17.7414244,101.201556 C16.1077301,101.276886 20.6273777,82.2911572 20.6273777,82.2911572 L68.2683984,70.1664833 Z" id="Fill-37" fill="#E1E6ED"></path>
                    <polygon id="Fill-39" fill="#E1E6ED" points="64.8844202 101.060656 64.5581611 103.38725 17.4245212 116.034808 18.5328425 113.395203"></polygon>
                    <polygon id="Fill-41" fill="#E1E6ED" points="66.0252474 94.1191304 65.6989883 96.4457246 18.5653484 109.093283 19.6724702 106.454877"></polygon>
                    <polygon id="Fill-43" fill="#E1E6ED" points="68.4605554 62.2962388 68.1330969 64.6216337 21.0006565 77.2703909 22.1077782 74.6307859"></polygon>
                    <polygon id="Fill-45" fill="#E1E6ED" points="69.6003031 55.354713 69.274044 57.6813072 22.1404041 70.3288652 23.2475259 67.6892601"></polygon>
                    <path d="M30.4765632,122.247055 C30.4765632,122.247055 30.5281409,124.722359 30.7968249,126.22625 C31.0643093,127.730142 19.1390606,130.135888 19.1390606,130.135888 L18.5896979,125.759732 L30.4765632,122.247055 Z" id="Fill-47" fill="#E1E6ED"></path>
                    <path d="M31.4628972,129.297475 C31.4628972,129.297475 31.1870163,129.65246 31.4545008,131.156351 C31.7219852,132.660243 19.7967365,135.065989 19.7967365,135.065989 L19.5760319,132.808953 L31.4628972,129.297475 Z" id="Fill-49" fill="#E1E6ED"></path>
                    <path d="M27.3326013,113.752587 C27.8087956,115.489138 25.7097023,117.163326 25.7097023,117.163326 C25.7097023,117.163326 28.4865028,118.650428 28.9758915,121.001008 C29.4472878,123.258044 25.7324925,125.703366 25.7324925,125.703366 C25.7324925,125.703366 28.8163604,128.151087 28.3893448,130.488475 C27.782407,133.803272 23.3047412,135.502645 23.3047412,135.502645 C23.3047412,135.502645 30.6059873,136.235403 30.6913703,138.960156 C30.7091427,139.568189 29.6176142,139.932768 29.1426194,140.117457 C23.3995003,142.348109 15.6916298,142.006316 9.61145622,142.018308 C8.98172824,142.019508 8.34120492,142.013511 7.73906503,141.831221 C6.95580337,141.592566 6.2924899,141.070881 5.66036295,140.551595 C4.11782927,139.281562 0.532577979,137.013732 0.13435,135.036127 C-0.125937565,133.746906 2.30901062,131.102504 2.05112202,130.462091 C1.24147176,128.797497 1.0735443,126.731145 1.54853912,124.850682 C1.77044326,123.971613 2.23584223,123.332399 1.9071842,122.441337 C1.65889145,121.770942 1.09753394,120.380982 1.09513497,119.613446 C1.09273601,118.472935 1.90358575,117.051794 1.92397694,116.527711 C1.9467671,115.96525 1.56173342,115.413584 1.50655725,114.845127 C1.43578782,114.127961 1.52215052,113.370018 1.88679301,112.753591 C6.22291995,105.411627 26.5289484,110.826355 27.3326013,113.752587" id="Fill-51" fill="#FFB2B4"></path>
                </g>
                <g id="Group-63" transform="translate(61.173575, 189.642808)">
                    <g id="Group-56">
                        <mask id="mask-6" fill="white">
                            <use xlink:href="#path-5"></use>
                        </mask>
                        <g id="Clip-55"></g>
                        <path d="M17.5957992,8.52205072 C22.2857733,8.99336594 26.9649521,9.52824275 31.6333355,8.62878623 C32.9131826,8.38173551 32.3710168,6.42811594 31.0947681,6.67396739 C26.6278977,7.5350471 22.075864,6.94500362 17.5957992,6.49647464 C16.2991593,6.36575362 16.3075557,8.39372826 17.5957992,8.52205072" id="Fill-54" fill="#EC9193" mask="url(#mask-6)"></path>
                    </g>
                    <g id="Group-59">
                        <mask id="mask-8" fill="white">
                            <use xlink:href="#path-7"></use>
                        </mask>
                        <g id="Clip-58"></g>
                        <path d="M17.9308145,17.8235105 C22.0882187,17.9566301 26.2192342,17.7803366 30.3490503,17.2958293 C31.6288974,17.1447207 31.6444907,15.1155467 30.3490503,15.2678547 C26.2180347,15.7535612 22.0882187,15.9298547 17.9308145,15.7979344 C16.6257782,15.7547605 16.6281772,17.7815359 17.9308145,17.8235105" id="Fill-57" fill="#EC9193" mask="url(#mask-8)"></path>
                    </g>
                    <g id="Group-62" transform="translate(1.000000, 0.000000)">
                        <mask id="mask-10" fill="white">
                            <use xlink:href="#path-9"></use>
                        </mask>
                        <g id="Clip-61"></g>
                        <path d="M15.1409477,26.9340457 C19.5970228,27.7207703 23.9979218,27.6176326 28.4072171,26.5934514 C29.6762689,26.2984297 29.138901,24.3436109 27.8674503,24.6386326 C23.8203984,25.5800638 19.7709477,25.7035891 15.679515,24.9792268 C14.4044658,24.7549623 13.8563026,26.7073826 15.1409477,26.9340457" id="Fill-60" fill="#EC9193" mask="url(#mask-10)"></path>
                    </g>
                </g>
                <g id="Group-164" transform="translate(0.000000, 0.157301)">
                    <polygon id="Fill-64" fill="#FFB2B4" points="138.030136 579.537586 143.835628 615.872032 163.575501 618.599184 174.489587 561.421333"></polygon>
                    <polygon id="Fill-66" fill="#E1E6ED" points="141.961318 604.139161 143.834908 615.871672 163.575981 618.600024 166.825377 601.57631"></polygon>
                    <polygon id="Fill-68" fill="#EC9193" points="138.030136 579.537586 140.117234 592.604891 167.433035 598.390195 174.489587 561.421333"></polygon>
                    <path d="M173.377427,622.923531 C167.230082,617.566368 166.347264,611.181426 165.659961,607.672346 C165.659961,607.672346 165.61438,607.674745 165.547209,607.679542 C160.38344,615.732676 148.939183,613.998524 148.939183,613.998524 L148.500173,611.563995 C148.261476,610.241194 147.012816,609.340538 145.681391,609.538419 C143.756222,609.823846 142.500365,610.110473 142.503963,610.373114 C142.555541,614.371499 137.052318,621.640307 133.739349,625.200955 C129.59274,629.659861 120.344735,640.569669 115.080209,641.597448 C109.815683,642.626426 89.3885073,646.250636 93.0553233,657.557404 C96.7233389,668.865372 177.979839,644.613625 181.292808,641.051778 C184.604577,637.48993 179.525971,628.280694 173.377427,622.923531" id="Fill-70" fill="#9560D9"></path>
                    <path d="M92.1476754,657.759842 C95.8876598,669.294472 178.779054,644.554621 182.157994,640.922016 C183.340683,639.649585 183.471427,637.669581 182.876484,635.399353 C173.388582,639.031958 118.578258,659.444824 91.8897868,656.78603 C91.9581573,657.105038 92.039722,657.428842 92.1476754,657.759842" id="Fill-72" fill="#2E3A5B"></path>
                    <path d="M165.344137,630.225679 C164.155451,633.763541 160.323106,635.667991 156.784634,634.479509 C153.247362,633.291027 151.342585,629.458143 152.531272,625.92148 C153.721158,622.383617 157.552303,620.479168 161.090774,621.66765 C164.628046,622.856132 166.532824,626.689016 165.344137,630.225679" id="Fill-74" fill="#E1E6ED"></path>
                    <path d="M228.198666,309.975863 C205.828329,325.354171 142.483692,384.238592 134.713448,408.628255 C117.263386,463.397961 130.320946,577.951545 135.425941,588.803787 C135.425941,588.803787 150.184366,586.54795 174.176402,587.016867 C174.176402,587.016867 198.883329,477.411494 196.823819,432.081284 C196.642697,428.087697 262.545829,401.28749 302.649306,335.687128 C320.756684,306.069824 228.198666,309.975863 228.198666,309.975863" id="Fill-76" fill="url(#linearGradient-11)"></path>
                    <g id="Group-80" transform="translate(124.746114, 308.213768)">
                        <mask id="mask-13" fill="white">
                            <use xlink:href="#path-12"></use>
                        </mask>
                        <g id="Clip-79"></g>
                        <path d="M175.669757,-0.995998188 C144.286513,57.2312192 62.5274303,89.6512301 53.3573915,116.935944 C38.505407,161.129241 47.3647801,292.914013 47.3647801,292.914013 L189.361842,136.478136 L188.125176,19.6639185 L175.669757,-0.995998188 Z" id="Fill-78" fill="#9560D9" mask="url(#mask-13)"></path>
                    </g>
                    <g id="Group-83" transform="translate(89.961140, 280.630435)">
                        <mask id="mask-16" fill="white">
                            <use xlink:href="#path-15"></use>
                        </mask>
                        <use id="Clip-82" fill="url(#linearGradient-14)" xlink:href="#path-15"></use>
                        <path d="M95.3173062,0.165739855 C95.3173062,0.165739855 101.005249,53.5274971 186.651853,87.3614536 C278.697692,123.722283 212.738184,47.7793703 212.738184,47.7793703 L95.3173062,0.165739855 Z" id="Fill-81" fill="#9560D9" mask="url(#mask-16)"></path>
                    </g>
                    <path d="M322.204459,129.279965 C321.447586,128.060302 312.383101,128.49444 300.956837,129.566592 C292.247399,146.595103 270.918213,164.380357 254.984296,158.126136 C241.948327,153.008828 251.288692,141.686469 257.222529,134.801429 C253.288228,135.338704 250.87607,135.682896 250.87607,135.682896 C240.506549,136.415654 222.531114,144.717038 219.172565,174.796063 C215.812816,204.876288 191.361378,277.635125 185.284803,280.6549 C179.208228,283.673476 220.644329,351.155501 306.286135,334.799784 C306.286135,334.799784 363.265122,195.369632 322.204459,129.279965" id="Fill-84" fill="#9560D9"></path>
                    <path d="M309.004281,38.9079707 C305.313475,52.450188 291.34191,60.437362 277.798561,56.7483909 C264.254011,53.0594199 256.265462,39.0902605 259.955068,25.5480431 C263.645874,12.0058257 277.616239,4.01865181 291.160789,7.70762283 C304.705338,11.3977931 312.693887,25.3669525 309.004281,38.9079707" id="Fill-86" fill="#2E3A5B"></path>
                    <path d="M307.155879,53.1822257 C298.214941,56.0400989 288.649074,51.1098779 285.790708,42.1704793 C282.932343,33.2310808 287.862213,23.6668598 296.803151,20.8089866 C305.744089,17.9499141 315.309957,22.8801351 318.169522,31.820733 C321.027887,40.7601315 316.096817,50.3231533 307.155879,53.1822257" id="Fill-88" fill="#2E3A5B"></path>
                    <path d="M307.162956,76.0129507 C293.61241,80.3447333 279.114272,72.8744471 274.782943,59.3250341 C270.450415,45.7768203 277.921987,31.2823783 291.473733,26.9505957 C305.02428,22.618813 319.522417,30.0890993 323.853746,43.6385123 C328.186275,57.1867261 320.714702,71.6823674 307.162956,76.0129507" id="Fill-90" fill="#2E3A5B"></path>
                    <path d="M296.430832,99.7009178 C287.489894,102.55999 277.924026,97.6297692 275.065661,88.6903707 C272.207296,79.7509721 277.137166,70.1867511 286.078104,67.3288779 C295.019042,64.4698054 304.58491,69.4000264 307.444475,78.339425 C310.30284,87.2800228 305.37177,96.8430446 296.430832,99.7009178" id="Fill-92" fill="#2E3A5B"></path>
                    <path d="M272.552507,81.8722504 C256.677364,86.9463844 239.692701,78.1952721 234.617693,62.3216634 C229.541486,46.449254 238.295305,29.4687141 254.171647,24.3933808 C270.04559,19.3180475 287.030253,28.0715583 292.10646,43.9439678 C297.181468,59.8151779 288.427649,76.7981163 272.552507,81.8722504" id="Fill-94" fill="#2E3A5B"></path>
                    <path d="M309.034748,87.3451435 C304.46952,88.8046616 299.586429,86.2873826 298.12666,81.7241399 C296.66689,77.1608971 299.184603,72.2786471 303.749831,70.819129 C308.31266,69.3596109 313.19695,71.8768899 314.656719,76.4401326 C316.115289,81.0033754 313.598776,85.8856254 309.034748,87.3451435" id="Fill-96" fill="#2E3A5B"></path>
                    <path d="M311.832059,80.6894051 C303.146611,83.4657275 293.854225,78.677021 291.076225,69.9930681 C288.299425,61.3091152 293.088956,52.018329 301.774404,49.2408072 C310.459852,46.4644848 319.753438,51.2531913 322.530238,59.9371442 C325.307039,68.6210971 320.517508,77.9142819 311.832059,80.6894051" id="Fill-98" fill="#2E3A5B"></path>
                    <path d="M259.161371,25.4477837 C246.887073,28.3956025 238.898524,37.1671025 233.678379,65.2661243 C228.35268,93.9288054 238.208822,120.943682 244.634446,122.497943 C263.58506,127.082773 293.417374,111.781218 294.752397,94.4732764 C296.612794,70.3678417 301.578648,45.2766025 294.281001,36.2724431 C286.982154,27.269483 276.423115,21.3018888 259.161371,25.4477837" id="Fill-100" fill="#F4C5BE"></path>
                    <path d="M240.241464,39.1212018 C235.381163,50.8501149 258.976171,62.1125098 283.122941,51.4077779 C283.122941,51.4077779 272.222049,80.5933431 288.375472,84.8195895 C292.303775,85.8485678 285.037314,98.9338612 294.993013,100.958238 C294.993013,100.958238 296.278858,96.3662127 302.50177,90.422604 C312.80292,80.5849482 321.859008,68.8476402 317.159438,45.7531946 C309.659078,8.89106775 255.919891,1.29245906 240.241464,39.1212018" id="Fill-102" fill="#2E3A5B"></path>
                    <path d="M286.193134,35.2235569 C282.148482,50.0657888 266.835896,58.8204989 251.991109,54.7765424 C237.146321,50.7337851 228.391303,35.4238359 232.435956,20.581604 C236.479409,5.7393721 251.791995,-3.01533804 266.636782,1.02861848 C281.48157,5.07137572 290.236588,20.381325 286.193134,35.2235569" id="Fill-104" fill="#2E3A5B"></path>
                    <path d="M279.089923,60.4762185 C267.803998,64.084838 255.727615,57.8617982 252.119573,46.576617 C248.511532,35.2926351 254.734444,23.2195301 266.020368,19.6121098 C277.308692,16.0034902 289.382677,22.2253308 292.991918,33.5117112 C296.601159,44.7956931 290.375848,56.8675989 279.089923,60.4762185" id="Fill-106" fill="#2E3A5B"></path>
                    <path d="M286.98959,69.0831779 C282.299616,70.5834714 277.282184,67.9978337 275.782831,63.308667 C274.28228,58.6183011 276.868362,53.6017322 281.559536,52.102638 C286.24951,50.6035438 291.266943,53.1891815 292.766295,57.8783482 C294.265647,62.5675149 291.679565,67.5840837 286.98959,69.0831779" id="Fill-108" fill="#2E3A5B"></path>
                    <path d="M280.663043,90.5728732 C284.422219,92.6967899 296.310284,93.5986449 300.994261,82.680442 C305.678238,71.7598406 291.614313,67.6895 285.327828,77.0570399 C279.038945,86.4245797 280.663043,90.5728732 280.663043,90.5728732" id="Fill-110" fill="#F4C5BE"></path>
                    <path d="M307.564663,329.158393 C312.968328,315.123273 333.847709,257.812302 336.73966,203.145733 C331.706634,198.861922 325.596474,194.682447 318.259243,190.514965 C306.026927,250.043396 303.642357,300.683998 307.564663,329.158393" id="Fill-112" fill="#9560D9"></path>
                    <path d="M374.068016,380.802188 C377.650868,384.093 379.856715,385.575304 381.007018,384.392818 C382.243684,383.121587 380.318516,379.641289 373.493464,369.116449 C371.225244,365.618163 368.880256,361.99875 368.676345,361.110087 C368.104192,358.606 370.216479,346.162318 371.077707,341.579887 L371.218047,340.831539 L354.687987,337.378826 L353.066288,355.414728 C352.959534,356.599612 352.886365,357.429511 352.853979,358.011159 C342.96785,360.006753 338.097953,361.959174 338.375034,363.816851 C338.701293,366.006728 345.599513,366.656735 351.665293,366.801847 C351.442189,369.413869 351.516557,375.012087 351.521355,375.310706 C351.586127,379.869152 351.890795,385.990253 352.96793,389.271471 C353.143054,389.806347 353.680422,391.434963 354.95787,391.295847 C356.94901,391.072782 358.437567,385.274286 359.335979,380.442405 C360.325552,390.974442 361.484251,396.936039 362.856459,398.607829 C363.031583,398.817703 363.203109,398.966413 363.372236,399.065953 C363.880816,399.365771 364.333021,399.233851 364.536933,399.142706 C366.541267,398.239652 367.149404,389.579684 367.22737,384.097797 C371.984516,395.436945 374.17357,396.401163 375.56257,395.874681 C377.666461,395.077163 376.907189,390.715398 374.068016,380.802188" id="Fill-114" fill="#F4C5BE"></path>
                    <path d="M369.099042,353.909877 L353.684501,348.532326 L353.293469,352.889294 L368.601257,360.537073 C368.507697,359.209475 368.736798,356.716182 369.099042,353.909877" id="Fill-116" fill="#EC9193"></path>
                    <path d="M302.284184,131.098786 C311.754093,123.093623 325.861199,123.965496 334.373922,132.97925 C357.299619,157.256181 398.276318,209.600953 405.005412,237.913446 C410.923655,262.818797 372.814917,350.933156 371.448707,353.824609 C370.582681,355.654703 362.331445,354.351091 356.39401,353.148217 C352.841145,352.428652 350.312637,349.281754 350.365414,345.657543 C350.623303,327.922659 351.83478,276.262674 357.314013,251.416087 C358.012111,248.252399 356.603919,245.002362 353.819922,243.343764 C342.053005,236.332801 310.642173,213.580149 294.862989,179.018232 C285.617383,158.76487 289.742401,141.703978 302.284184,131.098786" id="Fill-118" fill="#9560D9"></path>
                    <path d="M136.603472,621.560195 C139.547001,622.436865 141.715664,625.250365 142.861169,627.942738 C143.349358,629.090445 145.025034,628.101043 144.539244,626.96293 C143.193425,623.800441 140.531775,620.702713 137.120449,619.686927 C135.919767,619.328343 135.406389,621.202811 136.603472,621.560195" id="Fill-120" fill="#2E3A5B"></path>
                    <path d="M131.162382,627.688972 C133.572141,628.797102 135.233424,630.725537 136.286569,633.126486 C136.787952,634.269396 138.463628,633.281193 137.965844,632.146678 C136.79395,629.478291 134.812406,627.238044 132.142359,626.011186 C131.014846,625.491899 130.026473,627.164888 131.162382,627.688972" id="Fill-122" fill="#2E3A5B"></path>
                    <path d="M125.470721,634.170216 C126.589838,634.837013 127.620192,635.797632 128.217534,636.960929 C128.789687,638.073857 130.466563,637.09285 129.89561,635.981121 C129.15433,634.538393 127.838498,633.31873 126.451897,632.493629 C125.375962,631.850817 124.395985,633.529803 125.470721,634.170216" id="Fill-124" fill="#2E3A5B"></path>
                    <path d="M245.841725,552.037363 C251.230997,559.950182 240.218554,562.009337 236.376613,562.339138 C233.902082,562.55141 231.40716,562.427884 228.933828,562.664142 C225.807979,562.962761 222.686927,563.557602 220.118836,565.504026 C214.147816,570.030091 214.30015,578.193558 214.711572,584.916696 C214.787139,586.159145 216.7303,586.16754 216.654733,584.916696 C216.210924,577.649087 216.158147,568.796037 224.119108,565.655134 C229.240896,563.635555 234.982816,564.976345 240.285725,563.779468 C246.171582,562.45187 251.598038,557.044337 247.5198,551.056355 C246.819303,550.028576 245.13523,550.999989 245.841725,552.037363" id="Fill-126" fill="#2E3A5B"></path>
                    <path d="M94.1623251,316.324707 C94.1623251,316.324707 77.0397215,281.574504 79.9892474,247.161298 C79.9892474,247.161298 37.8190635,245.621428 15.4067448,212.638957 C15.4067448,212.638957 12.7714832,235.295667 16.3567345,246.833896 C16.3567345,246.833896 -13.1421231,270.506392 27.166465,295.392555 C27.166465,295.392555 51.6598847,308.932374 94.1623251,316.324707" id="Fill-128" fill="#F0F3FA"></path>
                    <path d="M19.4770666,228.402832 C19.4770666,228.402832 18.1216521,227.560941 17.5063179,227.178372 C16.8909837,226.794604 8.53179456,262.578582 14.0002324,275.636292 L15.480393,276.541745 C15.480393,276.541745 13.1857842,254.997963 19.4770666,228.402832" id="Fill-130" fill="#E1E6ED"></path>
                    <path d="M31.4812412,238.450361 C31.4812412,238.450361 30.0646531,237.715205 29.4205313,237.380608 C28.7776091,237.04601 23.2084148,273.368463 29.6688241,285.964452 L31.2149562,286.752376 C31.2149562,286.752376 27.2626635,265.450847 31.4812412,238.450361" id="Fill-132" fill="#E1E6ED"></path>
                    <path d="M25.4218187,234.176743 C25.4218187,234.176743 24.0676036,233.333653 23.4510699,232.951084 C22.8357358,232.568515 16.040671,267.391874 21.5079093,280.449584 L23.4330777,281.726812 C23.4330777,281.726812 19.1305363,260.770675 25.4218187,234.176743" id="Fill-134" fill="#E1E6ED"></path>
                    <path d="M59.4547176,252.049904 C59.4547176,252.049904 58.0009456,251.390303 57.3412306,251.091683 C56.6803161,250.791864 54.4732694,286.204067 61.5945933,298.440274 L63.6696969,299.45606 C63.6696969,299.45606 56.6767176,279.236277 59.4547176,252.049904" id="Fill-136" fill="#E1E6ED"></path>
                    <path d="M51.8431655,250.013295 C51.8431655,250.013295 50.4001889,249.334505 49.7440723,249.025092 C49.0879557,248.715679 46.3771267,284.093103 53.3233262,296.42765 L55.3828365,297.474617 C55.3828365,297.474617 48.6789324,277.157693 51.8431655,250.013295" id="Fill-138" fill="#E1E6ED"></path>
                    <path d="M68.2235298,289.051746 C68.2235298,289.051746 66.7805531,288.372957 66.1244365,288.063543 C65.4683199,287.75533 66.6090272,295.563812 69.2095039,300.894591 L72.0882604,301.894786 C72.0882604,301.894786 68.7812889,293.734917 68.2235298,289.051746" id="Fill-140" fill="#E1E6ED"></path>
                    <g id="Group-144" transform="translate(0.000000, 189.485507)">
                        <mask id="mask-18" fill="white">
                            <use xlink:href="#path-17"></use>
                        </mask>
                        <g id="Clip-143"></g>
                        <path d="M18.3947741,57.6596004 C18.3947741,57.6596004 13.3797404,12.0763431 16.1625383,0.66883587 C16.1625383,0.66883587 -2.64533731,5.17211486 0.31618342,41.600104 C3.20213679,77.0890605 6.08569119,80.0032996 6.08569119,80.0032996 C6.08569119,80.0032996 7.67380518,65.1850533 18.3947741,57.6596004" id="Fill-142" fill="#E4E6EA" mask="url(#mask-18)"></path>
                    </g>
                    <g id="Group-147" transform="translate(319.062176, 117.528986)">
                        <mask id="mask-20" fill="white">
                            <use xlink:href="#path-19"></use>
                        </mask>
                        <g id="Clip-146"></g>
                        <path d="M1.15678031,37.1301649 C1.15678031,37.1301649 63.3223269,29.4440091 105.434936,0.253646739 C105.434936,0.253646739 132.721949,46.119933 143.594052,53.959596 C143.594052,53.959596 115.247897,80.391625 51.1104021,88.9412591 C51.1104021,88.9412591 12.4487026,43.4599402 1.15678031,37.1301649" id="Fill-145" fill="#F0F3FA" mask="url(#mask-20)"></path>
                    </g>
                    <path d="M368.932794,152.653003 C373.183758,151.39976 380.716504,148.459137 381.948372,147.925459 C383.17784,147.391782 415.604633,185.383626 416.291936,186.840745 C416.981638,188.297865 398.001037,191.377604 398.001037,191.377604 L368.932794,152.653003 Z" id="Fill-148" fill="#E1E6ED"></path>
                    <polygon id="Fill-150" fill="#E1E6ED" points="360.300962 156.176953 362.540395 155.594105 391.892916 193.657906 389.071734 193.649511"></polygon>
                    <polygon id="Fill-152" fill="#E1E6ED" points="352.287584 158.225316 354.527017 157.641268 383.879537 195.706268 381.058356 195.696674"></polygon>
                    <path d="M403.750514,139.101431 C403.750514,139.101431 405.98155,138.116826 407.248203,137.303717 C408.514856,136.490608 415.21876,146.421808 415.21876,146.421808 L411.44519,148.578105 L403.750514,139.101431 Z" id="Fill-154" fill="#E1E6ED"></path>
                    <path d="M409.788945,135.535146 C409.788945,135.535146 410.215961,135.651475 411.482614,134.838367 C412.749267,134.025258 419.453171,143.956457 419.453171,143.956457 L417.483622,145.013019 L409.788945,135.535146 Z" id="Fill-156" fill="#E1E6ED"></path>
                    <path d="M154.767826,63.7344098 C164.17896,62.1813482 173.587696,60.6270873 182.997631,59.0728264 C189.04182,58.0750293 195.08601,57.0772322 201.131398,56.0782359 C206.277175,55.2291489 214.036624,53.0776489 215.516784,60.6582685 C215.823852,62.2377141 218.237209,61.5685185 217.930142,59.9926707 C215.522782,47.6533264 196.98359,54.2397467 189.197753,55.5253699 C177.499206,57.4574025 165.80066,59.3894351 154.102113,61.3202685 C152.516398,61.5829098 153.190507,63.9958518 154.767826,63.7344098" id="Fill-158" fill="#D2D5D8"></path>
                    <path d="M164.43397,70.8035384 C161.246947,71.3276217 157.588527,72.2030928 156.335069,68.0619949 C155.803698,66.3050565 155.698144,64.351437 155.401872,62.5405312 C155.110398,63.0550203 154.817724,63.5683101 154.527449,64.0816 C159.29539,63.2984732 164.06333,62.5165457 168.831271,61.7346181 C168.317892,61.4419949 167.805714,61.1517703 167.291136,60.8603464 C167.895675,64.5553138 169.52817,69.5790783 164.43397,70.8035384 C162.867447,71.1801109 163.53076,73.5942522 165.099683,73.2176797 C171.827576,71.6010565 170.548929,65.3516326 169.706892,60.1947486 C169.589343,59.4799804 168.772496,59.220937 168.165558,59.3204768 C163.397618,60.1024043 158.629677,60.8843319 153.861737,61.6674587 C153.145646,61.7837884 152.887758,62.6004949 152.987315,63.2073283 C153.473105,66.1827304 153.494696,69.7469768 155.795302,71.9788283 C158.477343,74.5800565 161.822698,73.7549551 165.099683,73.2176797 C166.685398,72.957437 166.012488,70.5444949 164.43397,70.8035384" id="Fill-160" fill="#D2D5D8"></path>
                    <path d="M185.590072,67.5219612 C182.403048,68.0448453 178.745828,68.9203163 177.49117,64.7792185 C176.959799,63.0234793 176.854245,61.0686605 176.557973,59.258954 C176.267698,59.7722438 175.975025,60.2855337 175.683551,60.8000228 C180.451491,60.016896 185.219432,59.2349685 189.987372,58.4530409 L188.448437,57.5775699 C189.052976,61.2737366 190.684271,66.2975011 185.590072,67.5219612 C184.023548,67.8973344 184.686862,70.312675 186.255784,69.9361025 C192.983678,68.3182801 191.70623,62.0688562 190.862994,56.9119721 C190.745445,56.197204 189.928597,55.9393598 189.32166,56.0388996 C184.554919,56.8208272 179.785779,57.6027547 175.019038,58.3846822 C174.302947,58.5022112 174.045059,59.3177185 174.143416,59.9245518 C174.630406,62.9011533 174.650797,66.4653996 176.952603,68.6960518 C179.634644,71.2972801 182.979999,70.4733779 186.255784,69.9361025 C187.841499,69.6758598 187.16859,67.2629178 185.590072,67.5219612" id="Fill-162" fill="#D2D5D8"></path>
                </g>
            </g>
        </g>
    </g>
</svg>